<svg width="22" height="22" viewBox="0 0 22 22" fill="none" xmlns="http://www.w3.org/2000/svg">
<path fill-rule="evenodd" clip-rule="evenodd" d="M1.30956 4C1.13859 4 1 4.13859 1 4.30956V7.62046C1 7.79142 1.13859 7.93001 1.30956 7.93001H6.77389C6.94485 7.93001 7.08345 7.79142 7.08345 7.62046V6.23427H9.69448V7.84921H10.3136V6.23427H11.3096V7.84921H11.9287V6.23427H20.4612V5.61516H11.9287V4.0807H11.3096V5.61516H10.3136V4.0807H9.69448V5.61516H7.08345V4.30956C7.08345 4.13859 6.94485 4 6.77389 4H1.30956ZM6.46433 5.61516V4.61911H1.61911V7.3109H6.46433V6.23427H6.46387V5.61516H6.46433ZM1.61911 15.3055V15.9246H17.7699V17.5397H18.389V15.9246H21V15.3055H18.389V13.7711H17.7699V15.3055H1.61911ZM1 9.15478C1 8.98382 1.13859 8.84522 1.30956 8.84522H6.77389C6.94485 8.84522 7.08345 8.98382 7.08345 9.15478V10.4603H9.69448V8.92592H10.3136V10.4603H11.3096V8.92592H11.9287V10.4603H20.4616V11.0794H11.9287V12.6944H11.3096V11.0794H10.3136V12.6944H9.69448V11.0794H7.08345V12.4657C7.08345 12.6366 6.94485 12.7752 6.77389 12.7752H1.30956C1.13859 12.7752 1 12.6366 1 12.4657V9.15478ZM6.46433 11.0794V10.4603L6.46433 9.46433H1.61911V12.1561H6.46433L6.46433 11.0794Z" fill="#636363"/>
</svg>
