<svg width="22" height="22" viewBox="0 0 22 22" fill="none" xmlns="http://www.w3.org/2000/svg">
<path fill-rule="evenodd" clip-rule="evenodd" d="M17 2.79426V1H15.9091V2.66667H6.09091V1H5V2.79426C5 5.80689 6.41245 8.58145 8.71111 10.3264C9.05136 10.1074 9.40629 9.90744 9.77469 9.72817C8.75442 9.0495 7.90673 8.1515 7.28278 7.11111H14.7172C13.8579 8.54383 12.5743 9.70661 11 10.3984C10.9971 10.3997 10.9942 10.4009 10.9913 10.4022C10.9272 10.4303 10.8625 10.4577 10.7974 10.4842C10.429 10.6343 10.0738 10.8069 9.73329 11C7.11707 12.4838 5.36393 15.1803 5.05045 18.2222L5 19.2057V19.3333V21H6.09091V19.3333H15.9091V21H17V19.3333V19.2057V19.125L16.9495 18.2222C16.6789 15.5957 15.3349 13.2268 13.2889 11.6736C12.9486 11.8926 12.5937 12.0926 12.2253 12.2718C13.2456 12.9505 14.0933 13.8485 14.7172 14.8889H7.28278C8.14209 13.4562 9.42565 12.2934 11 11.6016C11.0029 11.6003 11.0058 11.5991 11.0087 11.5978C11.0728 11.5697 11.1375 11.5423 11.2026 11.5158C11.571 11.3657 11.9262 11.1931 12.2667 11C15.1618 9.35806 17 6.23106 17 2.79426ZM15.2755 16H6.72446C6.43498 16.702 6.23878 17.4489 6.14824 18.2222H15.8518C15.7612 17.4489 15.565 16.702 15.2755 16ZM6.72446 6H15.2755C15.565 5.298 15.7612 4.55111 15.8518 3.77778H6.14824C6.23878 4.55111 6.43498 5.298 6.72446 6Z" fill="#636363"/>
</svg>
