<svg width="22" height="22" viewBox="0 0 22 22" fill="none" xmlns="http://www.w3.org/2000/svg">
<path fill-rule="evenodd" clip-rule="evenodd" d="M5.0047 1.51265L4.49206 1L4.1746 1.31746L4.65079 1.79366L1.79365 4.65083L1.31746 4.17463L1 4.49209L1.51264 5.00475C2.37339 5.86552 3.57715 6.24723 4.74463 6.07684C4.78107 5.91527 4.82723 5.75484 4.88322 5.59641C4.39241 5.69939 3.88915 5.68952 3.41033 5.57382L5.57377 3.41036C5.73309 4.06977 5.69177 4.77553 5.4313 5.43135L5.42985 5.43496C5.41922 5.46165 5.40824 5.48828 5.39683 5.51479C5.33249 5.66488 5.27845 5.81756 5.23455 5.97182C4.89715 7.1571 5.15741 8.43775 5.9353 9.3981L6.20164 9.69376L6.23811 9.73023L6.39683 9.88899L6.90946 10.4016C7.77018 11.2624 8.97397 11.6441 10.1415 11.4737C10.1779 11.3122 10.224 11.1517 10.28 10.9933C9.7892 11.0963 9.28597 11.0864 8.80716 10.9707L10.9706 8.80724C11.1299 9.46665 11.0886 10.1724 10.8281 10.8282L10.8266 10.8319C10.816 10.8585 10.805 10.8852 10.7937 10.9117C10.7293 11.0618 10.6753 11.2144 10.6314 11.3687C10.294 12.554 10.5542 13.8346 11.3321 14.795L11.5984 15.0907L11.6349 15.1271L12.1111 15.6033L12.3063 15.7983C13.1671 16.6591 14.3708 17.0408 15.5383 16.8704C15.5747 16.7088 15.6209 16.5484 15.6769 16.39C15.1861 16.493 14.6828 16.4831 14.204 16.3674L16.3674 14.2039C16.5267 14.8634 16.4854 15.5691 16.225 16.2249L16.2235 16.2285C16.2129 16.2552 16.2019 16.2818 16.1905 16.3084C16.1261 16.4585 16.0721 16.6112 16.0282 16.7654C15.6908 17.9507 15.951 19.2313 16.729 20.1917L16.9953 20.4874L17.0317 20.5238L17.5079 21L17.8254 20.6826L17.3492 20.2063L20.2063 17.3492L20.6825 17.8254L21 17.5079L20.5238 17.0317L20.4873 16.9953L20.4643 16.9722L20.1917 16.729C19.3625 16.0573 18.2945 15.7715 17.2553 15.9232C17.2189 16.0848 17.1727 16.2452 17.1168 16.4036C17.6076 16.3006 18.1108 16.3105 18.5897 16.4262L16.4262 18.5896C16.2669 17.9302 16.3082 17.2245 16.5687 16.5687L16.5701 16.5651C16.5808 16.5384 16.5918 16.5118 16.6031 16.4852C16.6675 16.3351 16.7215 16.1824 16.7654 16.0282C17.1388 14.7166 16.7803 13.2882 15.7984 12.3062L15.2857 11.7936L15.127 11.635L15.0905 11.5986L15.0674 11.5755L14.7948 11.3322C13.9656 10.6606 12.8977 10.3748 11.8585 10.5265C11.8221 10.6881 11.7759 10.8485 11.7199 11.0069C12.2107 10.9039 12.714 10.9138 13.1928 11.0295L11.0294 13.193C10.8701 12.5336 10.9114 11.8278 11.1718 11.172L11.1733 11.1684C11.1839 11.1417 11.1949 11.115 11.2063 11.0885C11.2706 10.9384 11.3247 10.7858 11.3686 10.6315C11.742 9.31984 11.3834 7.89149 10.4015 6.90953L10.2063 6.71433L9.73013 6.23816L9.69367 6.20169L9.6706 6.17863L9.39801 5.93535C8.56882 5.26369 7.50087 4.97794 6.46172 5.1296C6.42525 5.29118 6.37908 5.4516 6.32313 5.61003C6.81393 5.50701 7.31716 5.51692 7.79601 5.63258L5.63253 7.79609C5.47326 7.13668 5.51458 6.43089 5.77504 5.77509L5.77649 5.77148C5.78713 5.7448 5.79811 5.71816 5.80951 5.69165C5.87385 5.54152 5.92785 5.38888 5.97177 5.23458C6.34517 3.92296 5.98666 2.4946 5.0047 1.51265ZM15.2858 12.4286L14.8095 11.9525L11.9523 14.8097L12.111 14.9683L12.5873 15.4444L15.4444 12.5872L15.2858 12.4286ZM7.19044 10.0477L7.03172 9.88899L6.55555 9.41278L9.41269 6.55561L9.57141 6.71433L10.0476 7.19055L7.19044 10.0477ZM8.27593 5.78756L5.78751 8.276C5.90385 8.56081 6.06015 8.83133 6.25479 9.07865L9.07856 6.25484C8.83124 6.0602 8.56073 5.9039 8.27593 5.78756ZM5.41879 2.93041C5.30245 2.6456 5.14617 2.37511 4.95157 2.1278L2.12779 4.9516C2.37509 5.1462 2.64558 5.3025 2.9304 5.41884L5.41879 2.93041ZM13.6728 11.1845L11.1843 13.6729C11.3007 13.9577 11.457 14.2282 11.6516 14.4755L14.4753 11.6517C14.2281 11.4571 13.9576 11.3008 13.6728 11.1845ZM10.8156 8.32732C10.6993 8.04251 10.543 7.772 10.3484 7.52468L7.52461 10.3485C7.77189 10.5431 8.0424 10.6994 8.3272 10.8157L10.8156 8.32732ZM16.5812 19.0696L19.0696 16.5812C19.3544 16.6975 19.6249 16.8538 19.8722 17.0484L17.0484 19.8722C16.8538 19.6249 16.6975 19.3544 16.5812 19.0696ZM15.7452 12.9214C15.9398 13.1687 16.0961 13.4392 16.2124 13.724L13.724 16.2124C13.4392 16.0961 13.1688 15.9398 12.9214 15.7452L15.7452 12.9214Z" fill="#636363"/>
</svg>
