<svg width="22" height="22" viewBox="0 0 22 22" fill="none" xmlns="http://www.w3.org/2000/svg">
<path fill-rule="evenodd" clip-rule="evenodd" d="M17.2857 1V2.79426C17.2857 6.23106 15.4563 9.35806 12.575 11C12.2361 11.1931 11.8826 11.3657 11.5159 11.5158C11.4511 11.5423 11.3868 11.5697 11.3229 11.5978L11.3143 11.6016C9.74744 12.2934 8.46999 13.4562 7.61477 14.8889H15.0138C14.3928 13.8485 13.5492 12.9505 12.5338 12.2718C12.9004 12.0926 13.2536 11.8926 13.5923 11.6736C14.3696 12.2665 15.0451 12.9782 15.5982 13.7778H17.3129C17.4386 13.1438 17.9863 12.6667 18.6429 12.6667C19.3924 12.6667 20 13.2885 20 14.0556C20 14.8226 19.3924 15.4444 18.6429 15.4444C17.9863 15.4444 17.4386 14.9673 17.3129 14.3333H15.9544C16.6467 15.5007 17.0922 16.8251 17.2355 18.2222L17.2857 19.125V19.2057V19.3333V21H16.2V19.3333H6.42857V21H5.34286V19.3333V19.2057L5.39307 18.2222C5.41218 18.0357 5.43672 17.8504 5.46652 17.6667H3.68714C3.5614 18.3006 3.01372 18.7778 2.35714 18.7778C1.60761 18.7778 1 18.1559 1 17.3889C1 16.6218 1.60761 16 2.35714 16C3.01372 16 3.5614 16.4772 3.68714 17.1111H5.57346C6.14976 14.5319 7.77187 12.3003 10.0536 11C10.3925 10.8069 10.746 10.6343 11.1127 10.4842C11.1775 10.4577 11.2418 10.4303 11.3057 10.4022L11.3143 10.3984C12.8811 9.70661 14.1586 8.54383 15.0138 7.11111H7.61477C8.23574 8.1515 9.0794 9.0495 10.0948 9.72817C9.72817 9.90744 9.37493 10.1074 9.03629 10.3264C7.1446 8.8835 5.85597 6.73667 5.46652 4.33333H3.68714C3.5614 4.96728 3.01372 5.44444 2.35714 5.44444C1.60761 5.44444 1 4.82261 1 4.05556C1 3.2885 1.60761 2.66667 2.35714 2.66667C3.01372 2.66667 3.5614 3.14382 3.68714 3.77778H5.39307C5.35985 3.4535 5.34286 3.12532 5.34286 2.79426V1H6.42857V2.66667H16.2V1H17.2857ZM17.8286 14.0556C17.8286 14.5158 18.1932 14.8889 18.6429 14.8889C19.0926 14.8889 19.4571 14.5158 19.4571 14.0556C19.4571 13.5953 19.0926 13.2222 18.6429 13.2222C18.1932 13.2222 17.8286 13.5953 17.8286 14.0556ZM6.48563 18.2222C6.57574 17.4489 6.77101 16.702 7.0591 16H15.5695C15.8576 16.702 16.0528 17.4489 16.1429 18.2222H6.48563ZM15.5695 6H7.0591C6.77101 5.298 6.57574 4.55111 6.48563 3.77778H16.1429C16.0528 4.55111 15.8576 5.298 15.5695 6Z" fill="#636363"/>
</svg>
