<svg width="22" height="22" viewBox="0 0 22 22" fill="none" xmlns="http://www.w3.org/2000/svg">
<g clip-path="url(#clip0_1647_2285)">
<path fill-rule="evenodd" clip-rule="evenodd" d="M6.16 11.76C9.25279 11.76 11.76 9.25279 11.76 6.16C11.76 3.06721 9.25279 0.56 6.16 0.56C3.06721 0.56 0.56 3.06721 0.56 6.16C0.56 9.25279 3.06721 11.76 6.16 11.76ZM6.16 12.32C9.56207 12.32 12.32 9.56207 12.32 6.16C12.32 2.75793 9.56207 0 6.16 0C2.75793 0 0 2.75793 0 6.16C0 9.56207 2.75793 12.32 6.16 12.32Z" fill="#636363"/>
<path fill-rule="evenodd" clip-rule="evenodd" d="M15.8397 21.4399C18.9325 21.4399 21.4397 18.9327 21.4397 15.8399C21.4397 12.7471 18.9325 10.2399 15.8397 10.2399C12.7469 10.2399 10.2397 12.7471 10.2397 15.8399C10.2397 18.9327 12.7469 21.4399 15.8397 21.4399ZM15.8397 21.9999C19.2418 21.9999 21.9997 19.242 21.9997 15.8399C21.9997 12.4379 19.2418 9.67993 15.8397 9.67993C12.4376 9.67993 9.67969 12.4379 9.67969 15.8399C9.67969 19.242 12.4376 21.9999 15.8397 21.9999Z" fill="#636363"/>
<path d="M17.6251 12.3201V12.2951H17.6001H17.2801H17.2551V12.3201V12.8817H14.4251V12.3201V12.2951H14.4001H14.0801H14.0551V12.3201V12.9516C14.0551 14.0183 14.4718 15.0019 15.1518 15.6214L15.1673 15.6356L15.184 15.6227C15.2829 15.5463 15.3861 15.4765 15.4933 15.414L15.5247 15.3956L15.4963 15.3728C15.21 15.1443 14.9701 14.8441 14.7904 14.4962H16.8897C16.6399 14.9799 16.2739 15.3713 15.8284 15.6062L15.8259 15.6075C15.8073 15.6173 15.7886 15.6268 15.7697 15.636L15.7697 15.636C15.6605 15.6894 15.5553 15.7508 15.4544 15.8194C14.6798 16.3466 14.1625 17.3032 14.07 18.3802L14.0699 18.3801L14.0699 18.3812L14.0551 18.7274L14.0551 18.7274V18.7285V18.7734V19.3601V19.3851H14.0801H14.4001H14.4251V19.3601V18.7984H17.2551V19.3601V19.3851H17.2801H17.6001H17.6251V19.3601V18.7734V18.7285V18.7001H17.6251L17.6251 18.6989L17.6103 18.3811L17.6103 18.3811L17.6102 18.3802C17.5303 17.4501 17.1337 16.6102 16.5283 16.0587L16.5128 16.0446L16.4962 16.0574C16.3972 16.1338 16.294 16.2036 16.1869 16.2662L16.1554 16.2845L16.1839 16.3073C16.4702 16.5358 16.71 16.836 16.8897 17.184H14.7904C15.0403 16.7003 15.4063 16.3088 15.8517 16.0739L15.8543 16.0726C15.8729 16.0628 15.8916 16.0533 15.9105 16.0441L15.9105 16.0441C16.0197 15.9907 16.1249 15.9294 16.2257 15.8607C17.0829 15.2774 17.6251 14.1683 17.6251 12.9516V12.3201ZM14.4446 18.3573C14.4714 18.1029 14.5255 17.8571 14.6038 17.6251H17.0763C17.1547 17.8571 17.2088 18.1029 17.2356 18.3573H14.4446ZM17.2356 13.3228C17.2088 13.5772 17.1547 13.8231 17.0763 14.0551H14.6038C14.5255 13.8231 14.4714 13.5772 14.4446 13.3228H17.2356Z" fill="#636363" stroke="#636363" stroke-width="0.05"/>
<path d="M7.94539 2.63989V2.61489H7.92039H7.60039H7.57539V2.63989V3.20156H4.74539V2.63989V2.61489H4.72039H4.40039H4.37539V2.63989V3.27147C4.37539 4.33808 4.79206 5.32175 5.47215 5.94126L5.48766 5.95539L5.50426 5.94257C5.60324 5.86612 5.70646 5.79635 5.81357 5.7338L5.84505 5.71541L5.81656 5.69267C5.53027 5.46415 5.29043 5.16393 5.11075 4.816H7.21003C6.96021 5.2997 6.59421 5.69112 6.14873 5.92603L6.14621 5.92735C6.12761 5.93713 6.10887 5.94664 6.09 5.95585L6.08999 5.95586C5.98081 6.00924 5.8756 6.0706 5.77476 6.13922C5.00012 6.66642 4.48277 7.623 4.39028 8.69998L4.39026 8.69997L4.39021 8.70105L4.37541 9.04724L4.37539 9.04724V9.04831V9.09323V9.67989V9.70489H4.40039H4.72039H4.74539V9.67989V9.11823H7.57539V9.67989V9.70489H7.60039H7.92039H7.94539V9.67989V9.09323V9.04831V9.01989H7.94542L7.94536 9.01873L7.93056 8.70095L7.93058 8.70095L7.9305 8.69998C7.85064 7.76996 7.45401 6.92998 6.84863 6.37852L6.83312 6.36439L6.81652 6.37722C6.71754 6.45366 6.61432 6.52344 6.50721 6.58599L6.47573 6.60437L6.50422 6.62712C6.79051 6.85564 7.03035 7.15586 7.21003 7.50378H5.11075C5.36057 7.02008 5.72658 6.62867 6.17205 6.39375L6.17457 6.39244C6.19317 6.38266 6.21191 6.37315 6.23078 6.36393L6.2308 6.36393C6.33997 6.31055 6.44518 6.24919 6.54602 6.18056C7.40319 5.59719 7.94539 4.48808 7.94539 3.27147V2.63989ZM4.76487 8.67711C4.79171 8.42277 4.84581 8.17689 4.92413 7.94489H7.39665C7.47497 8.17689 7.52907 8.42277 7.55591 8.67711H4.76487ZM7.55591 3.64267C7.52907 3.89702 7.47497 4.1429 7.39666 4.37489H4.92413C4.84581 4.1429 4.79171 3.89702 4.76487 3.64267H7.55591Z" fill="#636363" stroke="#636363" stroke-width="0.05"/>
</g>
<defs>
<clipPath id="clip0_1647_2285">
<rect width="22" height="22" fill="white"/>
</clipPath>
</defs>
</svg>
