<svg width="22" height="22" viewBox="0 0 22 22" fill="none" xmlns="http://www.w3.org/2000/svg">
<g clip-path="url(#clip0_1647_2289)">
<path fill-rule="evenodd" clip-rule="evenodd" d="M0.55 6.05C0.55 3.01243 3.01243 0.55 6.05 0.55C9.08757 0.55 11.55 3.01243 11.55 6.05C11.55 9.08757 9.08757 11.55 6.05 11.55C3.01243 11.55 0.55 9.08757 0.55 6.05ZM6.05 0C2.70868 0 0 2.70868 0 6.05C0 9.39132 2.70868 12.1 6.05 12.1C9.39132 12.1 12.1 9.39132 12.1 6.05C12.1 2.70868 9.39132 0 6.05 0ZM10.45 15.95C10.45 12.9124 12.9124 10.45 15.95 10.45C18.9876 10.45 21.45 12.9124 21.45 15.95C21.45 18.9876 18.9876 21.45 15.95 21.45C12.9124 21.45 10.45 18.9876 10.45 15.95ZM15.95 9.9C12.6087 9.9 9.9 12.6087 9.9 15.95C9.9 19.2913 12.6087 22 15.95 22C19.2913 22 22 19.2913 22 15.95C22 12.6087 19.2913 9.9 15.95 9.9ZM2.2 3.57527C2.2 3.42339 2.32312 3.30027 2.475 3.30027H5.225C5.37688 3.30027 5.5 3.42339 5.5 3.57527V3.85H6.05V3.30027H6.6V3.85H7.15V3.30027H7.7V3.85H9.9V4.4H7.7V4.95027H7.15V4.4H6.6V4.95027H6.05V4.4H5.5V4.67527C5.5 4.82715 5.37688 4.95027 5.225 4.95027H2.475C2.32312 4.95027 2.2 4.82715 2.2 4.67527V3.57527ZM2.75 3.85027V4.40027H4.95V3.85027H2.75ZM2.2 8.8V8.25H6.05V7.69973H6.6V8.25H7.15V7.69973H7.7V8.25H8.8V7.69973H9.35V8.25H9.9V8.8H9.35V9.34973H8.8V8.8H7.7V9.34973H7.15V8.8H6.6V9.34973H6.05V8.8H2.2ZM2.475 5.5C2.32312 5.5 2.2 5.62312 2.2 5.775V6.875C2.2 7.02688 2.32312 7.15 2.475 7.15H5.225C5.37688 7.15 5.5 7.02688 5.5 6.875V6.60027H6.05V7.15H6.6V6.60027H7.15V7.15H7.7V6.60027H9.9V6.05027H7.7V5.5H7.15V6.05027H6.6V5.5H6.05V6.05027H5.5V5.775C5.5 5.62312 5.37688 5.5 5.225 5.5H2.475ZM2.75 6.6V6.05H4.95V6.6H2.75ZM12.1 13.4747C12.1 13.3229 12.2231 13.1997 12.375 13.1997H15.125C15.2769 13.1997 15.4 13.3229 15.4 13.4747L15.4 13.75H15.95V13.1997H16.5V13.75H17.05V13.1997H17.6V13.75H19.8V14.3H17.6V14.8497H17.05V14.3H16.5V14.8497H15.95V14.3H15.4L15.4 14.5747C15.4 14.7266 15.2769 14.8497 15.125 14.8497H12.375C12.2231 14.8497 12.1 14.7266 12.1 14.5747V13.4747ZM12.65 13.7497V14.2997H14.85V13.7497H12.65ZM12.1 18.7V18.15H15.95V17.6H16.5V18.15H17.05V17.6H17.6V18.15H18.7V17.6H19.25V18.15H19.8V18.7H19.25V19.25H18.7V18.7H17.6V19.25H17.05V18.7H16.5V19.25H15.95V18.7H12.1ZM12.375 15.4C12.2231 15.4 12.1 15.5231 12.1 15.675V16.775C12.1 16.9269 12.2231 17.05 12.375 17.05H15.125C15.2769 17.05 15.4 16.9269 15.4 16.775L15.4 16.4997H15.95V17.05H16.5V16.4997H17.05V17.05H17.6V16.4997H19.8V15.9497H17.6V15.4H17.05V15.9497H16.5V15.4H15.95V15.9497H15.4L15.4 15.675C15.4 15.5231 15.2769 15.4 15.125 15.4H12.375ZM12.65 16.5V15.95H14.85V16.5H12.65Z" fill="#636363"/>
</g>
<defs>
<clipPath id="clip0_1647_2289">
<rect width="22" height="22" fill="white"/>
</clipPath>
</defs>
</svg>
