<svg width="22" height="22" viewBox="0 0 22 22" fill="none" xmlns="http://www.w3.org/2000/svg">
<path d="M14.4041 14.8163C13.7993 13.8261 12.9915 12.9628 12.024 12.2904C12.2982 12.1517 12.5649 12.0019 12.8236 11.8418C14.8333 13.3719 16.1518 15.6789 16.4208 18.2332L16.4718 19.1287V19.2055V19.3331V20.8609H15.6385V19.3331V19.1942H15.4996H5.49957H5.36068V19.3331V20.8609H4.52734V19.3331V19.2091L4.57834 18.2329C4.89395 15.2375 6.65279 12.5823 9.27695 11.1211C9.61868 10.9309 9.97501 10.7608 10.3447 10.6129C10.4122 10.5859 10.4792 10.5582 10.5456 10.5296L10.5528 10.5265L10.5546 10.5257C12.185 9.82228 13.5143 8.63995 14.4041 7.18328L14.5332 6.972H14.2856H6.71351H6.4659L6.59501 7.18328C7.19979 8.17345 8.00762 9.03678 8.97512 9.70912C8.7009 9.84784 8.43423 9.99762 8.17557 10.1578C5.91368 8.43556 4.52734 5.72945 4.52734 2.79404V1.13867H5.36068V2.66645V2.80534H5.49957H15.4996H15.6385V2.66645V1.13867H16.4718V2.79404C16.4718 6.18 14.6272 9.26078 11.7222 10.8784C11.3805 11.0687 11.0241 11.2387 10.6544 11.3866C10.5869 11.4136 10.52 11.4414 10.4535 11.47L10.4463 11.4731L10.4446 11.4738C8.81412 12.1773 7.48484 13.3596 6.59501 14.8163L6.4659 15.0276H6.71351H14.2856H14.5332L14.4041 14.8163ZM14.9823 15.946L14.9466 15.8609H14.8543H6.14484H6.05251L6.01679 15.946C5.71701 16.6598 5.51379 17.4192 5.42007 18.2056L5.40151 18.3609H5.55795H15.4412H15.5976L15.5791 18.2056C15.4853 17.4192 15.2821 16.6598 14.9823 15.946ZM6.01679 6.05356L6.05251 6.13867H6.14484H14.8543H14.9466L14.9823 6.05356C15.2821 5.33978 15.4853 4.58034 15.5791 3.79401L15.5976 3.63867H15.4412H5.55795H5.40151L5.42007 3.79401C5.51379 4.58034 5.71701 5.33978 6.01679 6.05356Z" stroke="#636363" stroke-width="0.25"/>
<path fill-rule="evenodd" clip-rule="evenodd" d="M14.2858 7.11111H10.4998V6H14.8545C15.1493 5.298 15.3492 4.55111 15.4414 3.77778H10.4998V2.66667H15.4998V1H16.6109V2.79426C16.6109 6.23106 14.7387 9.35806 11.7899 11C11.4431 11.1931 11.0814 11.3657 10.7061 11.5158C10.6398 11.5423 10.5739 11.5697 10.5086 11.5978L10.4998 11.6016C8.89628 12.2934 7.58895 13.4562 6.71373 14.8889H10.4998V16H6.14506C5.85023 16.702 5.65039 17.4489 5.55817 18.2222H10.4998V19.3333H5.49978V21H4.38867V19.3333V19.2057L4.44006 18.2222C4.75934 15.1803 6.54495 12.4838 9.20962 11C9.55645 10.8069 9.91817 10.6343 10.2934 10.4842C10.3598 10.4577 10.4256 10.4303 10.491 10.4022L10.4998 10.3984C12.1033 9.70661 13.4106 8.54383 14.2858 7.11111Z" fill="#636363"/>
</svg>
