<svg width="459" height="436" viewBox="0 0 459 436" fill="none" xmlns="http://www.w3.org/2000/svg">
<g clip-path="url(#clip0_1618_1722)">
<path opacity="0.25" d="M116.991 295.318C115.773 297.264 115.773 299.736 116.991 301.682L197.487 430.349C198.584 432.102 200.506 433.167 202.574 433.167L364.426 433.167C366.494 433.167 368.416 432.102 369.513 430.349L450.009 301.682C451.227 299.736 451.227 297.264 450.009 295.318L369.513 166.651C368.416 164.898 366.494 163.833 364.426 163.833L202.574 163.833C200.506 163.833 198.584 164.898 197.487 166.651L116.991 295.318Z" fill="url(#paint0_linear_1618_1722)"/>
<path opacity="0.25" d="M-155.009 158.682C-156.227 156.736 -156.227 154.264 -155.009 152.318L-74.5128 23.6508C-73.4161 21.8978 -71.4941 20.8331 -69.4263 20.8331L92.4262 20.8331C94.494 20.8331 96.4161 21.8978 97.5128 23.6508L178.009 152.318C179.227 154.264 179.227 156.736 178.009 158.682L97.5128 287.349C96.4161 289.102 94.494 290.167 92.4263 290.167L-69.4263 290.167C-71.494 290.167 -73.4161 289.102 -74.5128 287.349L-155.009 158.682Z" fill="url(#paint1_linear_1618_1722)"/>
</g>
<defs>
<linearGradient id="paint0_linear_1618_1722" x1="408" y1="415.5" x2="184.888" y2="240.143" gradientUnits="userSpaceOnUse">
<stop stop-color="#DCE2FF"/>
<stop offset="1" stop-color="#B3EDFF"/>
</linearGradient>
<linearGradient id="paint1_linear_1618_1722" x1="-50.7484" y1="40.7517" x2="98.2509" y2="326.109" gradientUnits="userSpaceOnUse">
<stop stop-color="#DFE4FF"/>
<stop offset="1" stop-color="#CCE7FF"/>
</linearGradient>
<clipPath id="clip0_1618_1722">
<rect width="459" height="436" fill="white"/>
</clipPath>
</defs>
</svg>
