<svg width="1853" height="104" viewBox="0 0 1853 104" fill="none" xmlns="http://www.w3.org/2000/svg">
<mask id="mask0_1119_861" style="mask-type:alpha" maskUnits="userSpaceOnUse" x="0" y="0" width="1853" height="104">
<path opacity="0.5" d="M0 0H1853V104H0V0Z" fill="url(#paint0_linear_1119_861)"/>
</mask>
<g mask="url(#mask0_1119_861)">
<path opacity="0.1" d="M1646.01 -5.30408C1644.78 -7.25737 1644.78 -9.74263 1646.01 -11.6959L1672.49 -53.7603C1673.58 -55.5055 1675.5 -56.5644 1677.56 -56.5644L1731.44 -56.5644C1733.5 -56.5644 1735.42 -55.5055 1736.51 -53.7603L1762.99 -11.6959C1764.22 -9.74263 1764.22 -7.25737 1762.99 -5.30409L1736.51 36.7603C1735.42 38.5055 1733.5 39.5644 1731.44 39.5644L1677.56 39.5644C1675.5 39.5644 1673.58 38.5055 1672.49 36.7603L1646.01 -5.30408Z" fill="url(#paint1_linear_1119_861)"/>
<path opacity="0.15" d="M1761.02 100.677C1762.23 98.7328 1762.23 96.2672 1761.02 94.3231L1734.76 52.2587C1733.67 50.5026 1731.74 49.4356 1729.67 49.4356L1676.33 49.4356C1674.26 49.4356 1672.33 50.5026 1671.24 52.2587L1644.98 94.3231C1643.77 96.2672 1643.77 98.7328 1644.98 100.677L1671.24 142.741C1672.33 144.497 1674.26 145.564 1676.33 145.564L1729.67 145.564C1731.74 145.564 1733.67 144.497 1734.76 142.741L1761.02 100.677Z" fill="url(#paint2_linear_1119_861)"/>
<path opacity="0.15" d="M1742.98 47.6769C1741.77 45.7328 1741.77 43.2672 1742.98 41.3231L1769.24 -0.741336C1770.33 -2.49738 1772.26 -3.56441 1774.33 -3.56441L1827.67 -3.56441C1829.74 -3.56441 1831.67 -2.49738 1832.76 -0.741339L1859.02 41.3231C1860.23 43.2672 1860.23 45.7328 1859.02 47.6769L1832.76 89.7413C1831.67 91.4974 1829.74 92.5644 1827.67 92.5644L1774.33 92.5644C1772.26 92.5644 1770.33 91.4974 1769.24 89.7413L1742.98 47.6769Z" fill="url(#paint3_linear_1119_861)"/>
<path opacity="0.1" d="M1448.01 -4.30408C1446.78 -6.25737 1446.78 -8.74263 1448.01 -10.6959L1474.49 -52.7603C1475.58 -54.5055 1477.5 -55.5644 1479.56 -55.5644L1533.44 -55.5644C1535.5 -55.5644 1537.42 -54.5055 1538.51 -52.7603L1564.99 -10.6959C1566.22 -8.74263 1566.22 -6.25737 1564.99 -4.30409L1538.51 37.7603C1537.42 39.5055 1535.5 40.5644 1533.44 40.5644L1479.56 40.5644C1477.5 40.5644 1475.58 39.5055 1474.49 37.7603L1448.01 -4.30408Z" fill="url(#paint4_linear_1119_861)"/>
<path opacity="0.15" d="M1563.02 101.677C1564.23 99.7328 1564.23 97.2672 1563.02 95.3231L1536.76 53.2587C1535.67 51.5026 1533.74 50.4356 1531.67 50.4356L1478.33 50.4356C1476.26 50.4356 1474.33 51.5026 1473.24 53.2587L1446.98 95.3231C1445.77 97.2672 1445.77 99.7328 1446.98 101.677L1473.24 143.741C1474.33 145.497 1476.26 146.564 1478.33 146.564L1531.67 146.564C1533.74 146.564 1535.67 145.497 1536.76 143.741L1563.02 101.677Z" fill="url(#paint5_linear_1119_861)"/>
<path opacity="0.15" d="M1544.98 48.6769C1543.77 46.7328 1543.77 44.2672 1544.98 42.3231L1571.24 0.258664C1572.33 -1.49738 1574.26 -2.56441 1576.33 -2.56441L1629.67 -2.56441C1631.74 -2.56441 1633.67 -1.49738 1634.76 0.258661L1661.02 42.3231C1662.23 44.2672 1662.23 46.7328 1661.02 48.6769L1634.76 90.7413C1633.67 92.4974 1631.74 93.5644 1629.67 93.5644L1576.33 93.5644C1574.26 93.5644 1572.33 92.4974 1571.24 90.7413L1544.98 48.6769Z" fill="url(#paint6_linear_1119_861)"/>
<path opacity="0.15" d="M1464.02 45.6769C1465.23 43.7328 1465.23 41.2672 1464.02 39.3231L1437.76 -2.74134C1436.67 -4.49738 1434.74 -5.56441 1432.67 -5.56441L1379.33 -5.56441C1377.26 -5.56441 1375.33 -4.49738 1374.24 -2.74134L1347.98 39.3231C1346.77 41.2672 1346.77 43.7328 1347.98 45.6769L1374.24 87.7413C1375.33 89.4974 1377.26 90.5644 1379.33 90.5644L1432.67 90.5644C1434.74 90.5644 1436.67 89.4974 1437.76 87.7413L1464.02 45.6769Z" fill="url(#paint7_linear_1119_861)"/>
<path opacity="0.15" d="M1365.02 106.677C1366.23 104.733 1366.23 102.267 1365.02 100.323L1338.76 58.2587C1337.67 56.5026 1335.74 55.4356 1333.67 55.4356L1280.33 55.4356C1278.26 55.4356 1276.33 56.5026 1275.24 58.2587L1248.98 100.323C1247.77 102.267 1247.77 104.733 1248.98 106.677L1275.24 148.741C1276.33 150.497 1278.26 151.564 1280.33 151.564L1333.67 151.564C1335.74 151.564 1337.67 150.497 1338.76 148.741L1365.02 106.677Z" fill="url(#paint8_linear_1119_861)"/>
<path opacity="0.15" d="M1367.02 -25.3231C1368.23 -27.2672 1368.23 -29.7328 1367.02 -31.6769L1340.76 -73.7413C1339.67 -75.4974 1337.74 -76.5644 1335.67 -76.5644L1282.33 -76.5644C1280.26 -76.5644 1278.33 -75.4974 1277.24 -73.7413L1250.98 -31.6769C1249.77 -29.7328 1249.77 -27.2672 1250.98 -25.3231L1277.24 16.7413C1278.33 18.4974 1280.26 19.5644 1282.33 19.5644L1335.67 19.5644C1337.74 19.5644 1339.67 18.4974 1340.76 16.7413L1367.02 -25.3231Z" fill="url(#paint9_linear_1119_861)"/>
<path opacity="0.15" d="M1445.98 -7.32307C1444.77 -9.26721 1444.77 -11.7328 1445.98 -13.6769L1472.24 -55.7413C1473.33 -57.4974 1475.26 -58.5644 1477.33 -58.5644L1530.67 -58.5644C1532.74 -58.5644 1534.67 -57.4974 1535.76 -55.7413L1562.02 -13.6769C1563.23 -11.7328 1563.23 -9.26722 1562.02 -7.32307L1535.76 34.7413C1534.67 36.4974 1532.74 37.5644 1530.67 37.5644L1477.33 37.5644C1475.26 37.5644 1473.33 36.4974 1472.24 34.7413L1445.98 -7.32307Z" fill="url(#paint10_linear_1119_861)"/>
<path opacity="0.45" d="M36.9762 73.8276C35.7665 75.7695 35.7665 78.2304 36.9762 80.1724L63.9886 123.536C65.0841 125.294 67.0094 126.363 69.0813 126.363L123.919 126.363C125.991 126.363 127.916 125.294 129.011 123.536L156.024 80.1724C157.234 78.2305 157.234 75.7695 156.024 73.8276L129.011 30.4641C127.916 28.7055 125.991 27.6366 123.919 27.6366L69.0813 27.6366C67.0094 27.6366 65.0841 28.7055 63.9886 30.4641L36.9762 73.8276Z" fill="url(#paint11_linear_1119_861)"/>
<path opacity="0.45" d="M36.9762 -35.1724C35.7665 -33.2305 35.7665 -30.7696 36.9762 -28.8276L63.9886 14.5359C65.0841 16.2945 67.0094 17.3634 69.0813 17.3634L123.919 17.3634C125.991 17.3634 127.916 16.2945 129.011 14.5359L156.024 -28.8276C157.234 -30.7695 157.234 -33.2305 156.024 -35.1724L129.011 -78.5359C127.916 -80.2945 125.991 -81.3634 123.919 -81.3634L69.0813 -81.3634C67.0094 -81.3634 65.0841 -80.2945 63.9886 -78.5359L36.9762 -35.1724Z" fill="url(#paint12_linear_1119_861)"/>
<path opacity="0.45" d="M-63.9961 25.1909C-65.2213 23.24 -65.2213 20.76 -63.9961 18.8091L-36.7641 -24.5544C-35.6663 -26.3024 -33.7471 -27.3634 -31.6829 -27.3634L23.6829 -27.3634C25.7471 -27.3634 27.6663 -26.3024 28.7641 -24.5544L55.9961 18.8091C57.2213 20.76 57.2213 23.24 55.9961 25.1909L28.7641 68.5544C27.6663 70.3024 25.7471 71.3634 23.683 71.3634L-31.6829 71.3634C-33.7471 71.3634 -35.6663 70.3024 -36.7641 68.5544L-63.9961 25.1909Z" fill="url(#paint13_linear_1119_861)"/>
<path opacity="0.45" d="M241.976 -33.1724C240.766 -31.2305 240.766 -28.7696 241.976 -26.8276L268.989 16.5359C270.084 18.2945 272.009 19.3634 274.081 19.3634L328.919 19.3634C330.991 19.3634 332.916 18.2945 334.011 16.5359L361.024 -26.8276C362.234 -28.7695 362.234 -31.2305 361.024 -33.1724L334.011 -76.5359C332.916 -78.2945 330.991 -79.3634 328.919 -79.3634L274.081 -79.3634C272.009 -79.3634 270.084 -78.2945 268.989 -76.5359L241.976 -33.1724Z" fill="url(#paint14_linear_1119_861)"/>
<path opacity="0.45" d="M141.004 27.1909C139.779 25.24 139.779 22.76 141.004 20.8091L168.236 -22.5544C169.334 -24.3024 171.253 -25.3634 173.317 -25.3634L228.683 -25.3634C230.747 -25.3634 232.666 -24.3024 233.764 -22.5544L260.996 20.8091C262.221 22.76 262.221 25.24 260.996 27.1909L233.764 70.5544C232.666 72.3024 230.747 73.3634 228.683 73.3634L173.317 73.3634C171.253 73.3634 169.334 72.3024 168.236 70.5544L141.004 27.1909Z" fill="url(#paint15_linear_1119_861)"/>
<path opacity="0.45" d="M447.976 75.8276C446.766 77.7695 446.766 80.2304 447.976 82.1724L474.989 125.536C476.084 127.294 478.009 128.363 480.081 128.363L534.919 128.363C536.991 128.363 538.916 127.294 540.011 125.536L567.024 82.1724C568.234 80.2305 568.234 77.7695 567.024 75.8276L540.011 32.4641C538.916 30.7055 536.991 29.6366 534.919 29.6366L480.081 29.6366C478.009 29.6366 476.084 30.7055 474.989 32.4641L447.976 75.8276Z" fill="url(#paint16_linear_1119_861)"/>
<path opacity="0.45" d="M447.976 -33.1724C446.766 -31.2305 446.766 -28.7696 447.976 -26.8276L474.989 16.5359C476.084 18.2945 478.009 19.3634 480.081 19.3634L534.919 19.3634C536.991 19.3634 538.916 18.2945 540.011 16.5359L567.024 -26.8276C568.234 -28.7695 568.234 -31.2305 567.024 -33.1724L540.011 -76.5359C538.916 -78.2945 536.991 -79.3634 534.919 -79.3634L480.081 -79.3634C478.009 -79.3634 476.084 -78.2945 474.989 -76.5359L447.976 -33.1724Z" fill="url(#paint17_linear_1119_861)"/>
<path opacity="0.45" d="M347.004 27.1909C345.779 25.24 345.779 22.76 347.004 20.8091L374.236 -22.5544C375.334 -24.3024 377.253 -25.3634 379.317 -25.3634L434.683 -25.3634C436.747 -25.3634 438.666 -24.3024 439.764 -22.5544L466.996 20.8091C468.221 22.76 468.221 25.24 466.996 27.1909L439.764 70.5544C438.666 72.3024 436.747 73.3634 434.683 73.3634L379.317 73.3634C377.253 73.3634 375.334 72.3024 374.236 70.5544L347.004 27.1909Z" fill="url(#paint18_linear_1119_861)"/>
<path opacity="0.45" d="M555.004 26.1909C553.779 24.24 553.779 21.76 555.004 19.8091L582.236 -23.5544C583.334 -25.3024 585.253 -26.3634 587.317 -26.3634L642.683 -26.3634C644.747 -26.3634 646.666 -25.3024 647.764 -23.5544L674.996 19.8091C676.221 21.76 676.221 24.24 674.996 26.1909L647.764 69.5544C646.666 71.3024 644.747 72.3634 642.683 72.3634L587.317 72.3634C585.253 72.3634 583.334 71.3024 582.236 69.5544L555.004 26.1909Z" fill="url(#paint19_linear_1119_861)"/>
<path opacity="0.45" d="M663.004 -24.8091C661.779 -26.76 661.779 -29.24 663.004 -31.1909L690.236 -74.5544C691.334 -76.3024 693.253 -77.3634 695.317 -77.3634L750.683 -77.3634C752.747 -77.3634 754.666 -76.3024 755.764 -74.5544L782.996 -31.1909C784.221 -29.24 784.221 -26.76 782.996 -24.8091L755.764 18.5544C754.666 20.3024 752.747 21.3634 750.683 21.3634L695.317 21.3634C693.253 21.3634 691.334 20.3024 690.236 18.5544L663.004 -24.8091Z" fill="url(#paint20_linear_1119_861)"/>
</g>
<defs>
<linearGradient id="paint0_linear_1119_861" x1="1853" y1="102.629" x2="1830.62" y2="-156.753" gradientUnits="userSpaceOnUse">
<stop stop-color="#DFF8FC"/>
<stop offset="1" stop-color="white"/>
</linearGradient>
<linearGradient id="paint1_linear_1119_861" x1="1682.15" y1="-49.4552" x2="1700.58" y2="31.2607" gradientUnits="userSpaceOnUse">
<stop stop-color="#0DC5FF"/>
<stop offset="1" stop-color="white"/>
</linearGradient>
<linearGradient id="paint2_linear_1119_861" x1="1725.17" y1="56.5448" x2="1671.92" y2="158.291" gradientUnits="userSpaceOnUse">
<stop stop-color="#0094FF"/>
<stop offset="1" stop-color="#DFF1FE"/>
</linearGradient>
<linearGradient id="paint3_linear_1119_861" x1="1778.83" y1="3.54483" x2="1832.08" y2="105.291" gradientUnits="userSpaceOnUse">
<stop stop-color="#F6DBFF"/>
<stop offset="1" stop-color="#0075FF"/>
</linearGradient>
<linearGradient id="paint4_linear_1119_861" x1="1484.15" y1="-48.4552" x2="1502.58" y2="32.2607" gradientUnits="userSpaceOnUse">
<stop stop-color="#0DC5FF"/>
<stop offset="1" stop-color="white"/>
</linearGradient>
<linearGradient id="paint5_linear_1119_861" x1="1527.17" y1="57.5448" x2="1473.92" y2="159.291" gradientUnits="userSpaceOnUse">
<stop stop-color="#0094FF"/>
<stop offset="1" stop-color="#DFF1FE"/>
</linearGradient>
<linearGradient id="paint6_linear_1119_861" x1="1580.83" y1="4.54483" x2="1634.08" y2="106.291" gradientUnits="userSpaceOnUse">
<stop stop-color="#F6DBFF"/>
<stop offset="1" stop-color="#0075FF"/>
</linearGradient>
<linearGradient id="paint7_linear_1119_861" x1="1428.17" y1="1.54483" x2="1374.92" y2="103.291" gradientUnits="userSpaceOnUse">
<stop stop-color="#0094FF"/>
<stop offset="1" stop-color="#DFF1FE"/>
</linearGradient>
<linearGradient id="paint8_linear_1119_861" x1="1329.17" y1="62.5448" x2="1275.92" y2="164.291" gradientUnits="userSpaceOnUse">
<stop stop-color="#0094FF"/>
<stop offset="1" stop-color="#DFF1FE"/>
</linearGradient>
<linearGradient id="paint9_linear_1119_861" x1="1331.17" y1="-69.4552" x2="1277.92" y2="32.2908" gradientUnits="userSpaceOnUse">
<stop stop-color="#0094FF"/>
<stop offset="1" stop-color="#DFF1FE"/>
</linearGradient>
<linearGradient id="paint10_linear_1119_861" x1="1481.83" y1="-51.4552" x2="1535.08" y2="50.2908" gradientUnits="userSpaceOnUse">
<stop stop-color="#F6DBFF"/>
<stop offset="1" stop-color="#0075FF"/>
</linearGradient>
<linearGradient id="paint11_linear_1119_861" x1="141.941" y1="119.887" x2="60.2407" y2="55.9502" gradientUnits="userSpaceOnUse">
<stop stop-color="#DCE2FF"/>
<stop offset="1" stop-color="#B3EDFF"/>
</linearGradient>
<linearGradient id="paint12_linear_1119_861" x1="141.941" y1="10.8874" x2="60.2407" y2="-53.0498" gradientUnits="userSpaceOnUse">
<stop stop-color="#DCE2FF"/>
<stop offset="1" stop-color="#B3EDFF"/>
</linearGradient>
<linearGradient id="paint13_linear_1119_861" x1="-26.9045" y1="-20.0621" x2="27.5941" y2="84.708" gradientUnits="userSpaceOnUse">
<stop stop-color="#DFE4FF"/>
<stop offset="1" stop-color="#CCE7FF"/>
</linearGradient>
<linearGradient id="paint14_linear_1119_861" x1="346.941" y1="12.8874" x2="265.241" y2="-51.0498" gradientUnits="userSpaceOnUse">
<stop stop-color="#DCE2FF"/>
<stop offset="1" stop-color="#B3EDFF"/>
</linearGradient>
<linearGradient id="paint15_linear_1119_861" x1="178.096" y1="-18.0621" x2="232.594" y2="86.708" gradientUnits="userSpaceOnUse">
<stop stop-color="#DFE4FF"/>
<stop offset="1" stop-color="#CCE7FF"/>
</linearGradient>
<linearGradient id="paint16_linear_1119_861" x1="552.941" y1="121.887" x2="471.241" y2="57.9502" gradientUnits="userSpaceOnUse">
<stop stop-color="#DCE2FF"/>
<stop offset="1" stop-color="#B3EDFF"/>
</linearGradient>
<linearGradient id="paint17_linear_1119_861" x1="552.941" y1="12.8874" x2="471.241" y2="-51.0498" gradientUnits="userSpaceOnUse">
<stop stop-color="#DCE2FF"/>
<stop offset="1" stop-color="#B3EDFF"/>
</linearGradient>
<linearGradient id="paint18_linear_1119_861" x1="384.096" y1="-18.0621" x2="438.594" y2="86.708" gradientUnits="userSpaceOnUse">
<stop stop-color="#DFE4FF"/>
<stop offset="1" stop-color="#CCE7FF"/>
</linearGradient>
<linearGradient id="paint19_linear_1119_861" x1="592.096" y1="-19.0621" x2="646.594" y2="85.708" gradientUnits="userSpaceOnUse">
<stop stop-color="#DFE4FF"/>
<stop offset="1" stop-color="#CCE7FF"/>
</linearGradient>
<linearGradient id="paint20_linear_1119_861" x1="700.096" y1="-70.0621" x2="754.594" y2="34.708" gradientUnits="userSpaceOnUse">
<stop stop-color="#DFE4FF"/>
<stop offset="1" stop-color="#CCE7FF"/>
</linearGradient>
</defs>
</svg>
