<svg width="1369" height="105" viewBox="0 0 1369 105" fill="none" xmlns="http://www.w3.org/2000/svg">
<mask id="mask0_635_270" style="mask-type:alpha" maskUnits="userSpaceOnUse" x="0" y="0" width="1369" height="105">
<path opacity="0.5" d="M0 0H1369V105H0V0Z" fill="url(#paint0_linear_635_270)"/>
</mask>
<g mask="url(#mask0_635_270)">
<path opacity="0.1" d="M1184.98 -5.40772C1183.77 -7.35046 1183.77 -9.81303 1184.98 -11.7558L1211.49 -54.2823C1212.58 -56.04 1214.51 -57.1083 1216.58 -57.1083L1270.42 -57.1083C1272.49 -57.1083 1274.42 -56.04 1275.51 -54.2823L1302.02 -11.7558C1303.23 -9.81303 1303.23 -7.35047 1302.02 -5.40773L1275.51 37.1188C1274.42 38.8765 1272.49 39.9448 1270.42 39.9448L1216.58 39.9448C1214.51 39.9448 1212.58 38.8765 1211.49 37.1188L1184.98 -5.40772Z" fill="url(#paint1_linear_635_270)"/>
<path opacity="0.15" d="M1300.05 101.593C1301.24 99.6591 1301.24 97.216 1300.05 95.2825L1273.76 52.7559C1272.67 50.9874 1270.73 49.911 1268.66 49.911L1215.34 49.911C1213.27 49.911 1211.33 50.9874 1210.24 52.7559L1183.95 95.2825C1182.76 97.216 1182.76 99.6591 1183.95 101.593L1210.24 144.119C1211.33 145.888 1213.27 146.964 1215.34 146.964L1268.66 146.964C1270.73 146.964 1272.67 145.888 1273.76 144.119L1300.05 101.593Z" fill="url(#paint2_linear_635_270)"/>
<path opacity="0.15" d="M1281.95 48.083C1280.76 46.1494 1280.76 43.7064 1281.95 41.7728L1308.24 -0.753732C1309.33 -2.52224 1311.27 -3.59866 1313.34 -3.59866L1366.66 -3.59867C1368.73 -3.59867 1370.67 -2.52225 1371.76 -0.753734L1398.05 41.7728C1399.24 43.7064 1399.24 46.1494 1398.05 48.083L1371.76 90.6095C1370.67 92.378 1368.73 93.4545 1366.66 93.4545L1313.34 93.4545C1311.27 93.4545 1309.33 92.378 1308.24 90.6095L1281.95 48.083Z" fill="url(#paint3_linear_635_270)"/>
<path opacity="0.15" d="M1102.05 102.602C1103.24 100.669 1103.24 98.2255 1102.05 96.292L1075.76 53.7654C1074.67 51.9969 1072.73 50.9205 1070.66 50.9205L1017.34 50.9205C1015.27 50.9205 1013.33 51.9969 1012.24 53.7654L985.951 96.292C984.755 98.2255 984.755 100.669 985.951 102.602L1012.24 145.129C1013.33 146.897 1015.27 147.974 1017.34 147.974L1070.66 147.974C1072.73 147.974 1074.67 146.897 1075.76 145.129L1102.05 102.602Z" fill="url(#paint4_linear_635_270)"/>
<path opacity="0.15" d="M1083.95 49.0926C1082.76 47.1591 1082.76 44.716 1083.95 42.7825L1110.24 0.255911C1111.33 -1.5126 1113.27 -2.58902 1115.34 -2.58902L1168.66 -2.58902C1170.73 -2.58902 1172.67 -1.5126 1173.76 0.25591L1200.05 42.7825C1201.24 44.716 1201.24 47.1591 1200.05 49.0926L1173.76 91.6192C1172.67 93.3877 1170.73 94.4641 1168.66 94.4641L1115.34 94.4641C1113.27 94.4641 1111.33 93.3877 1110.24 91.6192L1083.95 49.0926Z" fill="url(#paint5_linear_635_270)"/>
<path opacity="0.15" d="M1003.05 46.0637C1004.24 44.1301 1004.24 41.6871 1003.05 39.7535L976.759 -2.77302C975.665 -4.54153 973.734 -5.61795 971.655 -5.61795L918.345 -5.61795C916.266 -5.61795 914.335 -4.54153 913.241 -2.77302L886.951 39.7535C885.755 41.6871 885.755 44.1301 886.951 46.0637L913.241 88.5902C914.335 90.3588 916.266 91.4352 918.345 91.4352L971.655 91.4352C973.734 91.4352 975.665 90.3588 976.759 88.5902L1003.05 46.0637Z" fill="url(#paint6_linear_635_270)"/>
<path opacity="0.15" d="M904.049 107.65C905.245 105.717 905.245 103.274 904.049 101.34L877.759 58.8135C876.665 57.045 874.734 55.9686 872.655 55.9686L819.345 55.9686C817.266 55.9686 815.335 57.045 814.241 58.8135L787.951 101.34C786.755 103.274 786.755 105.717 787.951 107.65L814.241 150.177C815.335 151.945 817.266 153.022 819.345 153.022L872.655 153.022C874.734 153.022 876.665 151.945 877.759 150.177L904.049 107.65Z" fill="url(#paint7_linear_635_270)"/>
<path opacity="0.45" d="M36.9439 74.5898C35.7522 76.5211 35.7522 78.9595 36.9439 80.8909L63.9919 124.729C65.0846 126.5 67.0171 127.578 69.0982 127.578L123.902 127.578C125.983 127.578 127.915 126.5 129.008 124.729L156.056 80.8909C157.248 78.9595 157.248 76.5211 156.056 74.5898L129.008 30.7517C127.915 28.9806 125.983 27.9022 123.902 27.9022L69.0982 27.9022C67.0171 27.9022 65.0847 28.9806 63.9919 30.7517L36.9439 74.5898Z" fill="url(#paint8_linear_635_270)"/>
<path opacity="0.45" d="M36.9439 -35.4582C35.7522 -33.5268 35.7522 -31.0884 36.9439 -29.1571L63.9919 14.681C65.0846 16.4521 67.0171 17.5305 69.0982 17.5305L123.902 17.5305C125.983 17.5305 127.915 16.4521 129.008 14.681L156.056 -29.1571C157.248 -31.0884 157.248 -33.5268 156.056 -35.4582L129.008 -79.2963C127.915 -81.0674 125.983 -82.1457 123.902 -82.1457L69.0982 -82.1457C67.0171 -82.1457 65.0847 -81.0674 63.9919 -79.2963L36.9439 -35.4582Z" fill="url(#paint9_linear_635_270)"/>
<path opacity="0.45" d="M-64.0288 25.3806C-65.2357 23.4403 -65.2357 20.9829 -64.0288 19.0425L-36.7609 -24.7956C-35.6658 -26.5561 -33.7394 -27.6265 -31.6661 -27.6265L23.6661 -27.6265C25.7394 -27.6265 27.6658 -26.5561 28.7609 -24.7956L56.0288 19.0425C57.2357 20.9828 57.2357 23.4403 56.0288 25.3806L28.7609 69.2187C27.6658 70.9792 25.7394 72.0497 23.6661 72.0497L-31.6661 72.0497C-33.7394 72.0497 -35.6658 70.9792 -36.7609 69.2187L-64.0288 25.3806Z" fill="url(#paint10_linear_635_270)"/>
<path opacity="0.45" d="M241.944 -33.439C240.752 -31.5077 240.752 -29.0693 241.944 -27.1379L268.992 16.7002C270.085 18.4713 272.017 19.5496 274.098 19.5496L328.902 19.5496C330.983 19.5496 332.915 18.4713 334.008 16.7002L361.056 -27.1379C362.248 -29.0693 362.248 -31.5077 361.056 -33.439L334.008 -77.2771C332.915 -79.0482 330.983 -80.1266 328.902 -80.1266L274.098 -80.1266C272.017 -80.1266 270.085 -79.0482 268.992 -77.2771L241.944 -33.439Z" fill="url(#paint11_linear_635_270)"/>
<path opacity="0.45" d="M140.971 27.3998C139.764 25.4595 139.764 23.002 140.971 21.0617L168.239 -22.7764C169.334 -24.5369 171.261 -25.6074 173.334 -25.6074L228.666 -25.6074C230.739 -25.6074 232.666 -24.5369 233.761 -22.7764L261.029 21.0617C262.236 23.002 262.236 25.4594 261.029 27.3998L233.761 71.2379C232.666 72.9984 230.739 74.0688 228.666 74.0688L173.334 74.0688C171.261 74.0688 169.334 72.9984 168.239 71.2379L140.971 27.3998Z" fill="url(#paint12_linear_635_270)"/>
<path opacity="0.45" d="M447.944 -33.439C446.752 -31.5077 446.752 -29.0693 447.944 -27.1379L474.992 16.7002C476.085 18.4713 478.017 19.5496 480.098 19.5496L534.902 19.5496C536.983 19.5496 538.915 18.4713 540.008 16.7002L567.056 -27.1379C568.248 -29.0693 568.248 -31.5077 567.056 -33.439L540.008 -77.2771C538.915 -79.0482 536.983 -80.1266 534.902 -80.1266L480.098 -80.1266C478.017 -80.1266 476.085 -79.0482 474.992 -77.2771L447.944 -33.439Z" fill="url(#paint13_linear_635_270)"/>
<path opacity="0.45" d="M346.971 27.3998C345.764 25.4595 345.764 23.002 346.971 21.0617L374.239 -22.7764C375.334 -24.5369 377.261 -25.6074 379.334 -25.6074L434.666 -25.6074C436.739 -25.6074 438.666 -24.5369 439.761 -22.7764L467.029 21.0617C468.236 23.002 468.236 25.4594 467.029 27.3998L439.761 71.2379C438.666 72.9984 436.739 74.0688 434.666 74.0688L379.334 74.0688C377.261 74.0688 375.334 72.9984 374.239 71.2379L346.971 27.3998Z" fill="url(#paint14_linear_635_270)"/>
</g>
<defs>
<linearGradient id="paint0_linear_635_270" x1="1369" y1="103.616" x2="1338.32" y2="-156.592" gradientUnits="userSpaceOnUse">
<stop stop-color="#A59EF0"/>
<stop offset="1" stop-color="white"/>
</linearGradient>
<linearGradient id="paint1_linear_635_270" x1="1221.15" y1="-49.9307" x2="1239.92" y2="31.4833" gradientUnits="userSpaceOnUse">
<stop stop-color="#0DC5FF"/>
<stop offset="1" stop-color="white"/>
</linearGradient>
<linearGradient id="paint2_linear_635_270" x1="1264.17" y1="57.0886" x2="1210.11" y2="159.388" gradientUnits="userSpaceOnUse">
<stop stop-color="#0094FF"/>
<stop offset="1" stop-color="#DFF1FE"/>
</linearGradient>
<linearGradient id="paint3_linear_635_270" x1="1317.83" y1="3.57893" x2="1371.89" y2="105.878" gradientUnits="userSpaceOnUse">
<stop stop-color="#F6DBFF"/>
<stop offset="1" stop-color="#0075FF"/>
</linearGradient>
<linearGradient id="paint4_linear_635_270" x1="1066.17" y1="58.0981" x2="1012.11" y2="160.397" gradientUnits="userSpaceOnUse">
<stop stop-color="#0094FF"/>
<stop offset="1" stop-color="#DFF1FE"/>
</linearGradient>
<linearGradient id="paint5_linear_635_270" x1="1119.83" y1="4.58857" x2="1173.89" y2="106.888" gradientUnits="userSpaceOnUse">
<stop stop-color="#F6DBFF"/>
<stop offset="1" stop-color="#0075FF"/>
</linearGradient>
<linearGradient id="paint6_linear_635_270" x1="967.166" y1="1.55964" x2="913.111" y2="103.859" gradientUnits="userSpaceOnUse">
<stop stop-color="#884FDD"/>
<stop offset="1" stop-color="#DFF1FE"/>
</linearGradient>
<linearGradient id="paint7_linear_635_270" x1="868.166" y1="63.1462" x2="814.111" y2="165.445" gradientUnits="userSpaceOnUse">
<stop stop-color="#0094FF"/>
<stop offset="1" stop-color="#DFF1FE"/>
</linearGradient>
<linearGradient id="paint8_linear_635_270" x1="141.941" y1="121.04" x2="59.6482" y2="57.2525" gradientUnits="userSpaceOnUse">
<stop stop-color="#DCE2FF"/>
<stop offset="1" stop-color="#B3EDFF"/>
</linearGradient>
<linearGradient id="paint9_linear_635_270" x1="141.941" y1="10.9922" x2="59.6482" y2="-52.7954" gradientUnits="userSpaceOnUse">
<stop stop-color="#DCE2FF"/>
<stop offset="1" stop-color="#B3EDFF"/>
</linearGradient>
<linearGradient id="paint10_linear_635_270" x1="-26.9045" y1="-20.2549" x2="28.4195" y2="85.089" gradientUnits="userSpaceOnUse">
<stop stop-color="#DFE4FF"/>
<stop offset="1" stop-color="#CCE7FF"/>
</linearGradient>
<linearGradient id="paint11_linear_635_270" x1="346.941" y1="13.0114" x2="264.648" y2="-50.7763" gradientUnits="userSpaceOnUse">
<stop stop-color="#DCE2FF"/>
<stop offset="1" stop-color="#B3EDFF"/>
</linearGradient>
<linearGradient id="paint12_linear_635_270" x1="178.096" y1="-18.2358" x2="233.42" y2="87.1082" gradientUnits="userSpaceOnUse">
<stop stop-color="#DFE4FF"/>
<stop offset="1" stop-color="#CCE7FF"/>
</linearGradient>
<linearGradient id="paint13_linear_635_270" x1="552.941" y1="13.0114" x2="470.648" y2="-50.7763" gradientUnits="userSpaceOnUse">
<stop stop-color="#DCE2FF"/>
<stop offset="1" stop-color="#B3EDFF"/>
</linearGradient>
<linearGradient id="paint14_linear_635_270" x1="384.096" y1="-18.2358" x2="439.42" y2="87.1082" gradientUnits="userSpaceOnUse">
<stop stop-color="#DFE4FF"/>
<stop offset="1" stop-color="#CCE7FF"/>
</linearGradient>
</defs>
</svg>
