<svg width="477" height="441" viewBox="0 0 477 441" fill="none" xmlns="http://www.w3.org/2000/svg">
<g clip-path="url(#clip0_1618_1723)">
<path opacity="0.25" d="M280.991 269.318C279.773 271.264 279.773 273.736 280.991 275.682L361.487 404.349C362.584 406.102 364.506 407.167 366.574 407.167L528.426 407.167C530.494 407.167 532.416 406.102 533.513 404.349L614.009 275.682C615.227 273.736 615.227 271.264 614.009 269.318L533.513 140.651C532.416 138.898 530.494 137.833 528.426 137.833L366.574 137.833C364.506 137.833 362.584 138.898 361.487 140.651L280.991 269.318Z" fill="url(#paint0_linear_1618_1723)"/>
<path opacity="0.25" d="M8.99087 132.682C7.77297 130.736 7.77297 128.264 8.99087 126.318L89.4872 -2.34919C90.5839 -4.10218 92.5059 -5.16693 94.5737 -5.16693L256.426 -5.16694C258.494 -5.16694 260.416 -4.10218 261.513 -2.34919L342.009 126.318C343.227 128.264 343.227 130.736 342.009 132.682L261.513 261.349C260.416 263.102 258.494 264.167 256.426 264.167L94.5737 264.167C92.506 264.167 90.5839 263.102 89.4872 261.349L8.99087 132.682Z" fill="url(#paint1_linear_1618_1723)"/>
</g>
<defs>
<linearGradient id="paint0_linear_1618_1723" x1="572" y1="389.5" x2="348.888" y2="214.143" gradientUnits="userSpaceOnUse">
<stop stop-color="#DCE2FF"/>
<stop offset="1" stop-color="#B3EDFF"/>
</linearGradient>
<linearGradient id="paint1_linear_1618_1723" x1="113.252" y1="14.7517" x2="262.251" y2="300.109" gradientUnits="userSpaceOnUse">
<stop stop-color="#DFE4FF"/>
<stop offset="1" stop-color="#CCE7FF"/>
</linearGradient>
<clipPath id="clip0_1618_1723">
<rect width="477" height="441" fill="white"/>
</clipPath>
</defs>
</svg>
