<svg width="22" height="22" viewBox="0 0 22 22" fill="none" xmlns="http://www.w3.org/2000/svg">
<path d="M14.3492 17.9989C13.4986 17.9989 12.6911 17.6947 12.0468 17.1357C11.4046 17.4694 10.6687 17.6452 9.90125 17.6452C8.97796 17.6452 8.09363 17.3873 7.37774 16.9125C7.04085 17.1588 6.6429 17.2915 6.22705 17.2915C5.27428 17.2915 4.46259 16.5872 4.24782 15.6334C2.43599 15.5239 1 14.1753 1 12.534C1 11.1348 2.03699 9.92939 3.51509 9.55039C3.51509 9.52302 3.51404 9.4946 3.51404 9.46722C3.51404 7.9986 4.65314 6.75842 6.25653 6.43943C6.73975 5.09608 8.12205 4.17911 9.70859 4.17911C9.80545 4.17911 9.90441 4.18332 10.0034 4.19069C10.6908 3.44111 11.7205 3 12.8017 3C14.5914 3 16.1032 4.18648 16.3864 5.75302C18.3645 6.13728 19.77 7.58696 19.77 9.29141C19.77 9.65672 19.7058 10.0136 19.5773 10.3579C20.6438 11.0664 21.3165 12.3445 21.3165 13.7141C21.3165 15.8829 19.6868 17.6463 17.6844 17.6463C17.2212 17.6463 16.7727 17.5536 16.3485 17.3715C15.7568 17.7831 15.0704 18 14.3492 18V17.9989ZM12.1679 16.1503L12.3879 16.3756C12.9143 16.9146 13.6112 17.2115 14.3492 17.2115C14.9725 17.2115 15.562 17.002 16.0558 16.6061L16.2558 16.4461L16.4832 16.564C16.8612 16.7588 17.2654 16.8588 17.6855 16.8588C19.2541 16.8588 20.5301 15.4481 20.5301 13.7141C20.5301 12.5034 19.889 11.3864 18.8962 10.8685L18.5509 10.6884L18.7267 10.341C18.8962 10.0062 18.9825 9.65251 18.9825 9.29036C18.9825 7.89963 17.7202 6.71947 15.98 6.48259L15.6631 6.43943L15.6399 6.12044C15.5441 4.81183 14.2977 3.78643 12.8017 3.78643C11.8784 3.78643 11.0088 4.18332 10.475 4.84868L10.3371 5.02028L10.1181 4.99291C9.98021 4.97501 9.84229 4.96659 9.70754 4.96659C8.38103 4.96659 7.24193 5.75723 6.93873 6.89002L6.87135 7.14269L6.61131 7.17743C5.29429 7.35535 4.30046 8.3397 4.30046 9.46722C4.30046 9.57671 4.30994 9.68725 4.32889 9.7978L4.39521 10.1915L4.00147 10.2526C2.71814 10.4537 1.78643 11.4128 1.78643 12.5329C1.78643 13.812 2.99712 14.8522 4.4868 14.8522C4.50997 14.8522 4.53418 14.8522 4.55734 14.8511L4.9595 14.8396L4.98266 15.2207C5.02583 15.9408 5.57327 16.504 6.2281 16.504C6.54183 16.504 6.84292 16.3735 7.07559 16.1366L7.32299 15.885L7.59987 16.1029C8.21891 16.5903 9.03586 16.8577 9.90125 16.8577C10.6308 16.8577 11.3214 16.6703 11.8984 16.3145L12.1668 16.1492L12.1679 16.1503Z" fill="#636363"/>
<path d="M14.9557 8.74074C14.9463 8.74074 14.9368 8.74074 14.9273 8.74074C14.7104 8.72495 14.5473 8.5365 14.5631 8.31963C14.5767 8.13434 14.5515 7.95221 14.4894 7.77956C14.3893 7.50373 14.0914 6.85416 13.4713 6.78994C13.0544 6.74573 12.5765 6.96892 12.2817 7.34371C12.1469 7.51426 11.8995 7.54373 11.729 7.40898C11.5584 7.27422 11.5289 7.02682 11.6637 6.85627C12.1269 6.26777 12.8702 5.93403 13.5545 6.00668C14.3041 6.08563 14.9147 6.63413 15.2316 7.5132C15.3316 7.79008 15.3716 8.08065 15.3505 8.37648C15.3358 8.58388 15.1631 8.7418 14.9578 8.7418L14.9557 8.74074Z" fill="#636363"/>
<path d="M9.32269 12.3412C9.1732 12.3412 9.03002 12.2559 8.96369 12.1107C8.9479 12.0759 8.92474 12.0264 8.89526 11.9696C8.82262 11.8296 8.14674 10.5957 6.99816 10.4778C6.42755 10.4199 5.94853 10.6505 5.64639 10.8547C5.46636 10.9768 5.22106 10.9294 5.1 10.7484C4.97787 10.5683 5.02525 10.323 5.20633 10.202C5.61691 9.92509 6.2749 9.61136 7.07922 9.69453C8.60575 9.85034 9.44271 11.3137 9.59431 11.6053C9.63221 11.6769 9.66063 11.739 9.68169 11.7832C9.77223 11.9812 9.68485 12.2149 9.48693 12.3054C9.43429 12.3296 9.37849 12.3412 9.32374 12.3412H9.32269Z" fill="#636363"/>
<path d="M12.7551 14.4894C12.7014 14.4894 12.6466 14.4778 12.594 14.4547C12.3961 14.3652 12.3066 14.1325 12.3961 13.9346C12.7509 13.144 13.5183 12.3902 14.3532 12.0133C15.6439 11.43 16.5904 11.9364 16.9367 12.1817C16.9662 12.2028 16.9904 12.2207 17.0062 12.2333C17.1789 12.366 17.2115 12.6123 17.0799 12.785C16.9472 12.9576 16.7009 12.9903 16.5282 12.8587C16.5177 12.8502 16.5019 12.8387 16.483 12.826C16.1903 12.6186 15.5649 12.3312 14.6785 12.7323C14.01 13.0345 13.3962 13.6335 13.1162 14.2578C13.0509 14.4041 12.9067 14.4905 12.7572 14.4905L12.7551 14.4894Z" fill="#636363"/>
</svg>
