<svg width="22" height="22" viewBox="0 0 22 22" fill="none" xmlns="http://www.w3.org/2000/svg">
<path d="M11.9491 18.2576C11.7625 18.2576 11.6061 18.1116 11.5936 17.925C11.4831 16.3174 11.4998 14.0062 12.2066 12.1181C12.6215 11.0089 13.1261 10.4063 13.7495 10.276C13.8392 10.2572 13.932 10.2479 14.0268 10.2479C14.0998 10.2479 14.1759 10.2531 14.252 10.2645L14.3896 10.2843L14.3698 10.1467C14.3073 9.70575 14.0602 9.30334 13.8413 8.94888C13.6109 8.57566 13.394 8.22224 13.3899 7.87404C13.3867 7.65407 13.5066 7.38093 13.7266 7.10361L13.7693 7.0494L13.736 6.98894C13.6922 6.90971 13.6661 6.8409 13.6515 6.77105C13.5619 6.33736 13.8778 5.93703 14.2114 5.51273C14.5126 5.13116 14.8358 4.8966 15.0287 4.7569C15.1694 4.65577 15.4613 4.44414 15.7074 4.34719C15.845 4.29297 15.9962 4.26587 16.1557 4.26587C16.7937 4.26587 17.5808 4.68913 18.4972 5.52211C18.6942 5.70142 19.1967 6.20392 19.6095 6.98477C19.8316 7.40595 19.8994 7.66762 19.9338 7.84798C20.1027 8.73621 19.9087 9.04166 19.7774 9.14383C19.7127 9.19491 19.6429 9.21577 19.5345 9.21785L19.3917 9.22098L19.4386 9.35651C20.0922 11.2529 19.7795 13.8571 16.7489 14.9559C16.433 15.0706 16.1588 15.1258 15.9107 15.1258C15.3936 15.1258 14.9515 14.8777 14.5189 14.3471C13.933 13.6277 14.0571 12.1828 14.2645 11.0965L14.2843 10.9933L14.1811 10.9745C14.13 10.9651 14.079 10.9599 14.032 10.9599C13.9851 10.9599 13.9403 10.9641 13.8976 10.9735C13.5483 11.0464 13.1866 11.5406 12.8769 12.3663C12.216 14.1333 12.2024 16.3372 12.3077 17.8739C12.3213 18.0699 12.1722 18.2409 11.9762 18.2544C11.9668 18.2544 11.9595 18.2544 11.9512 18.2544L11.9491 18.2576ZM14.2333 7.56128C14.1426 7.70724 14.1113 7.81774 14.1113 7.86883C14.1123 7.96578 14.153 8.09193 14.2343 8.25352C14.3021 8.38696 14.3802 8.51311 14.4699 8.65906C14.5095 8.72369 14.5523 8.79354 14.6002 8.87173C14.8264 9.24913 15.2487 9.95074 15.061 10.7785C14.9536 11.2529 14.8233 11.9576 14.8129 12.6206C14.8025 13.2701 14.9109 13.7674 15.1173 14.0208C15.3467 14.3022 15.5614 14.4701 15.7564 14.518C15.8043 14.5295 15.8544 14.5358 15.9107 14.5358C16.0566 14.5358 16.2359 14.4961 16.458 14.4159C18.3491 13.7299 19.2582 12.2391 18.9507 10.3261C18.885 9.91947 18.7641 9.51393 18.591 9.11985L18.5712 9.07607L18.5253 9.06251C18.224 8.9739 17.9707 8.83941 17.7476 8.65176C17.5777 8.50893 17.4974 8.39321 17.4119 8.2702C17.3066 8.11903 17.1878 7.94806 16.8948 7.71453C16.5091 7.40699 16.2891 7.36008 16.1567 7.35278C16.139 7.35174 16.1223 7.35174 16.1067 7.35174C15.9388 7.35174 15.8304 7.40595 15.7147 7.46329C15.6281 7.50707 15.5291 7.55607 15.3811 7.5936C15.306 7.61237 15.1528 7.64468 14.9641 7.64468C14.7472 7.64468 14.545 7.60298 14.3636 7.52062L14.2802 7.48309L14.2322 7.56024L14.2333 7.56128Z" fill="#636363"/>
<path d="M10.1282 18.2565C10.0322 18.2502 9.94571 18.2065 9.88316 18.1345C9.82061 18.0626 9.78933 17.9708 9.79663 17.876C9.9478 15.671 9.75076 13.7663 9.22742 12.3673C8.91883 11.5416 8.55603 11.0475 8.20679 10.9745C8.16509 10.9661 8.12026 10.9609 8.07439 10.9609C8.01288 10.9609 7.94616 10.9693 7.87631 10.9849L7.77935 11.0078L7.79812 11.1058C8.00349 12.188 8.12651 13.6287 7.54166 14.347C7.10901 14.8787 6.66594 15.1258 6.14989 15.1258C5.90177 15.1258 5.62759 15.0705 5.3117 14.9559C4.04608 14.4972 3.13492 13.7121 2.67725 12.6873C2.20811 11.6354 2.22375 10.3229 2.72312 9.08751L2.78671 8.92905L2.61678 8.94468C2.56778 8.94885 2.52295 8.95198 2.48125 8.95198C2.36449 8.95198 2.28943 8.93113 2.22271 8.87796C2.09135 8.77475 1.8964 8.47034 2.06633 7.58211C2.10073 7.40071 2.1685 7.13903 2.39055 6.7189C2.80339 5.93701 3.30589 5.43555 3.50293 5.25624C4.41826 4.42222 5.20641 4 5.84443 4C6.00394 4 6.1551 4.02711 6.29272 4.08132C6.53875 4.17827 6.83066 4.38886 6.9714 4.49103C7.16531 4.63073 7.48849 4.86529 7.78561 5.24164C8.12338 5.67012 8.43927 6.07045 8.34961 6.50414C8.32668 6.61569 8.27872 6.71994 8.20157 6.82419L8.15049 6.89404L8.20887 6.95764C8.50599 7.27873 8.67488 7.61234 8.67175 7.87506C8.66758 8.22326 8.45074 8.57667 8.22034 8.9499C8.00037 9.30644 7.7512 9.71094 7.69074 10.154L7.67093 10.2958L7.81167 10.2718C7.90028 10.2562 7.98786 10.2489 8.07334 10.2489C8.16821 10.2489 8.26308 10.2583 8.35482 10.2781C8.97825 10.4084 9.48283 11.011 9.89776 12.1202C10.6035 14.0072 10.6213 16.3195 10.5108 17.9271C10.4983 18.1137 10.3419 18.2596 10.1553 18.2596C10.1469 18.2596 10.1396 18.2596 10.1313 18.2596L10.1282 18.2565ZM5.8903 7.08587C5.87466 7.08587 5.85798 7.08587 5.84026 7.08691C5.70786 7.09525 5.48685 7.14112 5.10215 7.44866C4.80921 7.68323 4.69036 7.85421 4.58506 8.00433C4.49958 8.1263 4.4193 8.24202 4.24937 8.38589C4.08257 8.52663 3.89908 8.6361 3.68954 8.72158L3.65513 8.73618L3.63741 8.76954C3.37261 9.26474 3.19434 9.78913 3.10781 10.3271C2.80027 12.2401 3.70935 13.7309 5.60048 14.4169C5.82254 14.4972 6.00185 14.5368 6.1478 14.5368C6.2041 14.5368 6.25414 14.5305 6.3021 14.519C6.49601 14.4711 6.71077 14.3032 6.94116 14.0218C7.14758 13.7684 7.25601 13.2712 7.24558 12.6217C7.23516 11.9597 7.10484 11.2539 6.99746 10.7795C6.80981 9.95072 7.23203 9.2491 7.4593 8.87171C7.50413 8.79769 7.54478 8.73097 7.58232 8.66946L7.58857 8.65903C7.67823 8.51308 7.75642 8.38693 7.82418 8.25349C7.9055 8.09294 7.94616 7.9668 7.9472 7.8688C7.9472 7.84586 7.94094 7.72285 7.79186 7.50809C7.75433 7.45388 7.70638 7.40071 7.65946 7.34962L7.59274 7.27561L7.5281 7.29854C7.37485 7.35275 7.20909 7.37986 7.03395 7.37986C6.84525 7.37986 6.69096 7.34754 6.6159 7.32773C6.46786 7.2902 6.36986 7.24016 6.28229 7.19742C6.16657 7.14008 6.05815 7.08587 5.8903 7.08587Z" fill="#636363"/>
</svg>
