<svg width="22" height="22" viewBox="0 0 22 22" fill="none" xmlns="http://www.w3.org/2000/svg">
<path d="M15.3441 20C15.0614 20 14.7363 19.9338 14.4274 19.8628C13.7883 19.7149 13.2371 19.5884 13.1483 19.1623C13.122 19.0377 13.1543 18.956 13.2119 18.8081C13.227 18.7692 13.2452 18.7225 13.2674 18.6622C13.3128 18.5415 13.3219 18.5114 13.3361 18.4608C13.3562 18.3897 13.3845 18.2934 13.5026 17.9577C13.545 17.839 13.5884 17.7203 13.6329 17.6016C13.6924 17.4411 13.754 17.2757 13.8085 17.1132C13.8459 17.0003 13.8772 16.8855 13.9095 16.7639C13.9357 16.6656 13.963 16.5674 13.9923 16.4701C14.0266 16.3591 14.0639 16.2502 14.1013 16.1402C14.1457 16.0098 14.1871 15.8873 14.2245 15.7617C14.2648 15.6245 14.3012 15.4805 14.3355 15.3414C14.3587 15.25 14.3809 15.1575 14.4052 15.067C14.4284 14.9785 14.4536 14.8909 14.4789 14.8034C14.5041 14.7148 14.5304 14.6253 14.5536 14.5358C14.5788 14.4424 14.602 14.3363 14.6283 14.205C14.6465 14.1145 14.6626 14.024 14.6788 13.9335C14.6979 13.8304 14.7161 13.7282 14.7363 13.6251C14.7696 13.4597 14.805 13.2943 14.8403 13.1289L14.8898 12.8963C14.8968 12.7689 14.9059 12.6414 14.914 12.513C14.9342 12.2094 14.9564 11.8951 14.9534 11.5916C14.9513 11.3892 14.8948 11.1683 14.8403 10.9543L14.8282 10.9066C14.7494 10.5962 14.6727 10.351 14.5869 10.136C14.4173 9.71083 14.1467 9.33818 13.7833 9.02975C13.4077 8.71061 12.9595 8.49364 12.4153 8.36618C11.9126 8.24845 11.4492 8.2358 10.9989 8.32629C10.2397 8.47905 9.6441 8.86823 9.22816 9.48315C9.11206 9.6544 9.03735 9.87818 8.98485 10.0543C8.93135 10.2343 8.86875 10.4697 8.86774 10.6964C8.86674 10.8998 8.92125 11.1177 8.97981 11.323C9.03331 11.5089 9.12619 11.6996 9.20797 11.8679C9.38363 12.2279 9.66732 12.5461 10.0752 12.8409C10.3558 13.0433 10.6547 13.2349 10.9434 13.4208C11.1029 13.5229 11.2614 13.6251 11.4199 13.7302C11.6885 13.9082 12.0256 14.1602 12.2548 14.5231C12.279 14.5621 12.3043 14.6 12.3285 14.637C12.4759 14.8598 12.6425 15.1118 12.5415 15.393C12.4527 15.6411 12.2316 15.717 12.0701 15.7724C11.9247 15.8221 11.8318 15.8581 11.7561 15.9583C11.6844 16.0546 11.6784 16.147 11.6723 16.2657C11.6632 16.4263 11.6511 16.6462 11.426 16.8087C11.3008 16.8991 11.1776 16.9215 11.0797 16.9381C10.9878 16.9546 10.9212 16.9663 10.8303 17.0363C10.7778 17.0762 10.7395 17.12 10.7213 17.1589C10.7112 17.1803 10.7112 17.1949 10.7102 17.2368C10.7102 17.2903 10.7092 17.372 10.6648 17.4586C10.5275 17.7281 10.2286 17.9052 9.86519 17.9324C9.19383 17.983 8.5356 17.7933 7.91169 17.371C7.53412 17.1151 7.18784 16.7765 6.85368 16.3368L6.70123 16.1354C6.42966 15.7783 6.14799 15.4085 5.8956 15.0233C5.66845 14.6759 5.48471 14.2974 5.31915 13.9403C5.15964 13.594 5.03041 13.233 4.91532 12.8963C4.86081 12.7377 4.83759 12.5762 4.81639 12.4206L4.79216 12.2551C4.75379 12.0012 4.71442 11.7395 4.69322 11.4758C4.67909 11.3075 4.68413 11.1421 4.68918 10.9825C4.69019 10.9309 4.69221 10.8803 4.69322 10.8288C4.69322 10.7772 4.69827 10.7266 4.70332 10.675C4.70634 10.641 4.71038 10.6069 4.71139 10.5729C4.72654 10.1817 4.81033 9.79158 4.96681 9.38002C4.99003 9.31969 5.01325 9.25937 5.03546 9.19807C5.14853 8.89742 5.26463 8.58705 5.42313 8.2971C5.60182 7.97018 5.82796 7.63061 6.13689 7.2278C6.31053 7.0011 6.41957 6.82013 6.42764 6.61775C6.43067 6.54867 6.41654 6.49418 6.3812 6.36575L6.37414 6.33948C6.37414 6.33948 6.26813 5.95419 6.0854 5.66813C5.89258 5.36651 5.19699 4.845 4.07234 4.64651C3.81995 4.59494 3.2334 4.43051 3.06884 3.99559C3.05067 3.94889 3.03452 3.88759 3.02341 3.82922C3.00423 3.72316 2.94366 3.40111 3.14759 3.09754C3.27782 2.90295 3.54939 2.68208 3.88154 2.69668C3.92192 2.69862 4.0259 2.70641 4.10465 2.74533C4.48121 2.93019 4.85778 3.11505 5.23434 3.29992L5.94911 3.65019C6.24491 3.79516 6.30347 3.72024 6.35092 3.65992C6.40139 3.59473 6.4448 3.51397 6.49124 3.42738C6.52254 3.369 6.55384 3.30965 6.58816 3.25322C6.62451 3.19387 6.66287 3.1063 6.70325 3.01289C6.81834 2.75019 6.9617 2.42327 7.26255 2.20435C7.36754 2.12846 7.61286 1.94943 7.92381 2.01365C8.2186 2.07495 8.45887 2.33084 8.46998 2.59743C8.47402 2.69668 8.44878 2.79397 8.39426 2.88641C8.39224 2.88933 8.21456 3.19776 8.00962 3.81949C7.89655 4.16392 7.99751 4.62413 8.25595 4.93646C8.4508 5.17289 8.69511 5.26921 8.82635 5.32078C9.1908 5.46381 9.78947 5.56208 9.98028 5.33051C10.0409 5.25656 10.0812 5.12327 10.1196 4.99484L10.1448 4.91311C10.2165 4.68543 10.2781 4.44705 10.3387 4.21743L10.375 4.0783C10.4154 3.92359 10.4447 3.79613 10.4669 3.67646L10.4901 3.54997C10.5426 3.26878 10.5971 2.97689 10.6385 2.69181C10.6668 2.49624 10.7142 2.40868 10.7869 2.32403C11.0545 2.00976 11.5239 2.05062 11.7803 2.10316C12.164 2.18198 12.3982 2.34154 12.4749 2.57797C12.4911 2.6276 12.5193 2.71516 12.489 2.8436C12.4436 3.03333 12.3982 3.22305 12.3517 3.41181L12.3396 3.45949C12.3285 3.50327 12.3174 3.54803 12.3053 3.59181C12.2831 3.67451 12.2619 3.75332 12.2498 3.82922L12.2306 3.945C12.173 4.29138 12.1145 4.64943 12.0711 5.00165C12.0368 5.28284 12.1458 5.45116 12.4577 5.60392C12.7051 5.72456 12.9373 5.7557 13.1695 5.69732C13.3734 5.64673 13.5218 5.53678 13.651 5.34024L14.0377 4.75354C14.3012 4.35365 14.5657 3.95376 14.8282 3.55192C14.8776 3.477 14.9241 3.39916 14.9695 3.32132C15.0129 3.24835 15.0563 3.17635 15.1018 3.10532C15.1482 3.03333 15.1957 2.99733 15.2371 2.96911L15.2461 2.96327C15.5217 2.76478 15.9034 2.79787 16.1598 2.91949C16.394 3.03041 16.6686 3.28046 16.6747 3.61905C16.6757 3.68716 16.6777 3.77959 16.6161 3.89051C16.5182 4.06662 16.4162 4.24078 16.3153 4.41494C16.2082 4.59884 16.0972 4.78857 15.9932 4.97732C15.7136 5.48619 15.5056 5.88024 15.3198 6.25289C15.2633 6.36672 15.3259 6.61191 15.4329 6.69851C16.0407 7.18986 16.4869 7.64813 16.8372 8.14142C17.0714 8.47126 17.2844 8.84586 17.4692 9.25645C17.6489 9.65537 17.7882 10.064 17.8831 10.4688C17.9457 10.7373 17.9618 11.0107 17.977 11.2754C17.982 11.3649 17.9871 11.4544 17.9942 11.5429C18.0022 11.6373 18.0002 11.7278 17.9982 11.8163C17.9982 11.866 17.9962 11.9156 17.9972 11.9662C18.0063 12.4283 17.9225 12.8817 17.8437 13.27C17.8235 13.3673 17.8094 13.4675 17.7943 13.5726C17.7801 13.6737 17.765 13.7778 17.7448 13.882C17.7155 14.0318 17.6782 14.1787 17.6428 14.3208C17.6297 14.3733 17.6166 14.4249 17.6035 14.4774L17.5903 14.5319C17.558 14.6652 17.5247 14.7995 17.4894 14.9318C17.451 15.0758 17.4116 15.2208 17.3723 15.3648C17.3319 15.5117 17.2915 15.6586 17.2531 15.8065C17.2309 15.8911 17.2087 15.9768 17.1875 16.0624C17.1502 16.2103 17.1128 16.364 17.0664 16.5158C17.0119 16.6958 16.9523 16.8758 16.8937 17.049C16.8513 17.1774 16.8079 17.3058 16.7675 17.4352C16.7342 17.5413 16.7029 17.6493 16.6716 17.7563C16.6363 17.8799 16.6 18.0035 16.5606 18.1261C16.5202 18.2516 16.4758 18.3771 16.4303 18.5016C16.3991 18.5892 16.3678 18.6758 16.3385 18.7634C16.3163 18.8285 16.2971 18.8947 16.2789 18.9599C16.2658 19.0047 16.2527 19.0494 16.2395 19.0942C16.2234 19.1467 16.2062 19.1983 16.1881 19.2508C16.1537 19.352 16.1224 19.4474 16.1012 19.5417C16.0821 19.6312 16.0285 19.7023 15.9932 19.749C15.8529 19.9348 15.6156 19.9981 15.337 19.9981L15.3441 20ZM13.6642 19.0767C13.7288 19.1847 14.278 19.3121 14.5485 19.3744C15.4036 19.5719 15.5541 19.4863 15.5793 19.4551C15.5864 19.4464 15.5965 19.4318 15.6035 19.4221C15.6298 19.3082 15.6651 19.2012 15.7004 19.0971C15.7166 19.0484 15.7327 19.0008 15.7479 18.9521C15.761 18.9103 15.7731 18.8684 15.7852 18.8266C15.8064 18.7536 15.8276 18.6807 15.8519 18.6087C15.8822 18.5182 15.9145 18.4287 15.9468 18.3391C15.9892 18.2195 16.0326 18.0998 16.0709 17.9791C16.1093 17.8614 16.1426 17.7427 16.1769 17.624C16.2093 17.5131 16.2416 17.4012 16.2759 17.2912C16.3173 17.1599 16.3607 17.0285 16.4051 16.8982C16.4616 16.7279 16.5212 16.5518 16.5727 16.3786C16.6151 16.2385 16.6504 16.0974 16.6868 15.9485C16.709 15.86 16.7302 15.7724 16.7544 15.6849C16.7938 15.537 16.8342 15.3881 16.8746 15.2402C16.9139 15.0972 16.9533 14.9532 16.9917 14.8102C17.026 14.6808 17.0583 14.5504 17.0896 14.42L17.1027 14.3655C17.1158 14.312 17.129 14.2595 17.1421 14.206C17.1774 14.0639 17.2117 13.9287 17.239 13.7924C17.2572 13.7 17.2703 13.6066 17.2844 13.5074C17.2996 13.3994 17.3157 13.2875 17.339 13.1756C17.4167 12.7961 17.4914 12.3914 17.4823 11.9788C17.4813 11.9224 17.4823 11.866 17.4833 11.8105C17.4853 11.7307 17.4863 11.6558 17.4803 11.5857C17.4732 11.4933 17.4672 11.4009 17.4621 11.3075C17.447 11.0526 17.4328 10.8113 17.3803 10.5836C17.2925 10.209 17.1633 9.83148 16.9967 9.46077C16.8251 9.07937 16.6282 8.73299 16.4132 8.42942C16.0901 7.97505 15.6742 7.54889 15.1038 7.0877C14.812 6.85126 14.6959 6.36186 14.8554 6.04078C15.0442 5.66132 15.2542 5.2624 15.5379 4.74673C15.6449 4.55311 15.757 4.36046 15.866 4.17365C15.9649 4.00435 16.0639 3.83505 16.1588 3.66284C16.1588 3.65505 16.1588 3.64824 16.1588 3.63949C16.1568 3.53635 16.0437 3.42543 15.9347 3.37387C15.8075 3.31354 15.6439 3.31062 15.5641 3.369L15.545 3.38262C15.5046 3.44587 15.4652 3.51105 15.4268 3.57624C15.3774 3.65992 15.3269 3.74262 15.2744 3.82435C15.0119 4.22619 14.7474 4.62608 14.4829 5.02694L14.0962 5.61365C13.8964 5.91721 13.6379 6.10402 13.3058 6.1877C12.9514 6.27624 12.588 6.23148 12.2286 6.05537C11.7248 5.80921 11.5007 5.43656 11.5602 4.94619C11.6047 4.58424 11.6642 4.22035 11.7218 3.86911L11.7409 3.75332C11.7571 3.65408 11.7823 3.5597 11.8066 3.46922C11.8177 3.42932 11.8278 3.38846 11.8379 3.34759L11.85 3.29992C11.8954 3.11214 11.9408 2.92533 11.9853 2.73754L11.9832 2.73268C11.9832 2.73268 11.955 2.65387 11.6773 2.59743C11.4522 2.5517 11.2594 2.56922 11.1968 2.64219C11.1897 2.64997 11.1867 2.65387 11.1827 2.65873C11.1827 2.65873 11.1705 2.68111 11.1584 2.76478C11.115 3.06057 11.0605 3.35635 11.007 3.64241L10.9838 3.76889C10.9596 3.90024 10.9272 4.03938 10.8838 4.20576L10.8475 4.34392C10.7859 4.57938 10.7223 4.82359 10.6476 5.06197L10.6244 5.13786C10.5739 5.30521 10.5174 5.49397 10.3922 5.64575C9.9823 6.14391 9.09389 5.96975 8.63353 5.78878C8.47099 5.72456 8.13178 5.59224 7.85213 5.25267C7.48566 4.80997 7.35139 4.17365 7.51595 3.67062C7.73906 2.99149 7.93592 2.65484 7.944 2.64122C7.95107 2.62954 7.95208 2.6237 7.95208 2.62176C7.95006 2.59257 7.88645 2.52154 7.81679 2.50792C7.74512 2.49333 7.65527 2.55268 7.57753 2.60911C7.38874 2.7463 7.28072 2.99343 7.18481 3.21138C7.13736 3.31938 7.09294 3.42251 7.03842 3.51008C7.00915 3.55873 6.9829 3.60835 6.95564 3.65895C6.90213 3.76013 6.8456 3.86522 6.76887 3.96446C6.60129 4.18046 6.28126 4.37894 5.71489 4.10067L5.00013 3.7504C4.62861 3.56846 4.2581 3.38651 3.88658 3.2036C3.88053 3.20262 3.87144 3.20165 3.86033 3.20068C3.85832 3.20068 3.8563 3.20068 3.85428 3.20068C3.76947 3.20068 3.65337 3.27559 3.58775 3.37289C3.49588 3.51008 3.52617 3.67354 3.53929 3.74262C3.54636 3.78154 3.55646 3.81267 3.5615 3.82532C3.61602 3.9703 3.91283 4.10165 4.17734 4.15613C5.38578 4.36921 6.2328 4.9384 6.53264 5.40738C6.75676 5.75862 6.8769 6.19743 6.88194 6.21591L6.88901 6.24121C6.92737 6.38132 6.95665 6.49224 6.9516 6.63818C6.93747 7.00499 6.74161 7.29008 6.55888 7.52845C6.26611 7.90986 6.0531 8.22996 5.88753 8.53353C5.74619 8.79332 5.64019 9.07353 5.52813 9.37126C5.50491 9.43256 5.48169 9.49483 5.45847 9.55613C5.32016 9.91612 5.24747 10.2557 5.23434 10.5933C5.23232 10.6361 5.22829 10.6799 5.22425 10.7227C5.22021 10.7616 5.21617 10.7996 5.21617 10.8385C5.21617 10.891 5.21415 10.9446 5.21213 10.9971C5.2081 11.1508 5.20305 11.2958 5.21516 11.4369C5.23535 11.684 5.27372 11.938 5.31006 12.1841L5.3353 12.3534C5.35549 12.4926 5.37366 12.6249 5.41304 12.7397C5.52409 13.0647 5.64826 13.411 5.79869 13.738C5.95517 14.0785 6.12982 14.4375 6.3388 14.7567C6.58109 15.1274 6.85771 15.4893 7.12424 15.8396L7.27769 16.042C7.57753 16.437 7.88343 16.7386 8.21355 16.9614C8.74357 17.3204 9.27056 17.4742 9.82784 17.4333C9.99542 17.4207 10.1327 17.3525 10.1913 17.2533C10.1913 17.2465 10.1913 17.2397 10.1913 17.2329C10.1913 17.1725 10.1933 17.0733 10.2468 16.9556C10.2993 16.8417 10.3861 16.7376 10.5052 16.6452C10.6991 16.4954 10.8657 16.4662 10.9878 16.4448C11.0615 16.4321 11.0898 16.4253 11.115 16.4078C11.1403 16.3893 11.1463 16.3718 11.1544 16.2395C11.1625 16.0877 11.1746 15.8804 11.3371 15.6644C11.5118 15.4329 11.7349 15.356 11.8984 15.3005C11.9641 15.2782 12.0448 15.2509 12.0519 15.2315C12.0711 15.1789 11.9671 15.0223 11.8924 14.9075C11.8661 14.8676 11.8389 14.8267 11.8126 14.7849C11.636 14.5047 11.3674 14.3042 11.1271 14.1447C10.9717 14.0415 10.8152 13.9403 10.6577 13.8401C10.3629 13.6504 10.058 13.4548 9.76524 13.2437C9.28671 12.8983 8.95154 12.5188 8.73852 12.0829C8.64766 11.8961 8.54469 11.685 8.48007 11.4583C8.41143 11.218 8.34782 10.9601 8.34984 10.6955C8.35186 10.4065 8.42354 10.1282 8.48714 9.9171C8.54973 9.70694 8.6416 9.43742 8.79506 9.21072C9.28974 8.48002 9.99643 8.01786 10.8959 7.83688C11.4229 7.73083 11.962 7.74543 12.5415 7.88067C13.1705 8.02759 13.6904 8.28153 14.1316 8.65613C14.5586 9.01904 14.8766 9.45688 15.0765 9.95894C15.1704 10.1944 15.2532 10.459 15.338 10.7908L15.3501 10.8385C15.4117 11.0798 15.4753 11.3299 15.4783 11.5916C15.4814 11.9146 15.4592 12.2376 15.438 12.5509C15.4289 12.6784 15.4208 12.8058 15.4137 12.9333C15.4127 12.9586 15.4077 12.9829 15.4026 13.0082L15.3552 13.234C15.3208 13.3974 15.2855 13.5609 15.2532 13.7243C15.233 13.8236 15.2148 13.9238 15.1967 14.024C15.1795 14.1174 15.1623 14.2098 15.1442 14.3023C15.1159 14.4443 15.0897 14.5601 15.0624 14.6642C15.0382 14.7576 15.0109 14.8501 14.9847 14.9425C14.9604 15.0271 14.9362 15.1118 14.913 15.1964C14.8898 15.285 14.8676 15.3745 14.8453 15.463C14.809 15.607 14.7727 15.7559 14.7292 15.9038C14.6899 16.039 14.6444 16.1723 14.6 16.3008C14.5647 16.4058 14.5283 16.5109 14.496 16.618C14.4678 16.7094 14.4425 16.8018 14.4183 16.8943C14.385 17.0178 14.3507 17.1453 14.3083 17.2708C14.2517 17.4411 14.1881 17.6114 14.1275 17.7748C14.0841 17.8906 14.0417 18.0064 14.0003 18.1231C13.8863 18.4462 13.86 18.5386 13.8418 18.5999C13.8237 18.6631 13.8105 18.705 13.7611 18.8373C13.7379 18.8996 13.7187 18.9482 13.7025 18.9891C13.6894 19.0231 13.6753 19.0591 13.6672 19.0805L13.6642 19.0767ZM3.87144 3.19387C3.87144 3.19387 3.87447 3.19581 3.87649 3.19678C3.87447 3.19678 3.87346 3.19484 3.87144 3.19387Z" fill="#636363"/>
</svg>
