<svg width="22" height="22" viewBox="0 0 22 22" fill="none" xmlns="http://www.w3.org/2000/svg">
<path d="M6.19369 11.0352C6.19855 11.042 6.20341 11.0488 6.2073 11.0556C5.31506 11.6368 3.84548 11.7126 2.76663 11.1119C2.7919 11.041 2.76954 10.9788 2.70345 10.9049C2.51878 10.6989 2.38077 10.4685 2.37008 10.1818C2.35064 9.71428 2.63736 9.42173 2.96199 9.15153C3.0203 9.1039 3.08154 9.06114 3.15346 9.00671C3.06793 8.89494 2.99115 8.80163 2.92117 8.70346C2.59751 8.24568 2.63639 7.80928 3.03294 7.4137C3.08834 7.3583 3.18165 7.3165 3.09806 7.21153C2.75982 6.78777 2.82592 6.33484 3.01156 5.87803C3.10097 5.65546 3.13596 5.58159 3.06404 5.48245C3.45379 5.41344 3.79105 5.46107 3.89505 5.47565C4.91656 5.62047 5.56387 6.37858 5.95362 6.97147C5.9196 6.96758 5.88656 6.96563 5.85351 6.96077C5.8506 7.07449 5.84282 7.18724 5.84768 7.29998C5.84962 7.33303 5.88753 7.3651 5.91086 7.39523C6.29575 7.88606 6.30644 8.34093 5.94585 8.8444C5.91377 8.89008 5.88364 8.93673 5.83796 9.00477C6.35017 9.11071 6.49791 9.48296 6.5572 9.91256C6.61649 10.3383 6.57664 10.7397 6.19369 11.0352Z" fill="#636363"/>
<path d="M11.1795 21.0317C10.8102 21.0317 10.4379 20.882 10.1804 20.5914C9.74979 20.1054 9.53013 19.5281 9.52818 18.8749C9.52721 18.387 9.52818 17.8991 9.52915 17.4102C9.5311 16.5957 9.53401 15.754 9.52235 14.9259C9.50583 13.6993 10.1872 12.9072 11.4429 12.6953C11.9891 12.603 12.5713 12.6428 13.0738 12.6885C13.588 12.7342 14.038 13.0287 14.4112 13.5623C14.4287 13.5866 14.4394 13.6002 14.4462 13.606C14.452 13.6031 14.4608 13.5992 14.4734 13.5914C15.0148 13.2474 15.5756 13.1978 16.1442 13.4408C15.8837 12.8168 16.0451 12.2424 16.6302 11.6942C16.6078 11.668 16.5845 11.6417 16.5621 11.6155C16.4513 11.4862 16.3366 11.3531 16.2385 11.2102C15.8827 10.6883 15.9002 10.1935 16.2939 9.69493C16.3075 9.67841 16.3172 9.6648 16.323 9.65508C16.3191 9.65119 16.3143 9.64536 16.3075 9.63856C15.702 9.04373 15.6757 8.3799 16.2297 7.71995C16.3308 7.59943 16.3327 7.58096 16.2482 7.47891C16.0217 7.20385 15.9177 6.88699 15.943 6.55167C15.5814 6.82673 15.215 6.88311 14.834 6.72274C14.5162 7.2437 13.9602 7.29326 13.5063 7.33409C13.2352 7.35839 13.0524 7.39726 12.8649 7.53528C12.0338 8.14663 11.1698 8.11164 10.365 7.4342C10.3048 7.38366 10.2941 7.38949 10.2503 7.41573C9.39405 7.92989 8.30937 7.79381 7.61249 7.0843C7.57458 7.04542 7.55417 7.03376 7.47836 7.06C7.02932 7.21162 6.55501 7.22328 6.0671 7.09304C6.04572 7.08721 6.02239 7.08333 5.99809 7.08041C5.99615 7.13387 5.99518 7.18538 5.99712 7.23592C6.00004 7.23981 6.00295 7.24272 6.00684 7.24564C6.01559 7.25536 6.02531 7.26605 6.03308 7.27577C6.45296 7.81131 6.4656 8.34005 6.07099 8.89016C6.53752 9.07095 6.65707 9.49471 6.70761 9.85822C6.75329 10.1887 6.76593 10.6562 6.39853 11.0158C6.85243 11.3754 7.06042 11.8828 7.01377 12.5174C6.9399 13.5224 6.44907 14.2465 5.55586 14.6674C5.40035 14.7403 5.22831 14.7937 5.05823 14.82C4.99991 14.8287 4.97172 14.8443 4.96395 14.854C4.962 14.8569 4.95034 14.8773 4.96395 14.9444C4.97853 15.0221 4.99116 15.0999 5.00477 15.1777C5.03295 15.3497 5.06017 15.512 5.10488 15.6704C5.30413 16.3683 5.34398 17.141 5.23123 18.1013C5.20985 18.2801 5.15056 18.4667 5.05725 18.6417C4.94062 18.8613 4.73554 18.9886 4.50033 18.9906C4.2729 18.9886 4.07268 18.8594 3.96285 18.6446C3.86565 18.4541 3.79665 18.2159 3.76457 17.9564C3.72667 17.6561 3.71306 17.3305 3.72181 16.9903C3.73153 16.62 3.65085 16.2691 3.56435 15.8969C3.53325 15.7608 3.5002 15.6209 3.47299 15.4809C3.46521 15.442 3.45744 15.4022 3.44869 15.3633C3.4137 15.1961 3.37871 15.0231 3.37774 14.8462C3.37774 14.751 3.36219 14.7335 3.25139 14.6995C2.69446 14.5294 2.31832 14.2028 2.13268 13.7285C1.93732 13.227 1.99564 12.7118 2.06853 12.3192C2.15406 11.8575 2.33873 11.4425 2.61671 11.0858C2.66531 11.0236 2.66239 11.0168 2.61282 10.9623C2.37275 10.6941 2.25515 10.4375 2.24446 10.1537C2.22307 9.61134 2.56422 9.27991 2.88594 9.01263C2.91315 8.99027 2.94037 8.96889 2.96952 8.94654C2.91607 8.8785 2.8665 8.81435 2.82082 8.74923C2.45731 8.23508 2.50105 7.72772 2.94717 7.28355C2.9598 7.27091 2.97341 7.25925 2.98702 7.24758H2.98896C2.59338 6.7344 2.73043 6.20177 2.89566 5.79259L2.90635 5.76634C2.94717 5.66623 2.98216 5.57973 2.97633 5.55252C2.9705 5.52239 2.87913 5.44074 2.8247 5.39215C2.2153 4.84689 2.2464 3.90508 2.59241 3.25582C2.99965 2.4909 3.6771 1.99716 4.60627 1.78819C5.58599 1.56853 6.42186 1.66087 7.16248 2.07005C7.86325 2.45786 8.26757 3.1042 8.36574 3.99158C8.63788 3.87981 8.94405 3.8487 9.29589 3.8973C9.51846 3.92743 9.75853 4.00616 10.0083 4.13057C10.2299 4.24137 10.3368 4.43673 10.3932 4.62626C11.0998 3.94201 11.9065 3.8487 12.6676 4.36578C12.6695 4.36772 12.6714 4.36869 12.6734 4.36967C12.6763 4.36481 12.6802 4.35995 12.6841 4.35314C12.791 4.17819 12.9125 3.97992 13.068 3.81371C13.4927 3.3569 14.0331 3.28109 14.5881 3.59989C14.627 3.62224 14.6649 3.6446 14.7057 3.66987L14.7261 3.62419C15.0731 2.834 15.6028 2.42287 16.3483 2.36747C16.3687 2.35483 16.4086 2.31109 16.4251 2.27124C16.6282 1.80374 16.8897 1.47425 17.2269 1.26431C17.3912 1.16226 17.5778 1.08645 17.7819 1.04077C17.8597 1.02327 18.0686 0.984394 18.3398 1.00675C18.5099 1.02036 18.9599 1.05632 19.337 1.35082C19.7248 1.65406 19.8483 2.05839 19.9124 2.37621C20.1641 3.61835 19.8726 4.67388 19.0474 5.51461C19.0007 5.56224 18.9988 5.56418 19.0386 5.63125C19.2427 5.98017 19.3419 6.32618 19.3438 6.69163C19.3448 7.0289 19.2447 7.31756 19.0445 7.54986C19.0163 7.58193 19.0114 7.59651 19.0104 7.59943C19.0104 7.59943 19.0153 7.61206 19.0367 7.6383C19.5625 8.30117 19.5586 9.06414 19.025 9.62981C19.0221 9.6337 19.0192 9.63662 19.0172 9.63856C19.0221 9.64439 19.0289 9.65314 19.0396 9.66383C19.2058 9.83878 19.3535 9.99818 19.476 10.1848C19.7987 10.6785 19.7695 11.1849 19.3905 11.6495C19.373 11.6709 19.3642 11.6845 19.3603 11.6913C19.3642 11.6971 19.372 11.7078 19.3866 11.7224C19.9853 12.324 20.0047 13.0073 19.442 13.6439C19.3603 13.7363 19.3428 13.8092 19.3652 13.9686C19.406 14.2737 19.443 14.6314 19.4041 14.9765C19.3438 15.5033 18.9463 15.8638 18.3903 15.894C18.2834 15.8998 18.2727 15.9124 18.2494 15.998C18.1406 16.3838 17.8587 16.656 17.434 16.7843C17.2687 16.8338 17.0986 16.8591 16.9334 16.8834C16.8323 16.898 16.7283 16.9135 16.6282 16.9349C16.5475 16.9514 16.4669 16.9864 16.4066 17.0302C15.7768 17.4831 15.1868 17.5774 14.6037 17.3188C14.4365 17.245 14.2926 17.1322 14.1537 17.0234L14.142 17.0146C14.0914 16.9757 14.0817 16.9699 14.003 16.9981C13.7445 17.0904 13.4023 17.2012 13.0515 17.2489L12.9786 17.2586C12.9251 17.2654 12.8649 17.2732 12.8376 17.2809C12.8308 17.3169 12.8308 17.4053 12.8308 17.4782C12.8308 17.625 12.8318 17.7718 12.8338 17.9195C12.8367 18.2461 12.8396 18.5833 12.8279 18.9157C12.7997 19.6933 12.5218 20.3085 12.0018 20.744C11.7705 20.9383 11.4779 21.0326 11.1844 21.0326L11.1795 21.0317ZM12.1806 12.9159C11.9483 12.9159 11.7141 12.9296 11.4896 12.9675C10.7081 13.0996 9.77992 13.5458 9.79935 14.922C9.81102 15.7521 9.8081 16.5957 9.80616 17.4112C9.80519 17.8991 9.80324 18.386 9.80519 18.8739C9.80713 19.4581 10.0025 19.9742 10.3884 20.4086C10.7528 20.8207 11.4099 20.8771 11.822 20.5311C12.2856 20.1423 12.5237 19.6107 12.549 18.9041C12.5606 18.5775 12.5577 18.2432 12.5548 17.9195C12.5538 17.7718 12.5519 17.624 12.5519 17.4763C12.5519 17.1108 12.5859 17.0282 12.9407 16.9835L13.0116 16.9748C13.3382 16.931 13.6618 16.8251 13.9078 16.7376C14.0701 16.6793 14.1789 16.6958 14.3092 16.7969L14.3208 16.8057C14.4472 16.9038 14.5774 17.0059 14.7135 17.0661C15.2063 17.2848 15.6922 17.2022 16.2433 16.8057C16.3347 16.7396 16.4513 16.69 16.5689 16.6647C16.6758 16.6424 16.7847 16.6258 16.8897 16.6103C17.052 16.586 17.2046 16.5636 17.3513 16.5199C17.6867 16.4188 17.8985 16.2186 17.9812 15.9231C18.0385 15.719 18.1522 15.6306 18.3728 15.6189C18.7937 15.5956 19.0833 15.338 19.128 14.9454C19.164 14.6304 19.128 14.2942 19.0901 14.0055C19.0629 13.8072 19.0775 13.6381 19.234 13.4612C19.6995 12.9344 19.684 12.4144 19.1893 11.9158C19.0046 11.7302 19.0931 11.5747 19.1747 11.4746C19.4789 11.1023 19.5013 10.7291 19.2437 10.3354C19.1339 10.1683 18.9949 10.0186 18.8384 9.85336C18.7033 9.71145 18.6984 9.57247 18.8229 9.43931C19.2554 8.98055 19.2544 8.3556 18.8199 7.80839C18.6635 7.61206 18.7539 7.46335 18.8355 7.36908C18.9929 7.18635 19.0697 6.96475 19.0688 6.69163C19.0678 6.37672 18.9803 6.07445 18.8015 5.76926C18.7334 5.6536 18.678 5.49712 18.852 5.32022C19.6199 4.53781 19.8794 3.59211 19.6432 2.42967C19.5878 2.15753 19.4848 1.81346 19.1679 1.56562C18.8569 1.32166 18.4662 1.29056 18.3194 1.27889C18.0861 1.26043 17.9092 1.2925 17.8441 1.30708C17.6701 1.34693 17.5117 1.4101 17.3737 1.49564C17.086 1.67447 16.8595 1.96314 16.6797 2.37816C16.6379 2.47341 16.5203 2.62892 16.3794 2.63864C15.7331 2.68335 15.2879 3.03033 14.9808 3.73207L14.8962 3.9216C14.8807 3.95756 14.8496 3.98478 14.8117 3.99741C14.7738 4.00908 14.7329 4.00422 14.6989 3.9838L14.6066 3.9284C14.5512 3.89439 14.5026 3.86523 14.452 3.83607C14.0069 3.58045 13.6094 3.63488 13.2711 3.99838C13.1351 4.14515 13.0213 4.33079 12.9203 4.49407C12.8824 4.55531 12.8279 4.62917 12.7346 4.64861C12.6423 4.66902 12.5645 4.62529 12.513 4.5903C11.6791 4.02365 10.99 4.41632 10.5584 4.84592C10.5264 4.87799 10.4933 4.90423 10.4554 4.93534C10.4369 4.94991 10.4175 4.96644 10.3952 4.9849C10.3572 5.01698 10.3038 5.02573 10.2571 5.00823C10.2105 4.99074 10.1774 4.94894 10.1697 4.89937C10.1288 4.61362 10.0404 4.45228 9.88391 4.37355C9.66134 4.26275 9.45043 4.19277 9.25798 4.16653C8.88476 4.11599 8.58832 4.16264 8.32395 4.31426C8.28507 4.33662 8.23647 4.33856 8.19565 4.31912C8.15483 4.29969 8.12567 4.26081 8.11887 4.2161L8.10915 4.15681C8.10332 4.12085 8.09846 4.09363 8.09651 4.06739C8.01779 3.23638 7.66886 2.66099 7.02932 2.30721C6.34994 1.93204 5.57724 1.84845 4.66653 2.05353C3.80734 2.24597 3.20862 2.6814 2.8354 3.38217C2.5409 3.93618 2.50494 4.73317 3.0084 5.18318C3.30096 5.44463 3.29998 5.52628 3.16197 5.86645L3.15128 5.8927C2.94231 6.40977 2.96175 6.76744 3.21834 7.08818C3.31942 7.21454 3.30193 7.337 3.16586 7.45363C3.15808 7.46044 3.14933 7.46724 3.14156 7.47502C2.7936 7.822 2.7625 8.18551 3.04533 8.58692C3.09102 8.65204 3.13961 8.71424 3.1921 8.78131C3.21834 8.81532 3.24555 8.85031 3.27374 8.88628C3.2961 8.91543 3.30582 8.95237 3.30096 8.98833C3.2961 9.02429 3.27666 9.05734 3.2475 9.07969C3.22417 9.09719 3.20085 9.11371 3.17946 9.13023C3.13767 9.16134 3.09879 9.18952 3.06186 9.22062C2.71585 9.50929 2.50396 9.76297 2.51854 10.1391C2.52729 10.3559 2.62157 10.557 2.81693 10.7748C2.95592 10.9303 2.96175 11.0868 2.83248 11.252C2.58172 11.5727 2.41552 11.9479 2.33776 12.3658C2.26778 12.7449 2.21821 13.19 2.38733 13.6245C2.54187 14.022 2.85095 14.2864 3.32914 14.4322C3.48757 14.4808 3.64891 14.5663 3.65085 14.8414C3.65085 14.991 3.68293 15.1427 3.71597 15.304C3.72472 15.3448 3.7325 15.3847 3.74027 15.4255C3.76652 15.5606 3.79859 15.6986 3.82969 15.8327C3.91619 16.205 4.00561 16.5899 3.99395 16.9962C3.9852 17.3227 3.99881 17.6337 4.03477 17.9205C4.06296 18.1489 4.12225 18.3549 4.20486 18.5182C4.26804 18.6417 4.37495 18.7136 4.49936 18.7145C4.63057 18.7145 4.74332 18.6397 4.81038 18.5124C4.88619 18.3695 4.93673 18.2121 4.95423 18.0692C5.06211 17.1468 5.02518 16.4081 4.83662 15.7462C4.78705 15.5732 4.7579 15.3954 4.72971 15.2224C4.71707 15.1465 4.70444 15.0707 4.69083 14.9959C4.6675 14.8715 4.68208 14.7733 4.73748 14.6956C4.79289 14.6168 4.88425 14.5682 5.01449 14.5478C5.15931 14.5255 5.3051 14.4808 5.43631 14.4186C6.2333 14.0424 6.67068 13.3961 6.73677 12.497C6.77759 11.9372 6.59875 11.5144 6.19054 11.2044C6.15166 11.1742 6.12833 11.1373 6.11084 11.1072C6.10501 11.0984 6.09917 11.0887 6.09237 11.079C6.04961 11.0187 6.06224 10.9361 6.12056 10.8904C6.40534 10.6708 6.49864 10.3733 6.43255 9.89612C6.37618 9.48499 6.24983 9.19244 5.82217 9.10399C5.77746 9.09427 5.73956 9.06317 5.72206 9.02138C5.70457 8.97861 5.70943 8.93099 5.7347 8.89211L5.77649 8.82893C5.80176 8.79103 5.82314 8.75895 5.84453 8.72785C6.1711 8.27201 6.16138 7.88712 5.81342 7.44294C5.80954 7.43711 5.8037 7.43225 5.79884 7.42642C5.76969 7.39337 5.724 7.34283 5.72109 7.26994C5.7172 7.18246 5.72109 7.09596 5.72303 7.01237C5.724 6.98224 5.72498 6.95114 5.72595 6.92101C5.72692 6.88213 5.74442 6.8452 5.77455 6.81993C5.80468 6.79466 5.84355 6.783 5.88146 6.78785C5.90479 6.79077 5.92811 6.79271 5.95241 6.79563C6.0117 6.80146 6.07293 6.80729 6.13611 6.82382C6.57057 6.93948 6.99142 6.93073 7.38797 6.7966C7.55611 6.73926 7.68927 6.76939 7.80688 6.88894C8.41434 7.50709 9.36004 7.62567 10.1065 7.1776C10.3067 7.05708 10.4496 7.14456 10.54 7.22134C11.2456 7.81617 11.9726 7.8463 12.6987 7.31173C12.9621 7.11734 13.2186 7.08041 13.4791 7.05708C13.9602 7.01432 14.4141 6.9735 14.6474 6.48072C14.6639 6.4467 14.6931 6.42046 14.729 6.4088C14.765 6.39713 14.8039 6.40005 14.8369 6.41852C15.25 6.64012 15.5989 6.54973 16.0062 6.11722C16.0441 6.07737 16.1014 6.06376 16.1529 6.08223C16.2044 6.10069 16.2404 6.14832 16.2443 6.20275C16.2462 6.22996 16.2482 6.25037 16.2501 6.26592C16.254 6.29994 16.2579 6.33299 16.2482 6.37089C16.1607 6.71399 16.2317 7.02695 16.4581 7.30298C16.6545 7.54208 16.5923 7.71314 16.4377 7.89684C15.978 8.44404 15.9974 8.94945 16.498 9.44223C16.6914 9.63273 16.567 9.79018 16.5077 9.86599C16.1899 10.2674 16.1763 10.6348 16.463 11.0547C16.5524 11.1859 16.6574 11.3074 16.7682 11.4357C16.8207 11.4959 16.8731 11.5572 16.9247 11.6203C16.9723 11.6777 16.9645 11.7632 16.9081 11.8118C16.219 12.4057 16.117 12.9781 16.5777 13.6692C16.6117 13.7197 16.6078 13.7868 16.5689 13.8335C16.53 13.8801 16.4649 13.8957 16.4086 13.8723C16.3794 13.8597 16.357 13.851 16.3376 13.8432C16.3007 13.8286 16.2744 13.8179 16.2472 13.8014C15.6835 13.4777 15.1509 13.4855 14.6173 13.8237C14.3665 13.9831 14.2275 13.7849 14.1818 13.7197C13.8523 13.2493 13.4801 13.0015 13.0456 12.9626C12.7725 12.9383 12.4751 12.915 12.1758 12.915L12.1806 12.9159Z" fill="#636363"/>
<path d="M18.3194 1.27889C18.4662 1.29056 18.8569 1.32166 19.1679 1.56562C19.4848 1.81346 19.5878 2.15753 19.6432 2.42967C19.8794 3.59211 19.6199 4.53781 18.852 5.32022C18.678 5.49712 18.7334 5.6536 18.8015 5.76926C18.9803 6.07445 19.0678 6.37672 19.0688 6.69163C19.0697 6.96475 18.9929 7.18635 18.8355 7.36908C18.7539 7.46335 18.6635 7.61206 18.8199 7.80839C19.2544 8.3556 19.2554 8.98055 18.8229 9.43931C18.6984 9.57247 18.7033 9.71145 18.8384 9.85336C18.9949 10.0186 19.1339 10.1683 19.2437 10.3354C19.5013 10.7291 19.4789 11.1023 19.1747 11.4746C19.0931 11.5747 19.0046 11.7302 19.1893 11.9158C19.684 12.4144 19.6995 12.9344 19.234 13.4612C19.0775 13.6381 19.0629 13.8072 19.0901 14.0055C19.128 14.2942 19.164 14.6304 19.128 14.9454C19.0833 15.338 18.7937 15.5956 18.3728 15.6189C18.1522 15.6306 18.0385 15.719 17.9812 15.9231C17.8985 16.2186 17.6867 16.4188 17.3513 16.5199C17.2046 16.5636 17.052 16.586 16.8897 16.6103C16.7847 16.6258 16.6758 16.6424 16.5689 16.6647C16.4513 16.69 16.3347 16.7396 16.2433 16.8057C15.6922 17.2022 15.2063 17.2848 14.7135 17.0661C14.5774 17.0059 14.4472 16.9038 14.3208 16.8057L14.3092 16.7969C14.1789 16.6958 14.0701 16.6793 13.9078 16.7376C13.6618 16.8251 13.3382 16.931 13.0116 16.9748L12.9407 16.9835C12.5859 17.0282 12.5519 17.1108 12.5519 17.4763C12.5519 17.624 12.5538 17.7718 12.5548 17.9195C12.5577 18.2432 12.5606 18.5775 12.549 18.9041C12.5237 19.6107 12.2856 20.1423 11.822 20.5311C11.4099 20.8771 10.7528 20.8207 10.3884 20.4086C10.0025 19.9742 9.80713 19.4581 9.80519 18.8739C9.80324 18.386 9.80519 17.8991 9.80616 17.4112C9.8081 16.5957 9.81102 15.7521 9.79935 14.922C9.77992 13.5458 10.7081 13.0996 11.4896 12.9675C11.7141 12.9296 11.9483 12.9159 12.1806 12.9159L12.1758 12.915C12.4751 12.915 12.7725 12.9383 13.0456 12.9626C13.4801 13.0015 13.8523 13.2493 14.1818 13.7197C14.2275 13.7849 14.3665 13.9831 14.6173 13.8237C15.1509 13.4855 15.6835 13.4777 16.2472 13.8014C16.2744 13.8179 16.3007 13.8286 16.3376 13.8432C16.357 13.851 16.3794 13.8597 16.4086 13.8723C16.4649 13.8957 16.53 13.8801 16.5689 13.8335C16.6078 13.7868 16.6117 13.7197 16.5777 13.6692C16.117 12.9781 16.219 12.4057 16.9081 11.8118C16.9645 11.7632 16.9723 11.6777 16.9247 11.6203C16.8731 11.5572 16.8207 11.4959 16.7682 11.4357C16.6574 11.3074 16.5524 11.1859 16.463 11.0547C16.1763 10.6348 16.1899 10.2674 16.5077 9.86599C16.567 9.79018 16.6914 9.63273 16.498 9.44223C15.9974 8.94945 15.978 8.44404 16.4377 7.89684C16.5923 7.71314 16.6545 7.54208 16.4581 7.30298C16.2317 7.02695 16.1607 6.71399 16.2482 6.37089C16.2579 6.33299 16.254 6.29994 16.2501 6.26592C16.2482 6.25037 16.2462 6.22996 16.2443 6.20275C16.2404 6.14832 16.2044 6.10069 16.1529 6.08223C16.1014 6.06376 16.0441 6.07737 16.0062 6.11722C15.5989 6.54973 15.25 6.64012 14.8369 6.41852C14.8039 6.40005 14.765 6.39713 14.729 6.4088C14.6931 6.42046 14.6639 6.4467 14.6474 6.48072C14.4141 6.9735 13.9602 7.01432 13.4791 7.05708C13.2186 7.08041 12.9621 7.11734 12.6987 7.31173C11.9726 7.8463 11.2456 7.81617 10.54 7.22134C10.4496 7.14456 10.3067 7.05708 10.1065 7.1776C9.36004 7.62567 8.41434 7.50709 7.80688 6.88894C7.68927 6.76939 7.55611 6.73926 7.38797 6.7966C6.99142 6.93073 6.57057 6.93948 6.13611 6.82382C6.07293 6.80729 6.0117 6.80146 5.95241 6.79563C5.92811 6.79271 5.90479 6.79077 5.88146 6.78785C5.84355 6.783 5.80468 6.79466 5.77455 6.81993C5.74442 6.8452 5.72692 6.88213 5.72595 6.92101C5.72498 6.95114 5.724 6.98224 5.72303 7.01237C5.72109 7.09596 5.7172 7.18246 5.72109 7.26994C5.724 7.34283 5.76969 7.39337 5.79884 7.42642C5.8037 7.43225 5.80954 7.43711 5.81342 7.44294C6.16138 7.88712 6.1711 8.27201 5.84453 8.72785C5.82314 8.75895 5.80176 8.79103 5.77649 8.82893L5.7347 8.89211C5.70943 8.93099 5.70457 8.97861 5.72206 9.02138C5.73956 9.06317 5.77746 9.09427 5.82217 9.10399C6.24983 9.19244 6.37618 9.48499 6.43255 9.89612C6.49864 10.3733 6.40534 10.6708 6.12056 10.8904C6.06224 10.9361 6.04961 11.0187 6.09237 11.079C6.09917 11.0887 6.10501 11.0984 6.11084 11.1072C6.12833 11.1373 6.15166 11.1742 6.19054 11.2044C6.59875 11.5144 6.77759 11.9372 6.73677 12.497C6.67068 13.3961 6.2333 14.0424 5.43631 14.4186C5.3051 14.4808 5.15931 14.5255 5.01449 14.5478C4.88425 14.5682 4.79289 14.6168 4.73748 14.6956C4.68208 14.7733 4.6675 14.8715 4.69083 14.9959C4.70444 15.0707 4.71707 15.1465 4.72971 15.2224C4.7579 15.3954 4.78705 15.5732 4.83662 15.7462C5.02518 16.4081 5.06211 17.1468 4.95423 18.0692C4.93673 18.2121 4.88619 18.3695 4.81038 18.5124C4.74332 18.6397 4.63057 18.7145 4.49936 18.7145C4.37495 18.7136 4.26804 18.6417 4.20486 18.5182C4.12225 18.3549 4.06296 18.1489 4.03477 17.9205C3.99881 17.6337 3.9852 17.3227 3.99395 16.9962C4.00561 16.5899 3.91619 16.205 3.82969 15.8327C3.79859 15.6986 3.76652 15.5606 3.74027 15.4255C3.7325 15.3847 3.72472 15.3448 3.71597 15.304C3.68293 15.1427 3.65085 14.991 3.65085 14.8414C3.64891 14.5663 3.48757 14.4808 3.32914 14.4322C2.85095 14.2864 2.54187 14.022 2.38733 13.6245C2.21821 13.19 2.26778 12.7449 2.33776 12.3658C2.41552 11.9479 2.58172 11.5727 2.83248 11.252C2.96175 11.0868 2.95592 10.9303 2.81693 10.7748C2.62157 10.557 2.52729 10.3559 2.51854 10.1391C2.50396 9.76297 2.71585 9.50929 3.06186 9.22062C3.09879 9.18952 3.13767 9.16134 3.17946 9.13023C3.20085 9.11371 3.22417 9.09719 3.2475 9.07969C3.27666 9.05734 3.2961 9.02429 3.30096 8.98833C3.30582 8.95237 3.2961 8.91543 3.27374 8.88628C3.24555 8.85031 3.21834 8.81532 3.1921 8.78131C3.13961 8.71424 3.09102 8.65204 3.04533 8.58692C2.7625 8.18551 2.7936 7.822 3.14156 7.47502C3.14933 7.46724 3.15808 7.46044 3.16586 7.45363C3.30193 7.337 3.31942 7.21454 3.21834 7.08818C2.96175 6.76744 2.94231 6.40977 3.15128 5.8927L3.16197 5.86645C3.29998 5.52628 3.30096 5.44463 3.0084 5.18318C2.50494 4.73317 2.5409 3.93618 2.8354 3.38217C3.20862 2.6814 3.80734 2.24597 4.66653 2.05353C5.57724 1.84845 6.34994 1.93204 7.02932 2.30721C7.66886 2.66099 8.01779 3.23638 8.09651 4.06739C8.09846 4.09363 8.10332 4.12085 8.10915 4.15681L8.11887 4.2161C8.12567 4.26081 8.15483 4.29969 8.19565 4.31912C8.23647 4.33856 8.28507 4.33662 8.32395 4.31426C8.58832 4.16264 8.88476 4.11599 9.25798 4.16653C9.45043 4.19277 9.66134 4.26275 9.88391 4.37355C10.0404 4.45228 10.1288 4.61362 10.1697 4.89937C10.1774 4.94894 10.2105 4.99074 10.2571 5.00823C10.3038 5.02573 10.3572 5.01698 10.3952 4.9849C10.4175 4.96644 10.4369 4.94991 10.4554 4.93534C10.4933 4.90423 10.5264 4.87799 10.5584 4.84592C10.99 4.41632 11.6791 4.02365 12.513 4.5903C12.5645 4.62529 12.6423 4.66902 12.7346 4.64861C12.8279 4.62917 12.8824 4.55531 12.9203 4.49407C13.0213 4.33079 13.1351 4.14515 13.2711 3.99838C13.6094 3.63488 14.0069 3.58045 14.452 3.83607C14.5026 3.86523 14.5512 3.89439 14.6066 3.9284L14.6989 3.9838C14.7329 4.00422 14.7738 4.00908 14.8117 3.99741C14.8496 3.98478 14.8807 3.95756 14.8962 3.9216L14.9808 3.73207C15.2879 3.03033 15.7331 2.68335 16.3794 2.63864C16.5203 2.62892 16.6379 2.47341 16.6797 2.37816C16.8595 1.96314 17.086 1.67447 17.3737 1.49564C17.5117 1.4101 17.6701 1.34693 17.8441 1.30708C17.9092 1.2925 18.0861 1.26043 18.3194 1.27889ZM18.3194 1.27889L18.3301 1.14185M11.1795 21.0317C10.8102 21.0317 10.4379 20.882 10.1804 20.5914C9.74979 20.1054 9.53013 19.5281 9.52818 18.8749C9.52721 18.387 9.52818 17.8991 9.52915 17.4102C9.5311 16.5957 9.53401 15.754 9.52235 14.9259C9.50583 13.6993 10.1872 12.9072 11.4429 12.6953C11.9891 12.603 12.5713 12.6428 13.0738 12.6885C13.588 12.7342 14.038 13.0287 14.4112 13.5623C14.4287 13.5866 14.4394 13.6002 14.4462 13.606C14.452 13.6031 14.4608 13.5992 14.4734 13.5914C15.0148 13.2474 15.5756 13.1978 16.1442 13.4408C15.8837 12.8168 16.0451 12.2424 16.6302 11.6942C16.6078 11.668 16.5845 11.6417 16.5621 11.6155C16.4513 11.4862 16.3366 11.3531 16.2385 11.2102C15.8827 10.6883 15.9002 10.1935 16.2939 9.69493C16.3075 9.67841 16.3172 9.6648 16.323 9.65508C16.3191 9.65119 16.3143 9.64536 16.3075 9.63856C15.702 9.04373 15.6757 8.3799 16.2297 7.71995C16.3308 7.59943 16.3327 7.58096 16.2482 7.47891C16.0217 7.20385 15.9177 6.88699 15.943 6.55167C15.5814 6.82673 15.215 6.88311 14.834 6.72274C14.5162 7.2437 13.9602 7.29326 13.5063 7.33409C13.2352 7.35839 13.0524 7.39726 12.8649 7.53528C12.0338 8.14663 11.1698 8.11164 10.365 7.4342C10.3048 7.38366 10.2941 7.38949 10.2503 7.41573C9.39405 7.92989 8.30937 7.79381 7.61249 7.0843C7.57458 7.04542 7.55417 7.03376 7.47836 7.06C7.02932 7.21162 6.55501 7.22328 6.0671 7.09304C6.04572 7.08721 6.02239 7.08333 5.99809 7.08041C5.99615 7.13387 5.99518 7.18538 5.99712 7.23592C6.00004 7.23981 6.00295 7.24272 6.00684 7.24564C6.01559 7.25536 6.02531 7.26605 6.03308 7.27577C6.45296 7.81131 6.4656 8.34005 6.07099 8.89016C6.53752 9.07095 6.65707 9.49471 6.70761 9.85822C6.75329 10.1887 6.76593 10.6562 6.39853 11.0158C6.85243 11.3754 7.06042 11.8828 7.01377 12.5174C6.9399 13.5224 6.44907 14.2465 5.55586 14.6674C5.40035 14.7403 5.22831 14.7937 5.05823 14.82C4.99991 14.8287 4.97172 14.8443 4.96395 14.854C4.962 14.8569 4.95034 14.8773 4.96395 14.9444C4.97853 15.0221 4.99116 15.0999 5.00477 15.1777C5.03295 15.3497 5.06017 15.512 5.10488 15.6704C5.30413 16.3683 5.34398 17.141 5.23123 18.1013C5.20985 18.2801 5.15056 18.4667 5.05725 18.6417C4.94062 18.8613 4.73554 18.9886 4.50033 18.9906C4.2729 18.9886 4.07268 18.8594 3.96285 18.6446C3.86565 18.4541 3.79665 18.2159 3.76457 17.9564C3.72667 17.6561 3.71306 17.3305 3.72181 16.9903C3.73153 16.62 3.65085 16.2691 3.56435 15.8969C3.53325 15.7608 3.5002 15.6209 3.47299 15.4809C3.46521 15.442 3.45744 15.4022 3.44869 15.3633C3.4137 15.1961 3.37871 15.0231 3.37774 14.8462C3.37774 14.751 3.36219 14.7335 3.25139 14.6995C2.69446 14.5294 2.31832 14.2028 2.13268 13.7285C1.93732 13.227 1.99564 12.7118 2.06853 12.3192C2.15406 11.8575 2.33873 11.4425 2.61671 11.0858C2.66531 11.0236 2.66239 11.0168 2.61282 10.9623C2.37275 10.6941 2.25515 10.4375 2.24446 10.1537C2.22307 9.61134 2.56422 9.27991 2.88594 9.01263C2.91315 8.99027 2.94037 8.96889 2.96952 8.94654C2.91607 8.8785 2.8665 8.81435 2.82082 8.74923C2.45731 8.23508 2.50105 7.72772 2.94717 7.28355C2.9598 7.27091 2.97341 7.25925 2.98702 7.24758H2.98896C2.59338 6.7344 2.73043 6.20177 2.89566 5.79259L2.90635 5.76634C2.94717 5.66623 2.98216 5.57973 2.97633 5.55252C2.9705 5.52239 2.87913 5.44074 2.8247 5.39215C2.2153 4.84689 2.2464 3.90508 2.59241 3.25582C2.99965 2.4909 3.6771 1.99716 4.60627 1.78819C5.58599 1.56853 6.42186 1.66087 7.16248 2.07005C7.86325 2.45786 8.26757 3.1042 8.36574 3.99158C8.63788 3.87981 8.94405 3.8487 9.29589 3.8973C9.51846 3.92743 9.75853 4.00616 10.0083 4.13057C10.2299 4.24137 10.3368 4.43673 10.3932 4.62626C11.0998 3.94201 11.9065 3.8487 12.6676 4.36578C12.6695 4.36772 12.6714 4.36869 12.6734 4.36967C12.6763 4.36481 12.6802 4.35995 12.6841 4.35314C12.791 4.17819 12.9125 3.97992 13.068 3.81371C13.4927 3.3569 14.0331 3.28109 14.5881 3.59989C14.627 3.62224 14.6649 3.6446 14.7057 3.66987L14.7261 3.62419C15.0731 2.834 15.6028 2.42287 16.3483 2.36747C16.3687 2.35483 16.4086 2.31109 16.4251 2.27124C16.6282 1.80374 16.8897 1.47425 17.2269 1.26431C17.3912 1.16226 17.5778 1.08645 17.7819 1.04077C17.8597 1.02327 18.0686 0.984394 18.3398 1.00675C18.5099 1.02036 18.9599 1.05632 19.337 1.35082C19.7248 1.65406 19.8483 2.05839 19.9124 2.37621C20.1641 3.61835 19.8726 4.67388 19.0474 5.51461C19.0007 5.56224 18.9988 5.56418 19.0386 5.63125C19.2427 5.98017 19.3419 6.32618 19.3438 6.69163C19.3448 7.0289 19.2447 7.31756 19.0445 7.54986C19.0163 7.58193 19.0114 7.59651 19.0104 7.59943C19.0104 7.59943 19.0153 7.61206 19.0367 7.6383C19.5625 8.30117 19.5586 9.06414 19.025 9.62981C19.0221 9.6337 19.0192 9.63662 19.0172 9.63856C19.0221 9.64439 19.0289 9.65314 19.0396 9.66383C19.2058 9.83878 19.3535 9.99818 19.476 10.1848C19.7987 10.6785 19.7695 11.1849 19.3905 11.6495C19.373 11.6709 19.3642 11.6845 19.3603 11.6913C19.3642 11.6971 19.372 11.7078 19.3866 11.7224C19.9853 12.324 20.0047 13.0073 19.442 13.6439C19.3603 13.7363 19.3428 13.8092 19.3652 13.9686C19.406 14.2737 19.443 14.6314 19.4041 14.9765C19.3438 15.5033 18.9463 15.8638 18.3903 15.894C18.2834 15.8998 18.2727 15.9124 18.2494 15.998C18.1406 16.3838 17.8587 16.656 17.434 16.7843C17.2687 16.8338 17.0986 16.8591 16.9334 16.8834C16.8323 16.898 16.7283 16.9135 16.6282 16.9349C16.5475 16.9514 16.4669 16.9864 16.4066 17.0302C15.7768 17.4831 15.1868 17.5774 14.6037 17.3188C14.4365 17.245 14.2926 17.1322 14.1537 17.0234L14.142 17.0146C14.0914 16.9757 14.0817 16.9699 14.003 16.9981C13.7445 17.0904 13.4023 17.2012 13.0515 17.2489L12.9786 17.2586C12.9251 17.2654 12.8649 17.2732 12.8376 17.2809C12.8308 17.3169 12.8308 17.4053 12.8308 17.4782C12.8308 17.625 12.8318 17.7718 12.8338 17.9195C12.8367 18.2461 12.8396 18.5833 12.8279 18.9157C12.7997 19.6933 12.5218 20.3085 12.0018 20.744C11.7705 20.9383 11.4779 21.0326 11.1844 21.0326L11.1795 21.0317Z" stroke="#636363" stroke-width="0.3" stroke-miterlimit="10"/>
</svg>
