<svg width="22" height="22" viewBox="0 0 22 22" fill="none" xmlns="http://www.w3.org/2000/svg">
<path fill-rule="evenodd" clip-rule="evenodd" d="M8.68526 18.5577C11.3911 18.5577 13.5588 16.5432 13.5588 14.0892C13.5588 12.0496 12.2683 9.71636 10.8599 7.80594C10.17 6.87024 9.47819 6.0702 8.95783 5.50525C8.85971 5.39932 8.76852 5.30083 8.68427 5.21256C8.60002 5.30176 8.50884 5.39932 8.41071 5.50525C7.89135 6.0702 7.19952 6.86931 6.50869 7.80594C5.10026 9.71544 3.80977 12.0496 3.80977 14.0892C3.80977 16.5441 5.97743 18.5577 8.68328 18.5577H8.68526ZM8.13319 4.64946C6.70494 6.14918 3 10.3947 3 14.0892C3 16.978 5.54529 19.3196 8.68626 19.3196C11.8272 19.3196 14.3725 16.978 14.3725 14.0892C14.3725 10.3947 10.6676 6.14918 9.23932 4.64946C8.89836 4.29172 8.68725 4.09009 8.68725 4.09009C8.68725 4.09009 8.47613 4.29172 8.13517 4.64946H8.13319Z" fill="#636363"/>
<path fill-rule="evenodd" clip-rule="evenodd" d="M16.4774 9.00539C17.5092 9.00539 18.3349 8.23416 18.3349 7.29381C18.3349 6.51236 17.8432 5.61847 17.306 4.8872C17.0434 4.52853 16.7787 4.22282 16.5815 4.00632C16.5438 3.96543 16.5092 3.92827 16.4774 3.89389C16.4457 3.92827 16.411 3.96543 16.3734 4.00632C16.1751 4.22282 15.9115 4.52853 15.6488 4.8872C15.1116 5.61847 14.62 6.51236 14.62 7.29381C14.62 8.23416 15.4466 9.00539 16.4774 9.00539ZM16.2733 3.24438C15.6488 3.89946 14.0303 5.75506 14.0303 7.36908C14.0303 8.63092 15.1423 9.65397 16.5151 9.65397C17.8878 9.65397 18.9999 8.63092 18.9999 7.36908C18.9999 5.75506 17.3814 3.89946 16.7569 3.24438C16.6083 3.08827 16.5151 3 16.5151 3C16.5151 3 16.4229 3.08827 16.2733 3.24438Z" fill="#636363"/>
</svg>
