<svg width="22" height="22" viewBox="0 0 22 22" fill="none" xmlns="http://www.w3.org/2000/svg">
<path d="M7.51922 10.6477C7.38081 11.215 6.81617 11.6411 6.14232 11.6411C5.96267 11.6411 5.81702 11.7716 5.81702 11.9327C5.81702 12.0938 5.96267 12.2243 6.14232 12.2243C7.17349 12.2243 8.03003 11.5417 8.1794 10.6542C8.81075 10.593 9.39356 10.3408 9.84473 9.92808C9.97047 9.81305 9.96834 9.62842 9.84 9.51576C9.7117 9.40313 9.50572 9.40492 9.37998 9.51995C8.98099 9.88501 8.44732 10.086 7.87726 10.086C6.71733 10.086 5.77365 9.2402 5.77365 8.20051C5.77365 8.03945 5.628 7.90894 5.44835 7.90894C5.2687 7.90894 5.12305 8.03945 5.12305 8.20051C5.12305 9.45293 6.16917 10.4897 7.51922 10.6477Z" fill="#636363"/>
<path d="M8.89654 13.1771C8.89654 13.016 8.75089 12.8855 8.57124 12.8855C7.05256 12.8855 5.81702 13.9929 5.81702 15.3542C5.81702 15.3683 5.81759 15.3824 5.81785 15.3965C5.69688 15.3819 5.5737 15.3736 5.44835 15.3736C5.2687 15.3736 5.12305 15.5041 5.12305 15.6652C5.12305 15.8263 5.2687 15.9568 5.44835 15.9568C6.60829 15.9568 7.55196 16.8026 7.55196 17.8423C7.55196 18.0034 7.69761 18.1339 7.87726 18.1339C8.05692 18.1339 8.20257 18.0034 8.20257 17.8423C8.20257 16.8077 7.48855 15.9203 6.47929 15.5537C6.47157 15.4877 6.46763 15.4209 6.46763 15.3542C6.46763 14.3145 7.4113 13.4687 8.57124 13.4687C8.75089 13.4687 8.89654 13.3381 8.89654 13.1771Z" fill="#636363"/>
<path d="M20 10.689C20 10.0252 19.7042 9.3961 19.1813 8.93346C19.2641 8.696 19.306 8.45038 19.306 8.20086C19.306 7.00058 18.3452 5.99814 17.0769 5.77771C17.1738 5.56112 17.2241 5.32895 17.2241 5.09071C17.2241 4.3304 16.7087 3.6761 15.9747 3.39331C14.7518 2.52029 13.4143 2 12.388 2C11.8175 2 11.3116 2.25146 11 2.63696C10.6884 2.25146 10.1825 2 9.61205 2C8.58574 2 7.24824 2.52029 6.02532 3.39331C5.29131 3.6761 4.7759 4.3304 4.7759 5.09071C4.7759 5.32895 4.82617 5.56112 4.92311 5.77771C3.65479 5.99814 2.69398 7.00058 2.69398 8.20086C2.69398 8.45038 2.73583 8.69596 2.81867 8.93346C2.29581 9.3961 2 10.0252 2 10.689C2 11.2079 2.17996 11.6897 2.48635 12.0876C2.16794 12.5001 2 12.9814 2 13.4881C2 14.3857 2.54594 15.2081 3.41033 15.6417C3.39546 15.7526 3.38795 15.8645 3.38795 15.9762C3.38795 17.187 4.26908 18.2575 5.54752 18.6223C6.10361 19.4754 7.11655 20 8.2241 20C9.43834 20 10.4912 19.3709 11 18.4576C11.5088 19.3709 12.5617 20 13.7759 20C14.8834 20 15.8964 19.4754 16.4525 18.6223C17.7309 18.2575 18.612 17.187 18.612 15.9762C18.612 15.8645 18.6045 15.7526 18.5897 15.6417C19.4541 15.2081 20 14.3857 20 13.4881C20 12.9814 19.8321 12.5001 19.5137 12.0876C19.82 11.6897 20 11.2079 20 10.689ZM8.2241 19.4168C7.312 19.4168 6.48087 18.9661 6.05503 18.2406C6.01283 18.1687 5.93918 18.1159 5.8517 18.0948C4.78414 17.8372 4.03855 16.9661 4.03855 15.9762C4.03855 15.8281 4.05521 15.6798 4.08804 15.5352C4.11849 15.4012 4.0409 15.2662 3.90145 15.2106C3.14159 14.9078 2.6506 14.2317 2.6506 13.4881C2.6506 13.1499 2.74845 12.8267 2.93518 12.5403C3.42079 12.9241 4.05747 13.1577 4.75422 13.1577C4.93387 13.1577 5.07952 13.0272 5.07952 12.8661C5.07952 12.705 4.93387 12.5745 4.75422 12.5745C3.59428 12.5745 2.6506 11.7287 2.6506 10.689C2.6506 10.1293 2.92611 9.60183 3.40652 9.24195C3.51495 9.1607 3.55247 9.02599 3.49934 8.90862C3.39663 8.68173 3.34458 8.44361 3.34458 8.20086C3.34458 7.16118 4.28826 6.31533 5.44819 6.31533C6.60813 6.31533 7.55181 7.16118 7.55181 8.20086C7.55181 8.36193 7.69746 8.49244 7.87711 8.49244C8.05676 8.49244 8.20241 8.36193 8.20241 8.20086C8.20241 6.89297 7.0616 5.81993 5.62511 5.73782C5.49491 5.54273 5.42651 5.3209 5.42651 5.09071C5.42651 4.57097 5.77853 4.12365 6.28001 3.92989C6.2994 3.92472 6.3184 3.91795 6.33674 3.9094C6.49211 3.85645 6.66035 3.82721 6.83614 3.82721C7.38079 3.82721 7.867 4.10017 8.10508 4.53963C8.18359 4.68453 8.37825 4.74494 8.53981 4.67454C8.70142 4.60421 8.76882 4.42977 8.69032 4.28491C8.41854 3.78328 7.90417 3.42274 7.31182 3.29503C8.14208 2.84095 8.95945 2.58315 9.61205 2.58315C10.198 2.58315 10.6747 3.01041 10.6747 3.53564V7.30868C10.3824 7.10084 10.0133 6.97624 9.61205 6.97624C9.4324 6.97624 9.28675 7.10675 9.28675 7.26782C9.28675 7.42889 9.4324 7.5594 9.61205 7.5594C10.198 7.5594 10.6747 7.98665 10.6747 8.51188V15.5206C10.2702 15.0528 9.70005 14.6998 9.02933 14.5383C8.85588 14.4967 8.67739 14.5887 8.63077 14.7442C8.58414 14.8998 8.68702 15.0597 8.86052 15.1015C9.92868 15.3587 10.6747 16.23 10.6747 17.2203C10.6747 18.4315 9.57535 19.4168 8.2241 19.4168ZM18.0986 15.2106C17.9591 15.2662 17.8815 15.4012 17.912 15.5353C17.9448 15.6798 17.9614 15.8282 17.9614 15.9763C17.9614 16.9661 17.2159 17.8373 16.1483 18.0948C16.0608 18.1159 15.9871 18.1687 15.945 18.2406C15.5191 18.9661 14.688 19.4168 13.7759 19.4168C12.4246 19.4168 11.3253 18.4315 11.3253 17.2203C11.3253 17.1383 11.3211 17.057 11.3131 16.9765C11.3208 16.9516 11.3253 16.9254 11.3253 16.8983V7.26782C11.3253 6.74259 11.802 6.31533 12.388 6.31533C12.5676 6.31533 12.7133 6.18483 12.7133 6.02376C12.7133 5.86269 12.5676 5.73218 12.388 5.73218C11.9867 5.73218 11.6176 5.85678 11.3253 6.06462V3.53564C11.3253 3.01041 11.802 2.58315 12.388 2.58315C13.0405 2.58315 13.8579 2.84095 14.6882 3.29503C14.0958 3.4227 13.5815 3.78328 13.3097 4.28491C13.2312 4.42981 13.2986 4.60425 13.4602 4.67454C13.6218 4.7449 13.8164 4.68453 13.8949 4.53963C14.133 4.10017 14.6192 3.82721 15.1639 3.82721C15.3396 3.82721 15.5079 3.85645 15.6633 3.9094C15.6816 3.91795 15.7006 3.92468 15.7199 3.92985C16.2214 4.12361 16.5735 4.57093 16.5735 5.09071C16.5735 5.3209 16.5051 5.54273 16.3749 5.73782C14.9384 5.81993 13.7976 6.89297 13.7976 8.20086C13.7976 8.36193 13.9432 8.49244 14.1229 8.49244C14.3025 8.49244 14.4482 8.36193 14.4482 8.20086C14.4482 7.16118 15.3919 6.31533 16.5518 6.31533C17.7117 6.31533 18.6554 7.16118 18.6554 8.20086C18.6554 8.44361 18.6034 8.68173 18.5007 8.90862C18.4476 9.02603 18.4851 9.1607 18.5935 9.24195C19.0739 9.60183 19.3494 10.1293 19.3494 10.689C19.3494 11.7287 18.4057 12.5745 17.2458 12.5745C17.0661 12.5745 16.9205 12.705 16.9205 12.8661C16.9205 13.0272 17.0661 13.1577 17.2458 13.1577C17.9425 13.1577 18.5792 12.9241 19.0648 12.5403C19.2516 12.8267 19.3494 13.1499 19.3494 13.4881C19.3494 14.2317 18.8584 14.9078 18.0986 15.2106Z" fill="#636363"/>
<path d="M16.5522 11.3308C15.8783 11.3308 15.3137 10.9047 15.1753 10.3374C16.5253 10.1794 17.5715 9.14263 17.5715 7.89021C17.5715 7.72914 17.4258 7.59863 17.2462 7.59863C17.0665 7.59863 16.9208 7.72914 16.9208 7.89021C16.9208 8.92989 15.9772 9.77574 14.8172 9.77574C14.2472 9.77574 13.7135 9.57471 13.3145 9.20965C13.1888 9.09465 12.9828 9.09275 12.8545 9.20545C12.7262 9.31816 12.724 9.50274 12.8498 9.61778C13.3009 10.0305 13.8838 10.2827 14.5151 10.3439C14.6645 11.2314 15.521 11.914 16.5522 11.914C16.7318 11.914 16.8775 11.7835 16.8775 11.6224C16.8775 11.4613 16.7318 11.3308 16.5522 11.3308Z" fill="#636363"/>
<path d="M15.5107 14.7518C15.3853 14.7518 15.2622 14.76 15.1412 14.7747C15.1415 14.7605 15.142 14.7464 15.142 14.7324C15.142 13.3711 13.9065 12.2637 12.3878 12.2637C12.2081 12.2637 12.0625 12.3942 12.0625 12.5552C12.0625 12.7163 12.2081 12.8468 12.3878 12.8468C13.5477 12.8468 14.4914 13.6927 14.4914 14.7324C14.4914 14.799 14.4875 14.8659 14.4797 14.9319C13.4705 15.2985 12.7565 16.1859 12.7565 17.2205C12.7565 17.3815 12.9021 17.5121 13.0818 17.5121C13.2614 17.5121 13.4071 17.3815 13.4071 17.2205C13.4071 16.1808 14.3508 15.3349 15.5107 15.3349C15.6903 15.3349 15.836 15.2044 15.836 15.0434C15.836 14.8823 15.6903 14.7518 15.5107 14.7518Z" fill="#636363"/>
</svg>
