<svg width="22" height="22" viewBox="0 0 22 22" fill="none" xmlns="http://www.w3.org/2000/svg">
<path d="M11.5993 21C11.4383 21 11.2978 20.8432 11.2978 20.665C11.2978 19.8003 13.8608 18.8642 14.9879 18.6837C16.592 18.4259 16.8753 18.167 16.8753 17.7191L16.8729 17.5778L16.7482 17.5742C15.5048 17.6312 14.2954 17.8213 13.1538 18.1396C11.8705 18.4972 11.4201 18.8072 11.2518 18.9236C10.5763 19.3893 10.0484 20.0236 9.6816 20.8088C9.63075 20.9169 9.51695 20.9869 9.39104 20.9869C9.34625 20.9869 9.30266 20.9786 9.2615 20.9608C9.18281 20.9275 9.12349 20.8681 9.09322 20.7921C9.06416 20.7197 9.0678 20.6401 9.10048 20.5688C9.51211 19.6862 10.1102 18.9711 10.8765 18.4425C11.5036 18.0102 12.3269 17.7476 12.9746 17.5671C14.0726 17.2618 15.2312 17.0682 16.4189 16.9945L16.5896 16.9838L16.523 16.8294C16.4722 16.7118 16.4479 16.5895 16.4479 16.4564C16.4479 16.3234 16.4879 16.207 16.6029 16.0205L16.7143 15.8399H15.0799L15.0605 15.935C14.9891 16.2842 14.6743 16.5372 14.3111 16.5372H11.5557C11.1344 16.5372 10.7918 16.201 10.7918 15.7877V15.3755C10.7918 14.9621 11.1344 14.6259 11.5557 14.6259H14.3111C14.661 14.6259 14.9649 14.8588 15.0521 15.1902L15.0751 15.2793H17.1199L17.2191 15.1522L17.2591 15.1023L16.9346 14.146L16.8717 14.1294C15.8596 13.8598 14.8208 13.6947 13.868 13.6507C13.6937 13.6424 13.5206 13.6388 13.3535 13.6388C11.6271 13.6388 10.2421 14.057 9.2385 14.8813C8.26755 15.6784 7.0569 17.3556 5.83051 19.6066C5.61743 19.9974 5.41283 20.3989 5.22397 20.7993C5.16949 20.9133 5.05327 20.9869 4.92615 20.9869C4.87772 20.9869 4.83172 20.9762 4.78693 20.956C4.62228 20.8788 4.55085 20.684 4.62833 20.5201C4.82324 20.1091 5.03269 19.6969 5.25182 19.2954C6.8753 16.3186 8.08838 14.9787 8.81961 14.3777C9.94552 13.4547 11.4709 12.9867 13.3559 12.9867C13.5327 12.9867 13.7155 12.9914 13.8995 12.9986C14.9758 13.0473 16.1864 13.2516 17.3099 13.5723L17.345 13.5818L17.3801 13.5711C17.6404 13.4927 18.0981 13.3086 18.1622 13.1209L18.1707 13.0972L18.1683 13.0722C18.1308 12.6779 17.0569 10.7191 16.3063 9.454C16.2663 9.38748 16.2542 9.30433 16.2736 9.22831C16.2918 9.1511 16.4528 8.44788 16.4528 7.19588C16.4528 6.01158 14.5993 1.60462 9.03874 1.60462C3.47821 1.60462 1.61743 5.94031 1.61743 8.03926C1.61743 9.94577 2.82688 12.0043 3.79782 13.6566C4.49879 14.8493 5.04964 15.7865 5.04964 16.4576C5.04964 18.0446 2.50242 20.7565 2.39346 20.8705C2.33414 20.9335 2.25424 20.9667 2.16707 20.9667C2.08838 20.9667 2.01453 20.9382 1.95884 20.8872C1.89709 20.8313 1.86199 20.7577 1.85835 20.6769C1.85472 20.5961 1.88378 20.5189 1.93947 20.4595C1.96489 20.4334 4.4322 17.7928 4.4322 16.4552C4.4322 15.9468 3.89104 15.0263 3.26513 13.9607C2.25545 12.2455 1 10.1097 1 8.03688C1 5.11475 3.49153 1 9.03027 1C14.569 1 17.0605 5.43191 17.0605 7.19469C17.0605 8.20556 16.96 8.88858 16.8995 9.20574L16.891 9.2485L16.9128 9.28651C18.0787 11.2667 18.776 12.6874 18.776 13.0865C18.776 13.6507 18.0956 13.9655 17.6913 14.1021L17.5775 14.1401L17.9019 15.0951C17.9092 15.1189 17.9153 15.1438 17.9165 15.1688L17.9249 15.2793H20.7143C20.8717 15.2793 21 15.4052 21 15.5596C21 15.714 20.8717 15.8387 20.7143 15.8387H17.4722L16.9782 16.4446L17.0278 16.517C17.0521 16.5515 17.0678 16.5764 17.0872 16.6061C17.1102 16.6417 17.1368 16.6833 17.1852 16.7534C17.3148 16.9423 17.4903 17.1988 17.4903 17.7179C17.4903 18.8939 16.1574 19.1066 15.0872 19.2788C13.7034 19.5009 12.0981 20.3134 11.914 20.6781L11.9019 20.703V20.7304C11.9019 20.8895 11.776 21 11.5993 21Z" fill="#636363"/>
</svg>
