<svg width="22" height="22" viewBox="0 0 22 22" fill="none" xmlns="http://www.w3.org/2000/svg">
<path d="M10.6528 12.3622C10.5574 12.1933 10.3419 12.1337 10.173 12.2291L9.55712 12.5778C9.36045 12.3731 9.10616 12.2251 8.82008 12.1596L8.82604 11.4364C8.82803 11.2417 8.67108 11.0828 8.47738 11.0818C8.28269 11.0798 8.12376 11.2368 8.12277 11.4305L8.11681 12.1735C7.84762 12.245 7.60922 12.391 7.42347 12.5887L6.76291 12.2003C6.59504 12.1019 6.37949 12.1576 6.28115 12.3254C6.18281 12.4933 6.23843 12.7089 6.40631 12.8072L7.07878 13.2026C7.04402 13.3277 7.02415 13.4578 7.02415 13.5939C7.02415 13.73 7.04402 13.8581 7.07779 13.9823L6.39339 14.3697C6.22453 14.4651 6.16493 14.6806 6.26029 14.8495C6.35565 15.0183 6.5712 15.0779 6.74006 14.9826L7.42148 14.5972C7.60227 14.7899 7.83272 14.9349 8.09396 15.0094L8.088 15.7753C8.08601 15.9699 8.24296 16.1289 8.43666 16.1299C8.63135 16.1319 8.79028 15.9749 8.79127 15.7812L8.79723 15.0352C9.07735 14.9766 9.32866 14.8376 9.52633 14.6439L10.1501 15.0114C10.318 15.1097 10.5336 15.0541 10.6319 14.8862C10.7302 14.7184 10.6746 14.5028 10.5067 14.4045L9.89585 14.0449C9.94154 13.9028 9.96737 13.7519 9.96737 13.5949C9.96737 13.4539 9.94651 13.3178 9.90876 13.1886L10.5197 12.842C10.6885 12.7466 10.7481 12.5311 10.6528 12.3622ZM8.49526 14.4055C8.04827 14.4055 7.68471 14.0419 7.68471 13.5949C7.68471 13.1479 8.04827 12.7844 8.49526 12.7844C8.94226 12.7844 9.30581 13.1479 9.30581 13.5949C9.30581 14.0419 8.94226 14.4055 8.49526 14.4055Z" fill="#636363"/>
<path d="M10.9995 2C6.03686 2 2 6.03686 2 10.9995C2 12.7011 2.47779 14.3579 3.38072 15.7913C3.47806 15.9463 3.68269 15.9919 3.83665 15.8946C3.99161 15.7973 4.0373 15.5926 3.93996 15.4387C3.10358 14.1116 2.66155 12.5759 2.66155 10.9995C2.66155 6.40141 6.40241 2.66056 11.0005 2.66056C15.5986 2.66056 19.3394 6.40141 19.3394 10.9995C19.3394 15.5976 15.5986 19.3384 11.0005 19.3384C8.49037 19.3384 6.13818 18.2239 4.54589 16.279C4.43066 16.138 4.22206 16.1171 4.08002 16.2323C3.93897 16.3476 3.91811 16.5562 4.03333 16.6982C5.75178 18.7961 8.29071 20 10.9995 20C15.9621 20 20 15.9621 20 10.9995C20 6.03686 15.9621 2 10.9995 2Z" fill="#636363"/>
<path d="M17.1107 7.32129C17.2627 7.21997 17.3034 7.01435 17.2021 6.86238C15.8134 4.78534 13.495 3.54468 10.9998 3.54468C6.88944 3.54468 3.54492 6.8892 3.54492 10.9996C3.54492 15.1099 6.88944 18.4545 10.9998 18.4545C15.1102 18.4545 18.4547 15.1099 18.4547 10.9996C18.4547 9.93969 18.2362 8.91458 17.8061 7.95503C17.7316 7.78815 17.5359 7.71365 17.369 7.78815C17.2021 7.86265 17.1276 8.05834 17.2021 8.22521C17.5935 9.09934 17.7921 10.0331 17.7921 10.9996C17.7921 14.7454 14.7446 17.7929 10.9988 17.7929C7.253 17.7929 4.20647 14.7454 4.20647 10.9996C4.20647 7.25375 7.25399 4.20623 10.9998 4.20623C13.2735 4.20623 15.3863 5.33663 16.6518 7.2299C16.7531 7.38188 16.9588 7.42261 17.1107 7.32129Z" fill="#636363"/>
<path d="M7.0961 8.25415C6.44448 8.25415 5.91504 8.78359 5.91504 9.43521C5.91504 10.0868 6.44448 10.6163 7.0961 10.6163C7.74772 10.6163 8.27716 10.0868 8.27716 9.43521C8.27716 8.78359 7.74772 8.25415 7.0961 8.25415ZM7.0961 9.95472C6.81002 9.95472 6.57659 9.72129 6.57659 9.43521C6.57659 9.14913 6.81002 8.9157 7.0961 8.9157C7.38218 8.9157 7.61561 9.14913 7.61561 9.43521C7.61561 9.72129 7.38218 9.95472 7.0961 9.95472Z" fill="#636363"/>
<path d="M14.2335 14.5706C15.1633 14.5706 15.9202 13.8137 15.9202 12.8839C15.9202 11.9542 15.1633 11.1973 14.2335 11.1973C13.3038 11.1973 12.5469 11.9542 12.5469 12.8839C12.5469 13.8137 13.3038 14.5706 14.2335 14.5706ZM14.2335 11.8588C14.7987 11.8588 15.2586 12.3187 15.2586 12.8839C15.2586 13.4491 14.7987 13.909 14.2335 13.909C13.6683 13.909 13.2084 13.4491 13.2084 12.8839C13.2084 12.3187 13.6683 11.8588 14.2335 11.8588Z" fill="#636363"/>
<path d="M15.5903 8.61764C15.5903 8.43487 15.4423 8.28687 15.2595 8.28687C15.0767 8.28687 14.9287 8.43487 14.9287 8.61764C14.9287 8.80041 15.0767 8.94842 15.2595 8.94842C15.4423 8.94842 15.5903 8.80041 15.5903 8.61764Z" fill="#636363"/>
<path d="M11.4893 15.3642C11.4893 15.547 11.6373 15.695 11.82 15.695C12.0028 15.695 12.1508 15.547 12.1508 15.3642C12.1508 15.1815 12.0028 15.0334 11.82 15.0334C11.6373 15.0334 11.4893 15.1815 11.4893 15.3642Z" fill="#636363"/>
<path d="M10.4314 10.1084C10.2486 10.1084 10.1006 10.2564 10.1006 10.4392C10.1006 10.6219 10.2486 10.77 10.4314 10.77C10.6141 10.77 10.7621 10.6219 10.7621 10.4392C10.7621 10.2564 10.6141 10.1084 10.4314 10.1084Z" fill="#636363"/>
<path d="M14.5122 7.42253C14.6314 7.14539 14.6364 6.83945 14.5261 6.56132C14.4159 6.28219 14.2023 6.06366 13.9252 5.94446C13.648 5.82526 13.3421 5.8203 13.064 5.93056L10.6641 6.88415C10.386 6.99441 10.1664 7.20797 10.0472 7.48511C9.92805 7.76224 9.92308 8.06819 10.0333 8.34632C10.1436 8.62544 10.3572 8.84397 10.6343 8.96317C10.7783 9.02476 10.9303 9.05654 11.0813 9.05654C11.2214 9.05654 11.3614 9.02972 11.4955 8.97708L13.8954 8.02349C14.1735 7.91323 14.393 7.69966 14.5122 7.42253ZM13.6868 7.50001L11.2869 8.4536C11.1478 8.50823 10.9949 8.50624 10.8568 8.44664C10.7187 8.38704 10.6115 8.27778 10.5558 8.13871C10.5012 7.99965 10.5032 7.84668 10.5628 7.7086C10.6224 7.56954 10.7316 7.46325 10.8707 7.40763L13.2706 6.45404C13.3371 6.42722 13.4067 6.41431 13.4762 6.41431C13.5517 6.41431 13.6282 6.4302 13.7007 6.46099C13.8398 6.52059 13.946 6.62986 14.0017 6.76892C14.0563 6.90799 14.0543 7.06096 13.9947 7.19903C13.9351 7.3381 13.8258 7.44438 13.6868 7.50001Z" fill="#636363"/>
<path d="M8.83929 6.25827C8.83929 6.0755 8.69128 5.92749 8.50851 5.92749C8.32574 5.92749 8.17773 6.0755 8.17773 6.25827C8.17773 6.44104 8.32574 6.58904 8.50851 6.58904C8.69128 6.58904 8.83929 6.44104 8.83929 6.25827Z" fill="#636363"/>
</svg>
