<svg width="22" height="22" viewBox="0 0 22 22" fill="none" xmlns="http://www.w3.org/2000/svg">
<path d="M11.1795 20.999C10.8102 20.999 10.4379 20.8496 10.1804 20.5595C9.74979 20.0743 9.53013 19.4979 9.52818 18.8458C9.52721 18.3587 9.52818 17.8716 9.52915 17.3835C9.5311 16.5703 9.53401 15.73 9.52235 14.9032C9.50583 13.6786 10.1872 12.8878 11.4429 12.6763C11.9891 12.5841 12.5713 12.6239 13.0738 12.6695C13.588 12.7151 14.038 13.0091 14.4112 13.5418C14.4287 13.5661 14.4394 13.5797 14.4462 13.5855C14.452 13.5826 14.4608 13.5787 14.4734 13.5709C15.0148 13.2274 15.5756 13.1779 16.1442 13.4205C15.8837 12.7976 16.0451 12.2241 16.6302 11.6768C16.6078 11.6506 16.5845 11.6244 16.5621 11.5982C16.4513 11.4691 16.3366 11.3362 16.2385 11.1936C15.8827 10.6725 15.9002 10.1786 16.2939 9.68077C16.3075 9.66428 16.3172 9.65069 16.323 9.64099C16.3191 9.6371 16.3143 9.63128 16.3075 9.62449C15.702 9.03063 15.6757 8.36788 16.2297 7.709C16.3308 7.58868 16.3327 7.57024 16.2482 7.46835C16.0217 7.19374 15.9177 6.87741 15.943 6.54263C15.5814 6.81724 15.215 6.87352 14.834 6.71342C14.5162 7.23353 13.9602 7.28302 13.5063 7.32377C13.2352 7.34803 13.0524 7.38684 12.8649 7.52464C12.0338 8.13499 11.1698 8.10006 10.365 7.42372C10.3048 7.37326 10.2941 7.37908 10.2503 7.40528C9.39405 7.9186 8.30937 7.78275 7.61249 7.07439C7.57458 7.03557 7.55417 7.02393 7.47836 7.05013C7.02932 7.20151 6.55501 7.21315 6.0671 7.08312C6.04572 7.0773 6.02239 7.07342 5.99809 7.07051C5.99615 7.12388 5.99518 7.17531 5.99712 7.22576C6.00004 7.22965 6.00295 7.23256 6.00684 7.23547C6.01559 7.24517 6.02531 7.25585 6.03308 7.26555C6.45296 7.80022 6.4656 8.32809 6.07099 8.87731C6.53752 9.0578 6.65707 9.48088 6.70761 9.84379C6.75329 10.1737 6.76593 10.6405 6.39853 10.9995C6.85243 11.3585 7.06042 11.865 7.01377 12.4987C6.9399 13.502 6.44907 14.225 5.55586 14.6451C5.40035 14.7179 5.22831 14.7713 5.05823 14.7975C4.99991 14.8062 4.97172 14.8217 4.96395 14.8314C4.962 14.8343 4.95034 14.8547 4.96395 14.9217C4.97853 14.9993 4.99116 15.0769 5.00477 15.1546C5.03295 15.3263 5.06017 15.4884 5.10488 15.6465C5.30413 16.3433 5.34398 17.1147 5.23123 18.0734C5.20985 18.2519 5.15056 18.4383 5.05725 18.6129C4.94062 18.8322 4.73554 18.9593 4.50033 18.9613C4.2729 18.9593 4.07268 18.8303 3.96285 18.6158C3.86565 18.4256 3.79665 18.1879 3.76457 17.9288C3.72667 17.629 3.71306 17.3039 3.72181 16.9643C3.73153 16.5946 3.65085 16.2443 3.56435 15.8726C3.53325 15.7368 3.5002 15.597 3.47299 15.4573C3.46521 15.4185 3.45744 15.3787 3.44869 15.3399C3.4137 15.173 3.37871 15.0003 3.37774 14.8237C3.37774 14.7286 3.36219 14.7111 3.25139 14.6771C2.69446 14.5073 2.31832 14.1813 2.13268 13.7078C1.93732 13.2071 1.99564 12.6928 2.06853 12.3007C2.15406 11.8398 2.33873 11.4255 2.61671 11.0694C2.66531 11.0073 2.66239 11.0005 2.61282 10.9461C2.37275 10.6783 2.25515 10.4221 2.24446 10.1388C2.22307 9.59732 2.56422 9.26643 2.88594 8.99958C2.91315 8.97726 2.94037 8.95591 2.96952 8.9336C2.91607 8.86567 2.8665 8.80163 2.82082 8.73661C2.45731 8.22329 2.50105 7.71677 2.94717 7.27331C2.9598 7.2607 2.97341 7.24905 2.98702 7.23741H2.98896C2.59338 6.72506 2.73043 6.1933 2.89566 5.78478L2.90635 5.75858C2.94717 5.65864 2.98216 5.57227 2.97633 5.5451C2.9705 5.51502 2.87913 5.43351 2.8247 5.38499C2.2153 4.84062 2.2464 3.90035 2.59241 3.25215C2.99965 2.48847 3.6771 1.99553 4.60627 1.78691C5.58599 1.5676 6.42186 1.65979 7.16248 2.06831C7.86325 2.45548 8.26757 3.10077 8.36574 3.98671C8.63788 3.87512 8.94405 3.84407 9.29589 3.89258C9.51846 3.92266 9.75853 4.00126 10.0083 4.12547C10.2299 4.23609 10.3368 4.43113 10.3932 4.62035C11.0998 3.93722 11.9065 3.84407 12.6676 4.3603C12.6695 4.36224 12.6714 4.36321 12.6734 4.36418C12.6763 4.35933 12.6802 4.35447 12.6841 4.34768C12.791 4.17302 12.9125 3.97506 13.068 3.80913C13.4927 3.35306 14.0331 3.27738 14.5881 3.59565C14.627 3.61797 14.6649 3.64029 14.7057 3.66552L14.7261 3.61991C15.0731 2.83101 15.6028 2.42055 16.3483 2.36524C16.3687 2.35262 16.4086 2.30896 16.4251 2.26917C16.6282 1.80243 16.8897 1.47348 17.2269 1.26388C17.3912 1.162 17.5778 1.08631 17.7819 1.0407C17.8597 1.02323 18.0686 0.98442 18.3398 1.00674C18.5099 1.02032 18.9599 1.05623 19.337 1.35024C19.7248 1.653 19.8483 2.05667 19.9124 2.37397C20.1641 3.61409 19.8726 4.6679 19.0474 5.50726C19.0007 5.55481 18.9988 5.55675 19.0386 5.6237C19.2427 5.97206 19.3419 6.31751 19.3438 6.68236C19.3448 7.01908 19.2447 7.30728 19.0445 7.53919C19.0163 7.57121 19.0114 7.58577 19.0104 7.58868C19.0104 7.58868 19.0153 7.60129 19.0367 7.62749C19.5625 8.28928 19.5586 9.05101 19.025 9.61576C19.0221 9.61964 19.0192 9.62255 19.0172 9.62449C19.0221 9.63031 19.0289 9.63905 19.0396 9.64972C19.2058 9.82438 19.3535 9.98352 19.476 10.1698C19.7987 10.6628 19.7695 11.1683 19.3905 11.6322C19.373 11.6535 19.3642 11.6671 19.3603 11.6739C19.3642 11.6797 19.372 11.6904 19.3866 11.7049C19.9853 12.3056 20.0047 12.9878 19.442 13.6233C19.3603 13.7155 19.3428 13.7883 19.3652 13.9474C19.406 14.2521 19.443 14.6092 19.4041 14.9537C19.3438 15.4796 18.9463 15.8396 18.3903 15.8697C18.2834 15.8755 18.2727 15.8882 18.2494 15.9735C18.1406 16.3588 17.8587 16.6305 17.434 16.7586C17.2687 16.8081 17.0986 16.8333 16.9334 16.8575C16.8323 16.8721 16.7283 16.8876 16.6282 16.909C16.5475 16.9255 16.4669 16.9604 16.4066 17.0041C15.7768 17.4563 15.1868 17.5504 14.6037 17.2923C14.4365 17.2185 14.2926 17.106 14.1537 16.9973L14.142 16.9885C14.0914 16.9497 14.0817 16.9439 14.003 16.972C13.7445 17.0642 13.4023 17.1748 13.0515 17.2224L12.9786 17.2321C12.9251 17.2389 12.8649 17.2467 12.8376 17.2544C12.8308 17.2903 12.8308 17.3786 12.8308 17.4514C12.8308 17.5979 12.8318 17.7444 12.8338 17.8919C12.8367 18.218 12.8396 18.5547 12.8279 18.8866C12.7997 19.6628 12.5218 20.2771 12.0018 20.7118C11.7705 20.9059 11.4779 21 11.1844 21L11.1795 20.999ZM12.1806 12.8965C11.9483 12.8965 11.7141 12.9101 11.4896 12.948C10.7081 13.0799 9.77992 13.5253 9.79935 14.8994C9.81102 15.728 9.8081 16.5703 9.80616 17.3844C9.80519 17.8716 9.80324 18.3577 9.80519 18.8448C9.80713 19.428 10.0025 19.9433 10.3884 20.377C10.7528 20.7885 11.4099 20.8447 11.822 20.4993C12.2856 20.1112 12.5237 19.5804 12.549 18.8749C12.5606 18.5489 12.5577 18.2151 12.5548 17.8919C12.5538 17.7444 12.5519 17.597 12.5519 17.4495C12.5519 17.0846 12.5859 17.0021 12.9407 16.9575L13.0116 16.9488C13.3382 16.9051 13.6618 16.7993 13.9078 16.712C14.0701 16.6538 14.1789 16.6703 14.3092 16.7712L14.3208 16.7799C14.4472 16.8779 14.5774 16.9798 14.7135 17.04C15.2063 17.2583 15.6922 17.1758 16.2433 16.7799C16.3347 16.7139 16.4513 16.6644 16.5689 16.6392C16.6758 16.6169 16.7847 16.6004 16.8897 16.5849C17.052 16.5606 17.2046 16.5383 17.3513 16.4946C17.6867 16.3937 17.8985 16.1938 17.9812 15.8988C18.0385 15.6951 18.1522 15.6067 18.3728 15.5951C18.7937 15.5718 19.0833 15.3147 19.128 14.9226C19.164 14.6083 19.128 14.2725 19.0901 13.9843C19.0629 13.7864 19.0775 13.6175 19.234 13.4409C19.6995 12.915 19.684 12.3958 19.1893 11.898C19.0046 11.7127 19.0931 11.5574 19.1747 11.4575C19.4789 11.0859 19.5013 10.7132 19.2437 10.3202C19.1339 10.1533 18.9949 10.0039 18.8384 9.83894C18.7033 9.69727 18.6984 9.55851 18.8229 9.42557C19.2554 8.96756 19.2544 8.34362 18.8199 7.79731C18.6635 7.60129 18.7539 7.45283 18.8355 7.3587C18.9929 7.17628 19.0697 6.95503 19.0688 6.68236C19.0678 6.36797 18.9803 6.06619 18.8015 5.76149C18.7334 5.64602 18.678 5.48979 18.852 5.31319C19.6199 4.53205 19.8794 3.58789 19.6432 2.42734C19.5878 2.15564 19.4848 1.81214 19.1679 1.56469C18.8569 1.32113 18.4662 1.29008 18.3194 1.27844C18.0861 1.26 17.9092 1.29202 17.8441 1.30658C17.6701 1.34636 17.5117 1.40944 17.3737 1.49483C17.086 1.67337 16.8595 1.96157 16.6797 2.37591C16.6379 2.47101 16.5203 2.62627 16.3794 2.63597C15.7331 2.68061 15.2879 3.02702 14.9808 3.72762L14.8962 3.91684C14.8807 3.95275 14.8496 3.97992 14.8117 3.99253C14.7738 4.00417 14.7329 3.99932 14.6989 3.97895L14.6066 3.92363C14.5512 3.88967 14.5026 3.86056 14.452 3.83145C14.0069 3.57625 13.6094 3.63059 13.2711 3.9935C13.1351 4.14002 13.0213 4.32536 12.9203 4.48838C12.8824 4.54952 12.8279 4.62326 12.7346 4.64267C12.6423 4.66305 12.5645 4.61938 12.513 4.58445C11.6791 4.01873 10.99 4.41075 10.5584 4.83965C10.5264 4.87167 10.4933 4.89787 10.4554 4.92893C10.4369 4.94348 10.4175 4.95998 10.3952 4.97841C10.3572 5.01044 10.3038 5.01917 10.2571 5.0017C10.2105 4.98424 10.1774 4.94251 10.1697 4.89302C10.1288 4.60774 10.0404 4.44666 9.88391 4.36806C9.66134 4.25744 9.45043 4.18757 9.25798 4.16137C8.88476 4.11091 8.58832 4.15749 8.32395 4.30887C8.28507 4.33119 8.23647 4.33313 8.19565 4.31372C8.15483 4.29431 8.12567 4.2555 8.11887 4.21086L8.10915 4.15167C8.10332 4.11577 8.09846 4.0886 8.09651 4.0624C8.01779 3.23274 7.66886 2.65829 7.02932 2.30508C6.34994 1.93052 5.57724 1.84707 4.66653 2.05181C3.80734 2.24394 3.20862 2.67867 2.8354 3.37829C2.5409 3.9314 2.50494 4.72709 3.0084 5.17637C3.30096 5.43739 3.29998 5.5189 3.16197 5.85853L3.15128 5.88473C2.94231 6.40096 2.96175 6.75805 3.21834 7.07827C3.31942 7.20442 3.30193 7.32668 3.16586 7.44312C3.15808 7.44992 3.14933 7.45671 3.14156 7.46447C2.7936 7.81089 2.7625 8.1738 3.04533 8.57456C3.09102 8.63958 3.13961 8.70168 3.1921 8.76863C3.21834 8.8026 3.24555 8.83753 3.27374 8.87343C3.2961 8.90254 3.30581 8.93942 3.30096 8.97532C3.2961 9.01122 3.27666 9.04422 3.2475 9.06653C3.22417 9.084 3.20085 9.1005 3.17946 9.11699C3.13767 9.14804 3.09879 9.17618 3.06186 9.20724C2.71585 9.49543 2.50396 9.7487 2.51854 10.1242C2.52729 10.3406 2.62157 10.5415 2.81693 10.7588C2.95592 10.9141 2.96175 11.0703 2.83248 11.2353C2.58172 11.5555 2.41552 11.9301 2.33776 12.3473C2.26778 12.7258 2.21821 13.1702 2.38733 13.6039C2.54187 14.0008 2.85095 14.2647 3.32914 14.4103C3.48757 14.4588 3.64891 14.5442 3.65085 14.8188C3.65085 14.9683 3.68293 15.1196 3.71597 15.2807C3.72472 15.3215 3.7325 15.3612 3.74027 15.402C3.76652 15.5369 3.79859 15.6747 3.82969 15.8086C3.91619 16.1802 4.00561 16.5645 3.99395 16.9701C3.9852 17.2961 3.99881 17.6067 4.03477 17.8929C4.06296 18.1209 4.12225 18.3267 4.20486 18.4897C4.26804 18.6129 4.37495 18.6847 4.49936 18.6857C4.63057 18.6857 4.74332 18.611 4.81038 18.4839C4.88619 18.3412 4.93673 18.184 4.95423 18.0414C5.06211 17.1205 5.02518 16.383 4.83662 15.7222C4.78705 15.5495 4.7579 15.3719 4.72971 15.1992C4.71707 15.1235 4.70444 15.0478 4.69083 14.9731C4.6675 14.8489 4.68208 14.7509 4.73748 14.6733C4.79289 14.5947 4.88425 14.5461 5.01449 14.5258C5.15931 14.5035 5.3051 14.4588 5.43631 14.3967C6.2333 14.0212 6.67068 13.3759 6.73677 12.4783C6.77759 11.9194 6.59875 11.4973 6.19054 11.1877C6.15166 11.1577 6.12833 11.1208 6.11084 11.0907C6.10501 11.082 6.09917 11.0723 6.09237 11.0626C6.04961 11.0024 6.06224 10.9199 6.12056 10.8743C6.40534 10.655 6.49864 10.3581 6.43255 9.88164C6.37618 9.47117 6.24983 9.1791 5.82217 9.09079C5.77746 9.08109 5.73956 9.05004 5.72206 9.00831C5.70457 8.96562 5.70943 8.91807 5.7347 8.87926L5.77649 8.81618C5.80176 8.77834 5.82314 8.74632 5.84453 8.71526C6.1711 8.26017 6.16138 7.87591 5.81342 7.43245C5.80954 7.42663 5.8037 7.42178 5.79884 7.41595C5.76969 7.38296 5.724 7.3325 5.72109 7.25973C5.7172 7.17239 5.72109 7.08603 5.72303 7.00258C5.724 6.9725 5.72498 6.94145 5.72595 6.91137C5.72692 6.87255 5.74442 6.83568 5.77455 6.81045C5.80468 6.78522 5.84355 6.77358 5.88146 6.77843C5.90479 6.78134 5.92811 6.78328 5.95241 6.78619C6.0117 6.79201 6.07293 6.79784 6.13611 6.81433C6.57057 6.92981 6.99142 6.92107 7.38797 6.78716C7.55611 6.72991 7.68927 6.75999 7.80688 6.87935C8.41434 7.49649 9.36004 7.61488 10.1065 7.16754C10.3067 7.04722 10.4496 7.13455 10.54 7.21121C11.2456 7.80507 11.9726 7.83515 12.6987 7.30145C12.9621 7.10738 13.2186 7.07051 13.4791 7.04722C13.9602 7.00452 14.4141 6.96377 14.6474 6.4718C14.6639 6.43783 14.6931 6.41163 14.729 6.39999C14.765 6.38835 14.8039 6.39126 14.8369 6.40969C15.25 6.63093 15.5989 6.54069 16.0062 6.10888C16.0441 6.0691 16.1014 6.05551 16.1529 6.07395C16.2044 6.09239 16.2404 6.13993 16.2443 6.19427C16.2462 6.22144 16.2482 6.24182 16.2501 6.25735C16.254 6.29131 16.2579 6.3243 16.2482 6.36215C16.1607 6.70468 16.2317 7.01714 16.4581 7.29272C16.6545 7.53143 16.5923 7.70221 16.4377 7.88561C15.978 8.43192 15.9974 8.93651 16.498 9.42848C16.6914 9.61867 16.567 9.77587 16.5077 9.85155C16.1899 10.2523 16.1763 10.6191 16.463 11.0383C16.5524 11.1693 16.6574 11.2906 16.7682 11.4187C16.8207 11.4788 16.8731 11.54 16.9247 11.6031C16.9723 11.6603 16.9645 11.7457 16.9081 11.7942C16.219 12.3871 16.117 12.9586 16.5777 13.6486C16.6117 13.699 16.6078 13.766 16.5689 13.8126C16.53 13.8591 16.4649 13.8747 16.4086 13.8514C16.3794 13.8388 16.357 13.83 16.3376 13.8223C16.3007 13.8077 16.2744 13.797 16.2472 13.7805C15.6835 13.4574 15.1509 13.4652 14.6173 13.8029C14.3665 13.962 14.2275 13.764 14.1818 13.699C13.8523 13.2294 13.4801 12.9819 13.0456 12.9431C12.7725 12.9189 12.4751 12.8956 12.1758 12.8956L12.1806 12.8965Z" fill="#636363"/>
<path d="M19.339 13.6292C19.2612 13.7194 19.2272 13.8029 19.2204 13.8999C19.0999 14.0066 18.9599 14.1095 18.7995 14.1949C18.7995 14.1949 18.5517 14.322 18.2601 14.3763C17.8422 14.453 17.1812 14.3191 16.5106 13.9106C16.463 13.8805 16.3823 13.8203 16.3162 13.7165C16.2404 13.5971 16.2239 13.4826 16.219 13.4254C16.1782 13.2818 16.1403 13.0712 16.1724 12.8238C16.253 12.2037 16.7079 11.8388 16.8236 11.7515C16.6613 11.5507 16.4921 11.3702 16.3551 11.1664C16.0314 10.6832 16.0519 10.2455 16.4047 9.79042C16.4737 9.70115 16.5057 9.64487 16.4076 9.54589C15.8565 8.99473 15.8293 8.3999 16.3386 7.78372C16.4678 7.62749 16.497 7.53143 16.358 7.35967C16.1082 7.0511 16.0208 6.68624 16.1199 6.28646C16.1238 6.26899 16.1432 6.21174 16.115 6.17778C16.0868 6.14284 16.0334 6.16128 16.0246 6.1477C15.9877 6.09239 16.5903 5.32386 17.4826 5.17831C18.1046 5.07642 18.6256 5.31804 18.8802 5.46262C18.8656 5.51696 18.8812 5.57033 18.921 5.63923C19.0999 5.94974 19.2058 6.28355 19.2068 6.6484C19.2087 6.94339 19.13 7.20636 18.9414 7.42954C18.8627 7.52269 18.8442 7.58965 18.9288 7.69833C19.3827 8.27957 19.4323 8.99279 18.9249 9.54104C18.8433 9.62934 18.8617 9.68562 18.9395 9.76907C19.0901 9.92918 19.2418 10.0941 19.3603 10.2795C19.6529 10.7336 19.6218 11.1819 19.2836 11.604C19.2039 11.703 19.1903 11.7651 19.2884 11.866C19.8317 12.422 19.8512 13.0392 19.339 13.6292Z" fill="#636363"/>
<path d="M18.3194 1.27844C18.4662 1.29008 18.8569 1.32113 19.1679 1.56469C19.4848 1.81214 19.5878 2.15564 19.6432 2.42734C19.8794 3.58789 19.6199 4.53205 18.852 5.31319C18.678 5.48979 18.7334 5.64602 18.8015 5.76149C18.9803 6.06619 19.0678 6.36797 19.0688 6.68236C19.0697 6.95503 18.9929 7.17628 18.8355 7.3587C18.7539 7.45283 18.6635 7.60129 18.8199 7.79731C19.2544 8.34362 19.2554 8.96756 18.8229 9.42557C18.6984 9.55851 18.7033 9.69727 18.8384 9.83894C18.9949 10.0039 19.1339 10.1533 19.2437 10.3202C19.5013 10.7132 19.4789 11.0859 19.1747 11.4575C19.0931 11.5574 19.0046 11.7127 19.1893 11.898C19.684 12.3958 19.6995 12.915 19.234 13.4409C19.0775 13.6175 19.0629 13.7864 19.0901 13.9843C19.128 14.2725 19.164 14.6083 19.128 14.9226C19.0833 15.3147 18.7937 15.5718 18.3728 15.5951C18.1522 15.6067 18.0385 15.6951 17.9812 15.8988C17.8985 16.1938 17.6867 16.3937 17.3513 16.4946C17.2046 16.5383 17.052 16.5606 16.8897 16.5849C16.7847 16.6004 16.6758 16.6169 16.5689 16.6392C16.4513 16.6644 16.3347 16.7139 16.2433 16.7799C15.6922 17.1758 15.2063 17.2583 14.7135 17.04C14.5774 16.9798 14.4472 16.8779 14.3208 16.7799L14.3092 16.7712C14.1789 16.6703 14.0701 16.6538 13.9078 16.712C13.6618 16.7993 13.3382 16.9051 13.0116 16.9488L12.9407 16.9575C12.5859 17.0021 12.5519 17.0846 12.5519 17.4495C12.5519 17.597 12.5538 17.7444 12.5548 17.8919C12.5577 18.2151 12.5606 18.5489 12.549 18.8749C12.5237 19.5804 12.2856 20.1112 11.822 20.4993C11.4099 20.8447 10.7528 20.7885 10.3884 20.377C10.0025 19.9433 9.80713 19.428 9.80519 18.8448C9.80324 18.3577 9.80519 17.8716 9.80616 17.3844C9.8081 16.5703 9.81102 15.728 9.79935 14.8994C9.77992 13.5253 10.7081 13.0799 11.4896 12.948C11.7141 12.9101 11.9483 12.8965 12.1806 12.8965L12.1758 12.8956C12.4751 12.8956 12.7725 12.9189 13.0456 12.9431C13.4801 12.9819 13.8523 13.2294 14.1818 13.699C14.2275 13.764 14.3665 13.962 14.6173 13.8029C15.1509 13.4652 15.6835 13.4574 16.2472 13.7805C16.2744 13.797 16.3007 13.8077 16.3376 13.8223C16.357 13.83 16.3794 13.8388 16.4086 13.8514C16.4649 13.8747 16.53 13.8591 16.5689 13.8126C16.6078 13.766 16.6117 13.699 16.5777 13.6486C16.117 12.9586 16.219 12.3871 16.9081 11.7942C16.9645 11.7457 16.9723 11.6603 16.9247 11.6031C16.8731 11.54 16.8207 11.4788 16.7682 11.4187C16.6574 11.2906 16.5524 11.1693 16.463 11.0383C16.1763 10.6191 16.1899 10.2523 16.5077 9.85155C16.567 9.77587 16.6914 9.61867 16.498 9.42848C15.9974 8.93651 15.978 8.43192 16.4377 7.88561C16.5923 7.70221 16.6545 7.53143 16.4581 7.29272C16.2317 7.01714 16.1607 6.70468 16.2482 6.36215C16.2579 6.3243 16.254 6.29131 16.2501 6.25735C16.2482 6.24182 16.2462 6.22144 16.2443 6.19427C16.2404 6.13993 16.2044 6.09239 16.1529 6.07395C16.1014 6.05551 16.0441 6.0691 16.0062 6.10888C15.5989 6.54069 15.25 6.63093 14.8369 6.40969C14.8039 6.39126 14.765 6.38835 14.729 6.39999C14.6931 6.41163 14.6639 6.43783 14.6474 6.4718C14.4141 6.96377 13.9602 7.00452 13.4791 7.04722C13.2186 7.07051 12.9621 7.10738 12.6987 7.30145C11.9726 7.83515 11.2456 7.80507 10.54 7.21121C10.4496 7.13455 10.3067 7.04722 10.1065 7.16754C9.36004 7.61488 8.41434 7.49649 7.80688 6.87935C7.68927 6.75999 7.55611 6.72991 7.38797 6.78716C6.99142 6.92107 6.57057 6.92981 6.13611 6.81433C6.07293 6.79784 6.0117 6.79201 5.95241 6.78619C5.92811 6.78328 5.90479 6.78134 5.88146 6.77843C5.84355 6.77358 5.80468 6.78522 5.77455 6.81045C5.74442 6.83568 5.72692 6.87255 5.72595 6.91137C5.72498 6.94145 5.724 6.9725 5.72303 7.00258C5.72109 7.08603 5.7172 7.17239 5.72109 7.25973C5.724 7.3325 5.76969 7.38296 5.79884 7.41595C5.8037 7.42178 5.80954 7.42663 5.81342 7.43245C6.16138 7.87591 6.1711 8.26017 5.84453 8.71526C5.82314 8.74632 5.80176 8.77834 5.77649 8.81618L5.7347 8.87926C5.70943 8.91807 5.70457 8.96562 5.72206 9.00831C5.73956 9.05004 5.77746 9.08109 5.82217 9.09079C6.24983 9.1791 6.37618 9.47117 6.43255 9.88164C6.49864 10.3581 6.40534 10.655 6.12056 10.8743C6.06224 10.9199 6.04961 11.0024 6.09237 11.0626C6.09917 11.0723 6.10501 11.082 6.11084 11.0907C6.12833 11.1208 6.15166 11.1577 6.19054 11.1877C6.59875 11.4973 6.77759 11.9194 6.73677 12.4783C6.67068 13.3759 6.2333 14.0212 5.43631 14.3967C5.3051 14.4588 5.15931 14.5035 5.01449 14.5258C4.88425 14.5461 4.79289 14.5947 4.73748 14.6733C4.68208 14.7509 4.6675 14.8489 4.69083 14.9731C4.70444 15.0478 4.71707 15.1235 4.72971 15.1992C4.7579 15.3719 4.78705 15.5495 4.83662 15.7222C5.02518 16.383 5.06211 17.1205 4.95423 18.0414C4.93673 18.184 4.88619 18.3412 4.81038 18.4839C4.74332 18.611 4.63057 18.6857 4.49936 18.6857C4.37495 18.6847 4.26804 18.6129 4.20486 18.4897C4.12225 18.3267 4.06296 18.1209 4.03477 17.8929C3.99881 17.6067 3.9852 17.2961 3.99395 16.9701C4.00561 16.5645 3.91619 16.1802 3.82969 15.8086C3.79859 15.6747 3.76652 15.5369 3.74027 15.402C3.7325 15.3612 3.72472 15.3215 3.71597 15.2807C3.68293 15.1196 3.65085 14.9683 3.65085 14.8188C3.64891 14.5442 3.48757 14.4588 3.32914 14.4103C2.85095 14.2647 2.54187 14.0008 2.38733 13.6039C2.21821 13.1702 2.26778 12.7258 2.33776 12.3473C2.41552 11.9301 2.58172 11.5555 2.83248 11.2353C2.96175 11.0703 2.95592 10.9141 2.81693 10.7588C2.62157 10.5415 2.52729 10.3406 2.51854 10.1242C2.50396 9.7487 2.71585 9.49543 3.06186 9.20724C3.09879 9.17618 3.13767 9.14804 3.17946 9.11699C3.20085 9.1005 3.22417 9.084 3.2475 9.06653C3.27666 9.04422 3.2961 9.01122 3.30096 8.97532C3.30581 8.93942 3.2961 8.90254 3.27374 8.87343C3.24555 8.83753 3.21834 8.8026 3.1921 8.76863C3.13961 8.70168 3.09102 8.63958 3.04533 8.57456C2.7625 8.1738 2.7936 7.81089 3.14156 7.46447C3.14933 7.45671 3.15808 7.44992 3.16586 7.44312C3.30193 7.32668 3.31942 7.20442 3.21834 7.07827C2.96175 6.75805 2.94231 6.40096 3.15128 5.88473L3.16197 5.85853C3.29998 5.5189 3.30096 5.43739 3.0084 5.17637C2.50494 4.72709 2.5409 3.9314 2.8354 3.37829C3.20862 2.67867 3.80734 2.24394 4.66653 2.05181C5.57724 1.84707 6.34994 1.93052 7.02932 2.30508C7.66886 2.65829 8.01779 3.23274 8.09651 4.0624C8.09846 4.0886 8.10332 4.11577 8.10915 4.15167L8.11887 4.21086C8.12567 4.2555 8.15483 4.29431 8.19565 4.31372C8.23647 4.33313 8.28507 4.33119 8.32395 4.30887C8.58832 4.15749 8.88476 4.11091 9.25798 4.16137C9.45043 4.18757 9.66134 4.25744 9.88391 4.36806C10.0404 4.44666 10.1288 4.60774 10.1697 4.89302C10.1774 4.94251 10.2105 4.98424 10.2571 5.0017C10.3038 5.01917 10.3572 5.01044 10.3952 4.97841C10.4175 4.95998 10.4369 4.94348 10.4554 4.92893C10.4933 4.89787 10.5264 4.87167 10.5584 4.83965C10.99 4.41075 11.6791 4.01873 12.513 4.58445C12.5645 4.61938 12.6423 4.66305 12.7346 4.64267C12.8279 4.62326 12.8824 4.54952 12.9203 4.48838C13.0213 4.32536 13.1351 4.14002 13.2711 3.9935C13.6094 3.63059 14.0069 3.57625 14.452 3.83145C14.5026 3.86056 14.5512 3.88967 14.6066 3.92363L14.6989 3.97895C14.7329 3.99932 14.7738 4.00417 14.8117 3.99253C14.8496 3.97992 14.8807 3.95275 14.8962 3.91684L14.9808 3.72762C15.2879 3.02702 15.7331 2.68061 16.3794 2.63597C16.5203 2.62627 16.6379 2.47101 16.6797 2.37591C16.8595 1.96157 17.086 1.67337 17.3737 1.49483C17.5117 1.40944 17.6701 1.34636 17.8441 1.30658C17.9092 1.29202 18.0861 1.26 18.3194 1.27844ZM18.3194 1.27844L18.3301 1.14162M11.1795 20.999C10.8102 20.999 10.4379 20.8496 10.1804 20.5595C9.74979 20.0743 9.53013 19.4979 9.52818 18.8458C9.52721 18.3587 9.52818 17.8716 9.52915 17.3835C9.5311 16.5703 9.53401 15.73 9.52235 14.9032C9.50583 13.6786 10.1872 12.8878 11.4429 12.6763C11.9891 12.5841 12.5713 12.6239 13.0738 12.6695C13.588 12.7151 14.038 13.0091 14.4112 13.5418C14.4287 13.5661 14.4394 13.5797 14.4462 13.5855C14.452 13.5826 14.4608 13.5787 14.4734 13.5709C15.0148 13.2274 15.5756 13.1779 16.1442 13.4205C15.8837 12.7976 16.0451 12.2241 16.6302 11.6768C16.6078 11.6506 16.5845 11.6244 16.5621 11.5982C16.4513 11.4691 16.3366 11.3362 16.2385 11.1936C15.8827 10.6725 15.9002 10.1786 16.2939 9.68077C16.3075 9.66428 16.3172 9.65069 16.323 9.64099C16.3191 9.6371 16.3143 9.63128 16.3075 9.62449C15.702 9.03063 15.6757 8.36788 16.2297 7.709C16.3308 7.58868 16.3327 7.57024 16.2482 7.46835C16.0217 7.19374 15.9177 6.87741 15.943 6.54263C15.5814 6.81724 15.215 6.87352 14.834 6.71342C14.5162 7.23353 13.9602 7.28302 13.5063 7.32377C13.2352 7.34803 13.0524 7.38684 12.8649 7.52464C12.0338 8.13499 11.1698 8.10006 10.365 7.42372C10.3048 7.37326 10.2941 7.37908 10.2503 7.40528C9.39405 7.9186 8.30937 7.78275 7.61249 7.07439C7.57458 7.03557 7.55417 7.02393 7.47836 7.05013C7.02932 7.20151 6.55501 7.21315 6.0671 7.08312C6.04572 7.0773 6.02239 7.07342 5.99809 7.07051C5.99615 7.12388 5.99518 7.17531 5.99712 7.22576C6.00004 7.22965 6.00295 7.23256 6.00684 7.23547C6.01559 7.24517 6.02531 7.25585 6.03308 7.26555C6.45296 7.80022 6.4656 8.32809 6.07099 8.87731C6.53752 9.0578 6.65707 9.48088 6.70761 9.84379C6.75329 10.1737 6.76593 10.6405 6.39853 10.9995C6.85243 11.3585 7.06042 11.865 7.01377 12.4987C6.9399 13.502 6.44907 14.225 5.55586 14.6451C5.40035 14.7179 5.22831 14.7713 5.05823 14.7975C4.99991 14.8062 4.97172 14.8217 4.96395 14.8314C4.962 14.8343 4.95034 14.8547 4.96395 14.9217C4.97853 14.9993 4.99116 15.0769 5.00477 15.1546C5.03295 15.3263 5.06017 15.4884 5.10488 15.6465C5.30413 16.3433 5.34398 17.1147 5.23123 18.0734C5.20985 18.2519 5.15056 18.4383 5.05725 18.6129C4.94062 18.8322 4.73554 18.9593 4.50033 18.9613C4.2729 18.9593 4.07268 18.8303 3.96285 18.6158C3.86565 18.4256 3.79665 18.1879 3.76457 17.9288C3.72667 17.629 3.71306 17.3039 3.72181 16.9643C3.73153 16.5946 3.65085 16.2443 3.56435 15.8726C3.53325 15.7368 3.5002 15.597 3.47299 15.4573C3.46521 15.4185 3.45744 15.3787 3.44869 15.3399C3.4137 15.173 3.37871 15.0003 3.37774 14.8237C3.37774 14.7286 3.36219 14.7111 3.25139 14.6771C2.69446 14.5073 2.31832 14.1813 2.13268 13.7078C1.93732 13.2071 1.99564 12.6928 2.06853 12.3007C2.15406 11.8398 2.33873 11.4255 2.61671 11.0694C2.66531 11.0073 2.66239 11.0005 2.61282 10.9461C2.37275 10.6783 2.25515 10.4221 2.24446 10.1388C2.22307 9.59732 2.56422 9.26643 2.88594 8.99958C2.91315 8.97726 2.94037 8.95591 2.96952 8.9336C2.91607 8.86567 2.8665 8.80163 2.82082 8.73661C2.45731 8.22329 2.50105 7.71677 2.94717 7.27331C2.9598 7.2607 2.97341 7.24905 2.98702 7.23741H2.98896C2.59338 6.72506 2.73043 6.1933 2.89566 5.78478L2.90635 5.75858C2.94717 5.65864 2.98216 5.57227 2.97633 5.5451C2.9705 5.51502 2.87913 5.43351 2.8247 5.38499C2.2153 4.84062 2.2464 3.90035 2.59241 3.25215C2.99965 2.48847 3.6771 1.99553 4.60627 1.78691C5.58599 1.5676 6.42186 1.65979 7.16248 2.06831C7.86325 2.45548 8.26757 3.10077 8.36574 3.98671C8.63788 3.87512 8.94405 3.84407 9.29589 3.89258C9.51846 3.92266 9.75853 4.00126 10.0083 4.12547C10.2299 4.23609 10.3368 4.43113 10.3932 4.62035C11.0998 3.93722 11.9065 3.84407 12.6676 4.3603C12.6695 4.36224 12.6714 4.36321 12.6734 4.36418C12.6763 4.35933 12.6802 4.35447 12.6841 4.34768C12.791 4.17302 12.9125 3.97506 13.068 3.80913C13.4927 3.35306 14.0331 3.27738 14.5881 3.59565C14.627 3.61797 14.6649 3.64029 14.7057 3.66552L14.7261 3.61991C15.0731 2.83101 15.6028 2.42055 16.3483 2.36524C16.3687 2.35262 16.4086 2.30896 16.4251 2.26917C16.6282 1.80243 16.8897 1.47348 17.2269 1.26388C17.3912 1.162 17.5778 1.08631 17.7819 1.0407C17.8597 1.02323 18.0686 0.98442 18.3398 1.00674C18.5099 1.02032 18.9599 1.05623 19.337 1.35024C19.7248 1.653 19.8483 2.05667 19.9124 2.37397C20.1641 3.61409 19.8726 4.6679 19.0474 5.50726C19.0007 5.55481 18.9988 5.55675 19.0386 5.6237C19.2427 5.97206 19.3419 6.31751 19.3438 6.68236C19.3448 7.01908 19.2447 7.30728 19.0445 7.53919C19.0163 7.57121 19.0114 7.58577 19.0104 7.58868C19.0104 7.58868 19.0153 7.60129 19.0367 7.62749C19.5625 8.28928 19.5586 9.05101 19.025 9.61576C19.0221 9.61964 19.0192 9.62255 19.0172 9.62449C19.0221 9.63031 19.0289 9.63905 19.0396 9.64972C19.2058 9.82438 19.3535 9.98352 19.476 10.1698C19.7987 10.6628 19.7695 11.1683 19.3905 11.6322C19.373 11.6535 19.3642 11.6671 19.3603 11.6739C19.3642 11.6797 19.372 11.6904 19.3866 11.7049C19.9853 12.3056 20.0047 12.9878 19.442 13.6233C19.3603 13.7155 19.3428 13.7883 19.3652 13.9474C19.406 14.2521 19.443 14.6092 19.4041 14.9537C19.3438 15.4796 18.9463 15.8396 18.3903 15.8697C18.2834 15.8755 18.2727 15.8882 18.2494 15.9735C18.1406 16.3588 17.8587 16.6305 17.434 16.7586C17.2687 16.8081 17.0986 16.8333 16.9334 16.8575C16.8323 16.8721 16.7283 16.8876 16.6282 16.909C16.5475 16.9255 16.4669 16.9604 16.4066 17.0041C15.7768 17.4563 15.1868 17.5504 14.6037 17.2923C14.4365 17.2185 14.2926 17.106 14.1537 16.9973L14.142 16.9885C14.0914 16.9497 14.0817 16.9439 14.003 16.972C13.7445 17.0642 13.4023 17.1748 13.0515 17.2224L12.9786 17.2321C12.9251 17.2389 12.8649 17.2467 12.8376 17.2544C12.8308 17.2903 12.8308 17.3786 12.8308 17.4514C12.8308 17.5979 12.8318 17.7444 12.8338 17.8919C12.8367 18.218 12.8396 18.5547 12.8279 18.8866C12.7997 19.6628 12.5218 20.2771 12.0018 20.7118C11.7705 20.9059 11.4779 21 11.1844 21L11.1795 20.999ZM19.339 13.6292C19.2612 13.7194 19.2272 13.8029 19.2204 13.8999C19.0999 14.0066 18.9599 14.1095 18.7995 14.1949C18.7995 14.1949 18.5517 14.322 18.2601 14.3763C17.8422 14.453 17.1812 14.3191 16.5106 13.9106C16.463 13.8805 16.3823 13.8203 16.3162 13.7165C16.2404 13.5971 16.2239 13.4826 16.219 13.4254C16.1782 13.2818 16.1403 13.0712 16.1724 12.8238C16.253 12.2037 16.7079 11.8388 16.8236 11.7515C16.6613 11.5507 16.4921 11.3702 16.3551 11.1664C16.0314 10.6832 16.0519 10.2455 16.4047 9.79042C16.4737 9.70115 16.5057 9.64487 16.4076 9.54589C15.8565 8.99473 15.8293 8.3999 16.3386 7.78372C16.4678 7.62749 16.497 7.53143 16.358 7.35967C16.1082 7.0511 16.0208 6.68624 16.1199 6.28646C16.1238 6.26899 16.1432 6.21174 16.115 6.17778C16.0868 6.14284 16.0334 6.16128 16.0246 6.1477C15.9877 6.09239 16.5903 5.32386 17.4826 5.17831C18.1046 5.07642 18.6256 5.31804 18.8802 5.46262C18.8656 5.51696 18.8812 5.57033 18.921 5.63923C19.0999 5.94974 19.2058 6.28355 19.2068 6.6484C19.2087 6.94339 19.13 7.20636 18.9414 7.42954C18.8627 7.52269 18.8442 7.58965 18.9288 7.69833C19.3827 8.27957 19.4323 8.99279 18.9249 9.54104C18.8433 9.62934 18.8617 9.68562 18.9395 9.76907C19.0901 9.92918 19.2418 10.0941 19.3603 10.2795C19.6529 10.7336 19.6218 11.1819 19.2836 11.604C19.2039 11.703 19.1903 11.7651 19.2884 11.866C19.8317 12.422 19.8512 13.0392 19.339 13.6292Z" stroke="#636363" stroke-width="0.3" stroke-miterlimit="10"/>
</svg>
