<svg width="22" height="22" viewBox="0 0 22 22" fill="none" xmlns="http://www.w3.org/2000/svg">
<path d="M16.9093 12.6484C16.7 11.4116 15.9452 10.3786 14.8902 9.88462C13.9034 9.423 12.8115 9.48964 11.8928 10.0689C11.7034 10.1884 11.5273 10.2129 11.3966 10.1365C11.2555 10.0542 11.174 9.86011 11.174 9.60431C11.174 8.70362 11.174 7.80195 11.174 6.90126V5.6203C11.174 5.26845 11.174 4.91758 11.174 4.56573C11.174 3.57487 11.1721 2.55069 11.1788 1.54317C11.1788 1.42164 11.1665 1.24523 11.0433 1.12272C10.9534 1.03255 10.8236 0.992369 10.6503 1.00119C10.4903 1.00805 10.3245 1.00707 10.1635 1.00511C10.084 1.00511 10.0025 1.00217 9.92489 1.00315C9.32731 1.00315 9.24397 1.08744 9.24397 1.69313V10.1042C9.24397 11.4596 9.74117 12.2143 10.9591 12.7092C11.3502 12.868 11.6068 13.2845 11.5557 13.6775C11.4591 14.4273 10.9411 15.0153 10.2052 15.2123C9.80272 15.3201 9.42201 15.2143 9.01952 15.1016C8.95701 15.0839 8.89451 15.0673 8.832 15.0506C7.98819 14.8262 7.13017 14.9575 6.41515 15.4191C5.72854 15.8631 5.25976 16.5658 5.09497 17.3979C4.98796 17.9369 4.99648 18.4995 5.00406 19.0425C5.0069 19.2199 5.00974 19.3963 5.00784 19.5727C5.0069 19.7746 5.2626 19.9696 5.4236 19.9843C5.55902 19.9961 5.6935 20 5.82704 20C5.89143 20 5.95583 20 6.01834 19.999C6.13767 19.998 6.26078 19.9961 6.38011 19.999C6.55152 20.0049 6.67748 19.9628 6.76556 19.8716C6.85458 19.7805 6.89625 19.6491 6.89246 19.4708C6.88299 19.0248 6.88299 18.5554 6.89246 17.9918C6.89719 17.7174 7.0724 17.5361 7.36219 17.5086C7.81204 17.4655 8.12077 17.6135 8.39447 18.0026C9.14832 19.0748 10.2393 19.5962 11.5434 19.5119C12.6353 19.4414 13.66 19.0336 14.5891 18.2986C16.5049 16.7824 17.2853 14.882 16.9074 12.6494L16.9093 12.6484ZM14.3694 17.9977C13.4981 18.6867 12.5406 19.0689 11.5226 19.1346C10.3293 19.211 9.37655 18.7553 8.68995 17.7791C8.34049 17.2822 7.90864 17.0764 7.32905 17.1313C6.85079 17.1774 6.53637 17.5116 6.52879 17.984C6.51932 18.5524 6.51932 19.0268 6.52879 19.4776C6.53069 19.559 6.51743 19.5952 6.50985 19.6031C6.50228 19.6099 6.46913 19.6236 6.39147 19.6217C6.26552 19.6178 6.13861 19.6197 6.0155 19.6207C5.82135 19.6227 5.63857 19.6246 5.46337 19.6089C5.44064 19.6021 5.39518 19.5678 5.3734 19.5413C5.3734 19.3737 5.37151 19.2052 5.36961 19.0366C5.36204 18.5132 5.35351 17.9722 5.45295 17.4734C5.59785 16.7432 6.00887 16.1267 6.60929 15.7386C7.23813 15.3319 7.99576 15.2172 8.74203 15.4152C8.80359 15.4319 8.8642 15.4485 8.92481 15.4652C9.35572 15.5857 9.80083 15.7092 10.2961 15.5769C11.1646 15.3446 11.801 14.6184 11.9165 13.7275C11.9894 13.1669 11.6343 12.5779 11.0916 12.3583C10.8085 12.2437 10.5736 12.1163 10.3785 11.9702C10.3956 11.9702 10.4126 11.9702 10.4306 11.9702C10.7886 11.9457 11.0197 11.5939 11.0935 11.4802C11.336 11.1087 11.3246 10.7069 11.2991 10.505C11.532 10.6011 11.8123 10.5619 12.0823 10.3913C12.8958 9.87776 13.8646 9.81895 14.7397 10.2286C15.6848 10.6716 16.3619 11.6007 16.5504 12.7141C16.9074 14.8262 16.1943 16.555 14.3694 17.9987V17.9977Z" fill="#636363"/>
</svg>
