<svg width="22" height="22" viewBox="0 0 22 22" fill="none" xmlns="http://www.w3.org/2000/svg">
<g clip-path="url(#clip0_1647_447)">
<path fill-rule="evenodd" clip-rule="evenodd" d="M12.09 8.88597C12.061 8.95822 12.0176 9.05667 11.9525 9.12402C11.8734 9.20597 11.7652 9.25857 11.6722 9.29522C11.5723 9.33457 11.4553 9.36847 11.3324 9.39882C11.1149 9.45257 10.8547 9.50092 10.5975 9.54872C10.5649 9.55477 10.5324 9.56082 10.4999 9.56692C10.2064 9.62172 9.9224 9.67692 9.68925 9.74172C9.57295 9.77402 9.47575 9.80702 9.4 9.84067C9.32065 9.87592 9.28315 9.90407 9.26985 9.91782C9.2554 9.93277 9.24535 9.94477 9.23845 9.95392C9.24345 9.96092 9.25005 9.96972 9.2587 9.98067C9.26155 9.98432 9.265 9.98862 9.26885 9.99342C9.28585 10.0147 9.3109 10.0459 9.33155 10.0759C9.3584 10.1148 9.39325 10.1723 9.4127 10.2452C9.43375 10.3241 9.43425 10.4113 9.40445 10.4999C9.3763 10.5834 9.3263 10.6531 9.26985 10.7115C9.0258 10.9643 8.75865 11.0547 8.48285 11.0238C8.23245 10.9958 7.9978 10.8688 7.80415 10.757C7.61745 10.6492 7.45415 10.545 7.3085 10.452C7.29535 10.4436 7.2823 10.4353 7.2694 10.4271C7.11175 10.3266 6.97805 10.2427 6.84755 10.1747C6.61565 10.054 6.3974 9.98542 6.10565 9.99382C6.1121 10.0022 6.1189 10.0109 6.126 10.0199C6.1646 10.0685 6.2074 10.1192 6.2542 10.1745C6.26145 10.1831 6.2688 10.1918 6.2762 10.2006C6.32995 10.2642 6.38795 10.3335 6.44055 10.4028C6.4926 10.4714 6.5452 10.5476 6.5856 10.6265C6.62445 10.7023 6.664 10.8033 6.664 10.9165V10.9217C6.664 11.119 6.664 11.435 6.61255 11.7548C6.5616 12.0712 6.45375 12.4372 6.20385 12.696C6.06465 12.8402 5.87435 12.9315 5.6822 12.9932C5.48645 13.0562 5.2646 13.0959 5.0401 13.1217C4.59435 13.173 4.10335 13.173 3.72378 13.173H3.71738C3.03682 13.173 2.37004 13.5239 2.0374 14.2129C2.03283 14.2223 2.03041 14.2291 2.02914 14.2336C2.03771 14.2448 2.06411 14.2727 2.13186 14.3088C2.29829 14.3975 2.5827 14.4675 2.93802 14.5165C3.6364 14.613 4.48135 14.6133 4.86715 14.6133H4.8732C5.6424 14.6133 8.72575 14.6133 10.6678 15.0156C11.6781 15.2248 12.2997 15.6483 12.719 16.0826C12.9261 16.297 13.0797 16.5098 13.2022 16.6874C13.2256 16.7213 13.2472 16.753 13.2675 16.7826C13.3602 16.9181 13.4234 17.0105 13.4855 17.0748C13.5469 17.1383 13.5947 17.1584 13.638 17.1663C13.6902 17.1758 13.7587 17.1717 13.8693 17.1488C13.9139 17.1396 13.9647 17.1271 14.0213 17.1132C14.2253 17.0631 14.504 16.9947 14.8315 16.9947C15.3147 16.9947 15.6657 17.2489 15.9287 17.5213C16.0595 17.6567 16.1753 17.8037 16.2765 17.9332L16.2894 17.9497C16.3888 18.0769 16.4712 18.1823 16.5515 18.2655C16.7245 18.4446 17.183 18.8261 17.6889 19.1118C17.9411 19.2543 18.1932 19.3661 18.4186 19.4204C18.6479 19.4756 18.8159 19.4634 18.9288 19.405C18.9883 19.3741 19.012 19.3451 19.0227 19.3263C19.0334 19.3075 19.0426 19.2788 19.041 19.2295C19.0373 19.1178 18.9806 18.9548 18.8642 18.7379C18.7581 18.5401 18.6209 18.3299 18.4784 18.1117C18.4693 18.0978 18.4601 18.0838 18.451 18.0697C18.3033 17.8434 18.1493 17.6052 18.0445 17.388C17.8407 16.9658 17.6418 16.3457 17.542 15.7772C17.4921 15.4929 17.4647 15.2093 17.4783 14.963C17.4912 14.7299 17.5435 14.4695 17.7105 14.2966C17.9055 14.0946 18.0827 13.9103 18.213 13.7304C18.3453 13.5477 18.4001 13.4079 18.4001 13.2978C18.4001 13.2354 18.384 13.1404 18.348 12.9915C18.3319 12.9248 18.3132 12.8526 18.2924 12.7722L18.2877 12.754C18.2653 12.6671 18.2408 12.5722 18.2163 12.4705C18.1178 12.0625 18.0168 11.5426 18.0168 10.9165C18.0168 10.7145 18.093 10.444 18.1913 10.1642C18.2935 9.87307 18.4345 9.53232 18.591 9.17387C18.7374 8.83867 18.8993 8.48337 19.0588 8.13362L19.0928 8.05897C19.2637 7.68417 19.4301 7.31797 19.5724 6.98637C19.7153 6.65332 19.8305 6.36302 19.901 6.13887C19.9052 6.12547 19.9093 6.11237 19.9131 6.09967C19.7516 6.22942 19.5296 6.43682 19.2342 6.74267C17.7002 8.33127 16.7737 9.02982 16.1777 9.28462C15.8733 9.41477 15.6268 9.44167 15.4195 9.38267C15.2168 9.32502 15.0948 9.19532 15.0291 9.12552L15.0254 9.12162C14.7254 8.80302 14.5088 8.46097 14.373 7.83542C14.2414 7.22982 14.1844 6.35367 14.1844 4.96312C14.1844 4.26172 14.2086 3.73502 14.2328 3.33387C14.2405 3.20527 14.2481 3.09207 14.2548 2.99141C14.2695 2.77107 14.2802 2.61112 14.2802 2.48261C14.2802 2.29983 14.2561 2.25033 14.2368 2.2237C14.2112 2.18831 14.1598 2.14609 14.0165 2.06821C14.0056 2.08144 13.9932 2.09818 13.9793 2.11903C13.8933 2.24783 13.7932 2.46924 13.6839 2.77511C13.4678 3.37987 13.2432 4.23512 13.0276 5.12812C12.9202 5.57312 12.8157 6.02457 12.7161 6.45562L12.6999 6.52582C12.6064 6.93077 12.5173 7.31667 12.4348 7.65827C12.3478 8.01877 12.267 8.33497 12.1951 8.57512C12.1593 8.69482 12.1241 8.80077 12.09 8.88597ZM13.7835 1.56389C13.8964 1.49561 14.0413 1.47134 14.1834 1.54496C14.3692 1.64114 14.5454 1.74035 14.6597 1.89816C14.7841 2.06996 14.808 2.2685 14.808 2.48261C14.808 2.63069 14.7954 2.81971 14.7798 3.05312C14.7733 3.15022 14.7663 3.25497 14.7595 3.36767C14.7358 3.76032 14.7121 4.27547 14.7121 4.96312C14.7121 6.35087 14.7703 7.17452 14.888 7.71652C15.0014 8.23857 15.168 8.49192 15.4041 8.74257C15.4665 8.80882 15.5031 8.84202 15.5599 8.85817C15.6159 8.87412 15.7368 8.88412 15.9755 8.78202C16.4657 8.57242 17.3283 7.94522 18.8602 6.35877C19.245 5.96027 19.5366 5.69492 19.7495 5.55057C19.851 5.48172 19.9649 5.41892 20.0796 5.40292C20.1419 5.39422 20.2211 5.39702 20.2993 5.43742C20.381 5.47957 20.433 5.54772 20.4622 5.61582C20.5126 5.73322 20.5025 5.86497 20.4889 5.95727C20.4735 6.06217 20.4425 6.18132 20.4031 6.30672C20.3238 6.55857 20.1995 6.86982 20.055 7.20652C19.9099 7.54467 19.741 7.91637 19.5705 8.29042C19.5593 8.31497 19.5481 8.33952 19.5369 8.36407C19.377 8.71487 19.2168 9.06627 19.0723 9.39722C18.9174 9.75187 18.7829 10.0778 18.6875 10.3494C18.5882 10.6324 18.5446 10.8208 18.5446 10.9165C18.5446 11.4811 18.6353 11.9534 18.7284 12.3391C18.7518 12.4359 18.7752 12.527 18.7977 12.6138L18.8027 12.6332C18.8232 12.7122 18.8429 12.7887 18.8602 12.8601C18.8961 13.0088 18.9279 13.1618 18.9279 13.2978C18.9279 13.5847 18.791 13.8418 18.6359 14.0559C18.4809 14.27 18.2782 14.4798 18.0921 14.6725L18.0845 14.6805C18.0599 14.706 18.0163 14.7928 18.0052 14.9939C17.9949 15.1816 18.0154 15.419 18.0613 15.6803C18.1532 16.2034 18.3375 16.7739 18.517 17.1455C18.6037 17.3252 18.7372 17.5335 18.8889 17.766C18.8991 17.7817 18.9094 17.7974 18.9198 17.8133C19.0586 18.0259 19.2082 18.2549 19.326 18.4746C19.4492 18.7042 19.5602 18.9629 19.5684 19.2108C19.5728 19.3414 19.549 19.4771 19.4775 19.6024C19.4058 19.7278 19.2978 19.8228 19.1657 19.8912C18.8953 20.0312 18.5842 20.019 18.2985 19.9502C18.009 19.8805 17.7101 19.7442 17.4353 19.589C16.8873 19.2794 16.3877 18.8671 16.1775 18.6494C16.0768 18.545 15.978 18.4185 15.8852 18.2997C15.8786 18.2913 15.8721 18.283 15.8656 18.2746C15.7633 18.1437 15.6634 18.0178 15.5547 17.9052C15.3387 17.6815 15.1148 17.5388 14.8315 17.5388C14.5724 17.5388 14.3753 17.5868 14.1787 17.6348C14.111 17.6513 14.0434 17.6678 13.9733 17.6823C13.8443 17.709 13.6973 17.7297 13.5459 17.7021C13.3856 17.6728 13.2418 17.5936 13.1115 17.4587C13.0146 17.3584 12.9189 17.2179 12.8263 17.082C12.8081 17.0553 12.79 17.0287 12.7721 17.0027C12.6551 16.8331 12.5212 16.649 12.345 16.4665C11.9979 16.1069 11.4697 15.7366 10.5638 15.549C8.6786 15.1585 5.64125 15.1575 4.86715 15.1575H4.86285C4.4799 15.1575 3.60401 15.1575 2.86796 15.0558C2.50469 15.0057 2.14238 14.9268 1.88963 14.7922C1.76371 14.7252 1.63161 14.627 1.55712 14.4788C1.47376 14.3129 1.48619 14.1335 1.56492 13.9704C1.99877 13.0718 2.86495 12.6289 3.71738 12.6289C4.10345 12.6289 4.56755 12.6286 4.98155 12.581C5.1882 12.5572 5.3736 12.5225 5.52515 12.4738C5.6803 12.4239 5.7774 12.3664 5.82985 12.3121C5.9632 12.174 6.04695 11.9447 6.09185 11.6657C6.13535 11.3955 6.1362 11.1215 6.1362 10.9219C6.13535 10.9187 6.13175 10.9056 6.11895 10.8806C6.09955 10.8428 6.06845 10.7955 6.0248 10.738C5.9817 10.6812 5.93205 10.6217 5.87815 10.5579C5.8712 10.5496 5.8641 10.5412 5.85695 10.5328C5.8107 10.4781 5.76165 10.4201 5.71735 10.3642C5.6666 10.3002 5.6144 10.2295 5.574 10.1579C5.53685 10.0922 5.4903 9.99297 5.4902 9.87852C5.49005 9.73562 5.56135 9.61522 5.67715 9.54302C5.773 9.48327 5.8892 9.46197 5.99935 9.45442C6.43885 9.42427 6.76725 9.52342 7.0854 9.68902C7.2392 9.76907 7.3912 9.86497 7.547 9.96432C7.55975 9.97242 7.57255 9.98062 7.5854 9.98882C7.7319 10.0823 7.88585 10.1806 8.062 10.2822C8.2606 10.3969 8.40915 10.4683 8.5398 10.4829C8.6388 10.4939 8.74345 10.4744 8.87145 10.3519C8.87075 10.3511 8.87 10.3501 8.86925 10.3492C8.8636 10.3421 8.85715 10.334 8.8495 10.3244L8.84705 10.3212C8.8059 10.2692 8.7153 10.1547 8.70145 9.99722C8.6856 9.81672 8.7717 9.66247 8.8958 9.53392C8.97835 9.44847 9.08695 9.38727 9.1911 9.34097C9.29895 9.29307 9.4227 9.25227 9.5519 9.21637C9.80975 9.14472 10.115 9.08582 10.4059 9.03147C10.4386 9.02537 10.4711 9.01932 10.5033 9.01332C10.7635 8.96497 11.0076 8.91952 11.2094 8.86967C11.3225 8.84177 11.4145 8.81427 11.4837 8.78697C11.5356 8.76652 11.5619 8.75102 11.5727 8.74402C11.577 8.73562 11.5872 8.71577 11.6022 8.67822C11.6274 8.61537 11.657 8.52752 11.6908 8.41467C11.7581 8.18972 11.836 7.88577 11.9226 7.52687C12.0044 7.18807 12.093 6.80477 12.1867 6.39892L12.2027 6.32957C12.3022 5.89867 12.4073 5.44472 12.5155 4.99672C12.7311 4.10372 12.9616 3.22257 13.1886 2.58704C13.3009 2.27277 13.4193 1.99806 13.5445 1.8106C13.6059 1.7186 13.684 1.62408 13.7835 1.56389Z" fill="#636363"/>
<path fill-rule="evenodd" clip-rule="evenodd" d="M14.4304 14.8307C15.2481 14.8307 16.0137 14.0401 16.0137 12.9263C16.0137 11.8125 15.2481 11.0219 14.4304 11.0219C13.6127 11.0219 12.8471 11.8125 12.8471 12.9263C12.8471 14.0401 13.6127 14.8307 14.4304 14.8307ZM14.4304 15.3748C15.5963 15.3748 16.5415 14.2786 16.5415 12.9263C16.5415 11.574 15.5963 10.4778 14.4304 10.4778C13.2645 10.4778 12.3193 11.574 12.3193 12.9263C12.3193 14.2786 13.2645 15.3748 14.4304 15.3748Z" fill="#636363"/>
<path d="M11.2636 11.5661C11.2636 11.8666 11.0273 12.1102 10.7358 12.1102C10.4443 12.1102 10.208 11.8666 10.208 11.5661C10.208 11.2656 10.4443 11.022 10.7358 11.022C11.0273 11.022 11.2636 11.2656 11.2636 11.5661Z" fill="#636363"/>
<path d="M9.68009 12.9263C9.68009 13.0766 9.56194 13.1984 9.41619 13.1984C9.27049 13.1984 9.15234 13.0766 9.15234 12.9263C9.15234 12.7761 9.27049 12.6543 9.41619 12.6543C9.56194 12.6543 9.68009 12.7761 9.68009 12.9263Z" fill="#636363"/>
<path d="M9.2243 9.97677C9.2243 9.97677 9.22445 9.97592 9.2253 9.97422M11.9525 9.12402C12.0176 9.05667 12.061 8.95822 12.09 8.88597C12.1241 8.80077 12.1593 8.69482 12.1951 8.57512C12.267 8.33497 12.3478 8.01877 12.4348 7.65827C12.5173 7.31667 12.6064 6.93077 12.6999 6.52582L12.7161 6.45562C12.8157 6.02457 12.9202 5.57312 13.0276 5.12812C13.2432 4.23512 13.4678 3.37987 13.6839 2.77511C13.7932 2.46924 13.8933 2.24783 13.9793 2.11903C13.9932 2.09818 14.0056 2.08144 14.0165 2.06821C14.1598 2.14609 14.2112 2.18831 14.2368 2.2237C14.2561 2.25033 14.2802 2.29983 14.2802 2.48261C14.2802 2.61112 14.2695 2.77107 14.2548 2.99141C14.2481 3.09207 14.2405 3.20527 14.2328 3.33387C14.2086 3.73502 14.1844 4.26172 14.1844 4.96312C14.1844 6.35367 14.2414 7.22982 14.373 7.83542C14.5088 8.46097 14.7254 8.80302 15.0254 9.12162L15.0291 9.12552C15.0948 9.19532 15.2168 9.32502 15.4195 9.38267C15.6268 9.44167 15.8733 9.41477 16.1777 9.28462C16.7737 9.02982 17.7002 8.33127 19.2342 6.74267C19.5296 6.43682 19.7516 6.22942 19.9131 6.09967C19.9093 6.11237 19.9052 6.12547 19.901 6.13887C19.8305 6.36302 19.7153 6.65332 19.5724 6.98637C19.4301 7.31797 19.2637 7.68417 19.0928 8.05897L19.0588 8.13362C18.8993 8.48337 18.7374 8.83867 18.591 9.17387C18.4345 9.53232 18.2935 9.87307 18.1913 10.1642C18.093 10.444 18.0168 10.7145 18.0168 10.9165C18.0168 11.5426 18.1178 12.0625 18.2163 12.4705C18.2408 12.5722 18.2653 12.6671 18.2877 12.754L18.2924 12.7722C18.3132 12.8526 18.3319 12.9248 18.348 12.9915C18.384 13.1404 18.4001 13.2354 18.4001 13.2978C18.4001 13.4079 18.3453 13.5477 18.213 13.7304C18.0827 13.9103 17.9055 14.0946 17.7105 14.2966C17.5435 14.4695 17.4912 14.7299 17.4783 14.963C17.4647 15.2093 17.4921 15.4929 17.542 15.7772C17.6418 16.3457 17.8407 16.9658 18.0445 17.388C18.1493 17.6052 18.3033 17.8434 18.451 18.0697C18.4601 18.0838 18.4693 18.0978 18.4784 18.1117C18.6209 18.3299 18.7581 18.5401 18.8642 18.7379C18.9806 18.9548 19.0373 19.1178 19.041 19.2295C19.0426 19.2788 19.0334 19.3075 19.0227 19.3263C19.012 19.3451 18.9883 19.3741 18.9288 19.405C18.8159 19.4634 18.6479 19.4756 18.4186 19.4204C18.1932 19.3661 17.9411 19.2543 17.6889 19.1118C17.183 18.8261 16.7245 18.4446 16.5515 18.2655C16.4712 18.1823 16.3888 18.0769 16.2894 17.9497L16.2765 17.9332C16.1753 17.8037 16.0595 17.6567 15.9287 17.5213C15.6657 17.2489 15.3147 16.9947 14.8315 16.9947C14.504 16.9947 14.2253 17.0631 14.0213 17.1132C13.9647 17.1271 13.9139 17.1396 13.8693 17.1488C13.7587 17.1717 13.6902 17.1758 13.638 17.1663C13.5947 17.1584 13.5469 17.1383 13.4855 17.0748C13.4234 17.0105 13.3602 16.9181 13.2675 16.7826C13.2472 16.753 13.2256 16.7213 13.2022 16.6874C13.0797 16.5098 12.9261 16.297 12.719 16.0826C12.2997 15.6483 11.6781 15.2248 10.6678 15.0156C8.72575 14.6133 5.6424 14.6133 4.8732 14.6133H4.86715C4.48135 14.6133 3.6364 14.613 2.93802 14.5165C2.5827 14.4675 2.29829 14.3975 2.13186 14.3088C2.06411 14.2727 2.03771 14.2448 2.02914 14.2336C2.03041 14.2291 2.03283 14.2223 2.0374 14.2129C2.37004 13.5239 3.03682 13.173 3.71738 13.173H3.72378C4.10335 13.173 4.59435 13.173 5.0401 13.1217C5.2646 13.0959 5.48645 13.0562 5.6822 12.9932C5.87435 12.9315 6.06465 12.8402 6.20385 12.696C6.45375 12.4372 6.5616 12.0712 6.61255 11.7548C6.664 11.435 6.664 11.119 6.664 10.9217V10.9165C6.664 10.8033 6.62445 10.7023 6.5856 10.6265C6.5452 10.5476 6.4926 10.4714 6.44055 10.4028C6.38795 10.3335 6.32995 10.2642 6.2762 10.2006C6.2688 10.1918 6.26145 10.1831 6.2542 10.1745C6.2074 10.1192 6.1646 10.0685 6.126 10.0199C6.1189 10.0109 6.1121 10.0022 6.10565 9.99382C6.3974 9.98542 6.61565 10.054 6.84755 10.1747C6.97805 10.2427 7.11175 10.3266 7.2694 10.4271C7.2823 10.4353 7.29535 10.4436 7.3085 10.452C7.45415 10.545 7.61745 10.6492 7.80415 10.757C7.9978 10.8688 8.23245 10.9958 8.48285 11.0238C8.75865 11.0547 9.0258 10.9643 9.26985 10.7115C9.3263 10.6531 9.3763 10.5834 9.40445 10.4999C9.43425 10.4113 9.43375 10.3241 9.4127 10.2452C9.39325 10.1723 9.3584 10.1148 9.33155 10.0759C9.3109 10.0459 9.28585 10.0147 9.26885 9.99342C9.265 9.98862 9.26155 9.98432 9.2587 9.98067C9.25005 9.96972 9.24345 9.96092 9.23845 9.95392C9.24535 9.94477 9.2554 9.93277 9.26985 9.91782C9.28315 9.90407 9.32065 9.87592 9.4 9.84067C9.47575 9.80702 9.57295 9.77402 9.68925 9.74172C9.9224 9.67692 10.2064 9.62172 10.4999 9.56692C10.5324 9.56082 10.5649 9.55477 10.5975 9.54872C10.8547 9.50092 11.1149 9.45257 11.3324 9.39882C11.4553 9.36847 11.5723 9.33457 11.6722 9.29522C11.7652 9.25857 11.8734 9.20597 11.9525 9.12402ZM14.1834 1.54496C14.0413 1.47134 13.8964 1.49561 13.7835 1.56389C13.684 1.62408 13.6059 1.7186 13.5445 1.8106C13.4193 1.99806 13.3009 2.27277 13.1886 2.58704C12.9616 3.22257 12.7311 4.10372 12.5155 4.99672C12.4073 5.44472 12.3022 5.89867 12.2027 6.32957L12.1867 6.39892C12.093 6.80477 12.0044 7.18807 11.9226 7.52687C11.836 7.88577 11.7581 8.18972 11.6908 8.41467C11.657 8.52752 11.6274 8.61537 11.6022 8.67822C11.5872 8.71577 11.577 8.73562 11.5727 8.74402C11.5619 8.75102 11.5356 8.76652 11.4837 8.78697C11.4145 8.81427 11.3225 8.84177 11.2094 8.86967C11.0076 8.91952 10.7635 8.96497 10.5033 9.01332C10.4711 9.01932 10.4386 9.02537 10.4059 9.03147C10.115 9.08582 9.80975 9.14472 9.5519 9.21637C9.4227 9.25227 9.29895 9.29307 9.1911 9.34097C9.08695 9.38727 8.97835 9.44847 8.8958 9.53392C8.7717 9.66247 8.6856 9.81672 8.70145 9.99722C8.7153 10.1547 8.8059 10.2692 8.84705 10.3212L8.8495 10.3244C8.85715 10.334 8.8636 10.3421 8.86925 10.3492C8.87 10.3501 8.87075 10.3511 8.87145 10.3519C8.74345 10.4744 8.6388 10.4939 8.5398 10.4829C8.40915 10.4683 8.2606 10.3969 8.062 10.2822C7.88585 10.1806 7.7319 10.0823 7.5854 9.98882C7.57255 9.98062 7.55975 9.97242 7.547 9.96432C7.3912 9.86497 7.2392 9.76907 7.0854 9.68902C6.76725 9.52342 6.43885 9.42427 5.99935 9.45442C5.8892 9.46197 5.773 9.48327 5.67715 9.54302C5.56135 9.61522 5.49005 9.73562 5.4902 9.87852C5.4903 9.99297 5.53685 10.0922 5.574 10.1579C5.6144 10.2295 5.6666 10.3002 5.71735 10.3642C5.76165 10.4201 5.8107 10.4781 5.85695 10.5328C5.8641 10.5412 5.8712 10.5496 5.87815 10.5579C5.93205 10.6217 5.9817 10.6812 6.0248 10.738C6.06845 10.7955 6.09955 10.8428 6.11895 10.8806C6.13175 10.9056 6.13535 10.9187 6.1362 10.9219C6.1362 11.1215 6.13535 11.3955 6.09185 11.6657C6.04695 11.9447 5.9632 12.174 5.82985 12.3121C5.7774 12.3664 5.6803 12.4239 5.52515 12.4738C5.3736 12.5225 5.1882 12.5572 4.98155 12.581C4.56755 12.6286 4.10345 12.6289 3.71738 12.6289C2.86495 12.6289 1.99877 13.0718 1.56492 13.9704C1.48619 14.1335 1.47376 14.3129 1.55712 14.4788C1.63161 14.627 1.76371 14.7252 1.88963 14.7922C2.14238 14.9268 2.50469 15.0057 2.86796 15.0558C3.60401 15.1575 4.4799 15.1575 4.86285 15.1575H4.86715C5.64125 15.1575 8.6786 15.1585 10.5638 15.549C11.4697 15.7366 11.9979 16.1069 12.345 16.4665C12.5212 16.649 12.6551 16.8331 12.7721 17.0027C12.79 17.0287 12.8081 17.0553 12.8263 17.082C12.9189 17.2179 13.0146 17.3584 13.1115 17.4587C13.2418 17.5936 13.3856 17.6728 13.5459 17.7021C13.6973 17.7297 13.8443 17.709 13.9733 17.6823C14.0434 17.6678 14.111 17.6513 14.1787 17.6348C14.3753 17.5868 14.5724 17.5388 14.8315 17.5388C15.1148 17.5388 15.3387 17.6815 15.5547 17.9052C15.6634 18.0178 15.7633 18.1437 15.8656 18.2746C15.8721 18.283 15.8786 18.2913 15.8852 18.2997C15.978 18.4185 16.0768 18.545 16.1775 18.6494C16.3877 18.8671 16.8873 19.2794 17.4353 19.589C17.7101 19.7442 18.009 19.8805 18.2985 19.9502C18.5842 20.019 18.8953 20.0312 19.1657 19.8912C19.2978 19.8228 19.4058 19.7278 19.4775 19.6024C19.549 19.4771 19.5728 19.3414 19.5684 19.2108C19.5602 18.9629 19.4492 18.7042 19.326 18.4746C19.2082 18.2549 19.0586 18.0259 18.9198 17.8133C18.9094 17.7974 18.8991 17.7817 18.8889 17.766C18.7372 17.5335 18.6037 17.3252 18.517 17.1455C18.3375 16.7739 18.1532 16.2034 18.0613 15.6803C18.0154 15.419 17.9949 15.1816 18.0052 14.9939C18.0163 14.7928 18.0599 14.706 18.0845 14.6805L18.0921 14.6725C18.2782 14.4798 18.4809 14.27 18.6359 14.0559C18.791 13.8418 18.9279 13.5847 18.9279 13.2978C18.9279 13.1618 18.8961 13.0088 18.8602 12.8601C18.8429 12.7887 18.8232 12.7122 18.8027 12.6332L18.7977 12.6138C18.7752 12.527 18.7518 12.4359 18.7284 12.3391C18.6353 11.9534 18.5446 11.4811 18.5446 10.9165C18.5446 10.8208 18.5882 10.6324 18.6875 10.3494C18.7829 10.0778 18.9174 9.75187 19.0723 9.39722C19.2168 9.06627 19.377 8.71487 19.5369 8.36407C19.5481 8.33952 19.5593 8.31497 19.5705 8.29042C19.741 7.91637 19.9099 7.54467 20.055 7.20652C20.1995 6.86982 20.3238 6.55857 20.4031 6.30672C20.4425 6.18132 20.4735 6.06217 20.4889 5.95727C20.5025 5.86497 20.5126 5.73322 20.4622 5.61582C20.433 5.54772 20.381 5.47957 20.2993 5.43742C20.2211 5.39702 20.1419 5.39422 20.0796 5.40292C19.9649 5.41892 19.851 5.48172 19.7495 5.55057C19.5366 5.69492 19.245 5.96027 18.8602 6.35877C17.3283 7.94522 16.4657 8.57242 15.9755 8.78202C15.7368 8.88412 15.6159 8.87412 15.5599 8.85817C15.5031 8.84202 15.4665 8.80882 15.4041 8.74257C15.168 8.49192 15.0014 8.23857 14.888 7.71652C14.7703 7.17452 14.7121 6.35087 14.7121 4.96312C14.7121 4.27547 14.7358 3.76032 14.7595 3.36767C14.7663 3.25497 14.7733 3.15022 14.7798 3.05312C14.7954 2.81971 14.808 2.63069 14.808 2.48261C14.808 2.2685 14.7841 2.06996 14.6597 1.89816C14.5454 1.74035 14.3692 1.64114 14.1834 1.54496ZM16.0138 12.9265C16.0138 14.0403 15.2482 14.8309 14.4305 14.8309C13.6128 14.8309 12.8472 14.0403 12.8472 12.9265C12.8472 11.8127 13.6128 11.0221 14.4305 11.0221C15.2482 11.0221 16.0138 11.8127 16.0138 12.9265ZM16.5416 12.9265C16.5416 14.2788 15.5964 15.375 14.4305 15.375C13.2646 15.375 12.3194 14.2788 12.3194 12.9265C12.3194 11.5742 13.2646 10.478 14.4305 10.478C15.5964 10.478 16.5416 11.5742 16.5416 12.9265ZM11.2639 11.5662C11.2639 11.8667 11.0276 12.1103 10.7361 12.1103C10.4446 12.1103 10.2083 11.8667 10.2083 11.5662C10.2083 11.2657 10.4446 11.0221 10.7361 11.0221C11.0276 11.0221 11.2639 11.2657 11.2639 11.5662ZM9.68055 12.9265C9.68055 13.0768 9.5624 13.1986 9.41665 13.1986C9.27095 13.1986 9.1528 13.0768 9.1528 12.9265C9.1528 12.7763 9.27095 12.6545 9.41665 12.6545C9.5624 12.6545 9.68055 12.7763 9.68055 12.9265Z" stroke="#636363" stroke-width="0.2"/>
</g>
<defs>
<clipPath id="clip0_1647_447">
<rect width="22" height="22" fill="white"/>
</clipPath>
</defs>
</svg>
