<svg width="22" height="22" viewBox="0 0 22 22" fill="none" xmlns="http://www.w3.org/2000/svg">
<path d="M11.5332 19.9898C10.4849 19.9898 9.3389 19.5274 8.21862 18.6482C7.20112 17.8504 6.25557 16.7425 5.56182 15.528C4.82696 14.2422 4.42098 12.9413 4.37987 11.7674C4.34904 10.7967 4.57001 9.94297 5.03765 9.23659L5.09418 9.1502L4.99654 9.01807C4.92973 8.9266 4.81154 8.79447 4.65737 8.64709C4.25654 8.2812 3.79918 8.05759 3.30071 7.97628C3.20307 7.96104 3.12085 7.91022 3.06432 7.82891C3.00779 7.75268 2.98724 7.65104 3.00779 7.55957L3.47029 5.15584C3.47543 5.11519 3.50112 5.02372 3.58335 4.95257C3.67071 4.87634 3.77348 4.86618 3.8146 4.86618C3.88654 4.87126 3.91223 4.87634 3.93279 4.88142L4.08696 4.92716C4.1846 4.95765 4.32335 5.00847 4.49293 5.06945C4.94001 5.23715 5.35626 5.4201 5.73654 5.62338C6.18876 5.86222 6.58445 6.12648 6.91334 6.41107L7.05723 6.53811L7.14973 6.37041C7.26279 6.16206 7.40154 5.96386 7.54543 5.80124L7.68931 5.65387L7.62765 5.52682L6.68723 4.35799C6.62557 4.27668 6.59987 4.17504 6.61529 4.07849C6.6307 3.97685 6.69237 3.89046 6.77459 3.83456L8.5064 2.73687C8.56292 2.7013 8.62973 2.68097 8.70167 2.68097C8.80959 2.68097 8.91237 2.73179 8.98431 2.8131L10.0429 4.12931L10.9988 3.68718V2.35573C10.9988 2.15754 11.1581 2 11.3585 2H13.5682C13.6658 2 13.7532 2.03557 13.8251 2.10672C13.8919 2.17278 13.9331 2.26426 13.9331 2.36081V3.72276L13.9999 3.76849C14.0513 3.80407 14.1026 3.83964 14.1643 3.88538C14.3596 4.03783 14.6576 4.29193 14.93 4.64766L14.9917 4.72388L15.0893 4.70356C15.9013 4.52061 16.816 4.42914 17.89 4.42914C18.1367 4.42914 18.3833 4.42914 18.6403 4.44438L19 4.45455L18.8818 7.5799L18.5221 7.56973C18.1315 7.55449 17.7872 7.54941 17.4789 7.54941L16.7543 7.55957L17.1294 7.82891C17.2117 7.88989 17.299 7.95596 17.3915 8.03727C20.2693 10.5579 18.3731 14.3794 17.7204 15.4873C17.001 16.712 16.0143 17.8402 14.9403 18.6533C14.1335 19.2682 12.8899 20 11.5589 20L11.5332 19.9898ZM7.86404 8.53529C7.10348 8.53529 6.53307 8.69283 6.17848 9.0079C5.42307 9.66855 5.06334 10.5884 5.09932 11.747C5.13529 12.8091 5.51043 13.9983 6.18876 15.1824C6.83626 16.3156 7.71501 17.3523 8.6657 18.0943C9.65751 18.8718 10.6493 19.2835 11.5332 19.2835C12.4171 19.2835 13.4603 18.8566 14.4778 18.0841C15.4799 17.3219 16.3997 16.275 17.0729 15.1265C18.6249 12.4737 18.5581 10.0243 16.8879 8.56578C16.6669 8.37267 16.5076 8.27611 16.2969 8.17448L16.1531 8.10333C15.9938 8.0271 15.7882 7.92547 15.5415 7.78826L15.4799 7.75268L15.4131 7.77301C15.3051 7.80858 15.2075 7.84416 15.115 7.88989C14.4624 8.18972 13.9742 8.63185 13.5322 9.32806C13.5014 9.3738 13.4654 9.42462 13.4089 9.47544L13.3883 9.49577L12.2681 11.8944L12.1601 12.2654C11.9957 12.86 12.0368 13.4952 12.2835 14.0593L12.3914 14.3032L14.1592 14.0999L14.2414 14.8063L12.5507 14.9994L12.6586 16.5951L11.9392 16.646L11.8107 14.7758L11.6257 14.349C11.3996 13.8306 11.3071 13.2564 11.3585 12.6872L11.3842 12.428L9.96584 13.0632L9.31834 14.6894L8.65029 14.4252L9.20015 13.048L7.52487 12.6567L7.68931 11.9656L9.64723 12.4229L11.6514 11.5285L12.4839 9.74478L12.3349 9.68379C11.8467 9.48052 11.1375 9.20102 10.526 9.02315L9.96584 8.86053C9.3132 8.69283 8.72223 8.59627 8.19806 8.56578C8.07987 8.5607 7.96681 8.55562 7.8589 8.55562L7.86404 8.53529ZM17.8438 5.1406C16.1839 5.1406 14.93 5.35912 13.9125 5.82665C12.7254 6.37041 11.9238 7.10728 11.2351 8.29136L11.1426 8.4489L11.3174 8.50988C11.8415 8.69283 12.3451 8.8961 12.674 9.03331L12.7049 9.04348H12.7665L12.8025 9.03331C12.8488 9.01807 12.8899 8.98758 12.9207 8.94184C13.4346 8.12874 14.0358 7.59006 14.8118 7.23433C15.4388 6.94466 16.1942 6.82778 17.4224 6.82778C17.6125 6.82778 17.8129 6.82778 18.0185 6.83286H18.1726L18.2343 5.13552H17.8489L17.8438 5.1406ZM3.77348 7.3563L3.90196 7.39695C4.47751 7.58498 4.89376 7.89497 5.14557 8.12366C5.25862 8.2253 5.34598 8.32185 5.42307 8.41333L5.50529 8.50988L5.78279 8.35743C6.01918 8.23038 6.39945 8.03727 6.89279 7.82383L7.04182 7.75776L6.96987 7.61547C6.87223 7.42744 6.72834 7.23941 6.54334 7.06155C6.25557 6.78713 5.86501 6.5127 5.38196 6.25861C5.04279 6.08075 4.66251 5.90796 4.26168 5.76059L4.0921 5.69452L3.77348 7.36138V7.3563ZM8.31112 6.03501C8.25459 6.08075 8.17237 6.16206 8.07987 6.26877C7.93084 6.44156 7.72015 6.73631 7.59168 7.14286L7.57112 7.20384L7.60195 7.25974C7.6739 7.39695 7.73556 7.54941 7.77668 7.71203L7.80751 7.82383H7.9257C8.03362 7.82383 8.14154 7.82891 8.24945 7.83399C8.88667 7.86957 9.5907 7.99153 10.341 8.19989L10.4592 8.23038L10.5157 8.12366C11.3071 6.69057 12.2321 5.81141 13.6144 5.17617C13.7429 5.12027 13.8714 5.06945 13.9999 5.01863L14.2208 4.93224L14.0667 4.76454C13.9382 4.63749 13.8149 4.52569 13.7069 4.44438C13.6093 4.36815 13.5271 4.31225 13.4706 4.27668L13.4089 4.23602C13.2753 4.16488 13.2033 4.04291 13.2033 3.91587V2.71146H11.7131V3.91587C11.7131 4.05308 11.6308 4.18012 11.5075 4.23602L10.0892 4.89159C10.0429 4.91191 9.99154 4.92716 9.93501 4.92716C9.82709 4.92716 9.72431 4.87634 9.65237 4.79503L8.61431 3.50932L7.4889 4.22078L8.47556 5.44551C8.53723 5.52174 8.56292 5.62338 8.55265 5.71993C8.53723 5.81649 8.48584 5.90288 8.40362 5.95878C8.40362 5.95878 8.39848 5.96386 8.39334 5.96894H8.39848C8.37279 5.98419 8.34709 6.00452 8.31626 6.02993L8.31112 6.03501Z" fill="#636363"/>
</svg>
