<svg width="22" height="22" viewBox="0 0 22 22" fill="none" xmlns="http://www.w3.org/2000/svg">
<g clip-path="url(#clip0_1639_2326)">
<path fill-rule="evenodd" clip-rule="evenodd" d="M19.9357 6.05916C19.8427 6.02329 19.604 5.99032 19.143 6.03158C18.6845 6.07265 18.2204 6.13368 17.7508 6.21487C17.2288 6.30511 16.6495 6.3435 16.0159 6.33369C15.3618 6.3235 14.7694 6.22604 14.2509 6.02608C14.0384 5.94416 13.8952 5.9124 13.8083 5.90608C13.7955 5.90516 13.7865 5.9053 13.7806 5.90566C13.7168 5.96288 13.6931 5.99857 13.6868 6.0102C13.6582 6.06381 13.6149 6.16051 13.5566 6.31176C13.3184 6.9294 13.1916 7.55759 13.1742 8.19801C13.1563 8.85535 13.2259 9.40307 13.3691 9.85066C13.5223 10.3297 13.7066 10.719 13.9152 11.0273C14.1296 11.344 14.303 11.4712 14.4137 11.5139C14.4672 11.5345 14.6422 11.56 15.019 11.4784C15.3634 11.4038 15.7837 11.2472 16.2843 10.9939C16.7781 10.7442 17.2749 10.4306 17.7746 10.051C18.2558 9.68547 18.7283 9.20974 19.1899 8.61732C19.644 8.03463 19.9997 7.40813 20.2585 6.73699C20.3357 6.53677 20.3161 6.41402 20.2733 6.32732C20.2256 6.23079 20.1349 6.13598 19.9357 6.05916ZM19.0107 5.04672C19.4964 5.00324 19.948 5.01155 20.289 5.14305C20.6891 5.29733 21.0148 5.55424 21.2005 5.93004C21.391 6.31564 21.3748 6.72273 21.2255 7.10988C20.9331 7.86805 20.5315 8.57443 20.0221 9.22826C19.5202 9.87242 18.9905 10.4103 18.4309 10.8354C17.8898 11.2465 17.3427 11.593 16.7895 11.8728C16.243 12.1492 15.7383 12.3444 15.2798 12.4437C14.8535 12.536 14.4203 12.5688 14.0605 12.43C13.6545 12.2734 13.3277 11.9434 13.0581 11.545C12.7828 11.1382 12.5609 10.6568 12.3859 10.1096C12.2007 9.53094 12.1251 8.86999 12.145 8.13631C12.1655 7.38568 12.3143 6.65257 12.5895 5.93887C12.652 5.77686 12.7116 5.63768 12.7677 5.53282C12.846 5.38669 12.9606 5.26088 13.085 5.15241C13.3034 4.96201 13.5778 4.90015 13.8487 4.91984C14.0851 4.93701 14.3412 5.00858 14.6041 5.10997C14.9742 5.25268 15.4338 5.336 15.9951 5.3447C16.5769 5.35373 17.0885 5.31801 17.5331 5.24119C18.03 5.1553 18.5225 5.09043 19.0107 5.04672ZM8.65044 5.56294C7.73362 5.20941 6.82278 5.08075 5.91075 5.17035C4.99456 5.2604 4.19749 5.54735 3.5085 6.02788C2.82328 6.50581 2.33709 7.12241 2.04248 7.8864C1.78896 8.54385 1.65172 9.28176 1.63713 10.1051C1.62239 10.9367 1.7121 11.719 1.90325 12.4539C2.10063 13.2125 2.34334 13.923 2.63065 14.5861C2.91689 15.2468 3.22248 15.776 3.54215 16.1835C3.73746 16.4324 3.90474 16.6009 4.04218 16.7106C4.05264 16.6976 4.06359 16.6839 4.07501 16.6694C4.29219 16.3942 4.61156 16.0572 5.02274 15.6623C5.45814 15.2443 5.92827 14.902 6.43388 14.6396L6.43992 14.6365C6.92519 14.393 7.50747 14.163 8.18203 13.9446C8.84631 13.7295 9.4263 13.5579 9.92056 13.4306C10.3751 13.3137 10.7846 13.1696 11.151 12.9999C11.4247 12.8731 11.5454 12.7683 11.5953 12.7077C11.5936 12.7031 11.5918 12.6983 11.5897 12.693C11.5789 12.6657 11.5637 12.6321 11.5428 12.5915C11.442 12.3964 11.3018 12.1518 11.1195 11.8557C10.9262 11.5419 10.7767 11.2621 10.6833 11.0232L10.6828 11.0222C10.4035 10.3032 10.2379 9.57687 10.1885 8.84455C10.1387 8.1064 10.2252 7.42662 10.4612 6.81457C10.4892 6.74188 10.4898 6.68991 10.4814 6.64894C10.4754 6.61967 10.4565 6.57094 10.3885 6.5013C10.28 6.39026 10.178 6.29958 10.0828 6.22692C10.0092 6.17082 9.87716 6.09265 9.66625 5.99564C9.44058 5.89184 9.27075 5.81546 9.15463 5.76531C9.04245 5.7169 8.87556 5.64975 8.65044 5.56294ZM5.76935 4.18635C6.856 4.07958 7.93647 4.23529 9.0037 4.64683C9.23322 4.73534 9.41582 4.80854 9.54785 4.86556C9.67598 4.92086 9.8551 5.00151 10.0831 5.10636C10.3259 5.21808 10.5399 5.33524 10.7048 5.46101C10.8481 5.57031 10.9887 5.69689 11.127 5.83841C11.3058 6.02143 11.4393 6.23948 11.4911 6.49113C11.5405 6.73112 11.5134 6.96649 11.4282 7.18746C11.249 7.65229 11.1738 8.19213 11.2159 8.81635C11.2583 9.44624 11.4008 10.0756 11.6456 10.7056C11.7077 10.8641 11.8219 11.085 12.0007 11.3754C12.1906 11.6838 12.3452 11.9522 12.4619 12.1782C12.5272 12.3049 12.5826 12.437 12.6129 12.5686C12.6423 12.6965 12.6575 12.8649 12.5923 13.0341C12.4402 13.4284 12.0503 13.6969 11.6251 13.8938C11.1966 14.0923 10.7278 14.2561 10.2203 14.3867C9.75262 14.5071 9.19377 14.6722 8.54232 14.8831C7.90279 15.0902 7.37202 15.3016 6.94529 15.5153C6.53197 15.7302 6.13782 16.0152 5.7636 16.3745C5.36426 16.758 5.08108 17.0601 4.90362 17.2849C4.80056 17.4155 4.70186 17.53 4.61176 17.6133C4.56878 17.653 4.50758 17.7047 4.43271 17.7452C4.38454 17.7712 4.18451 17.875 3.93923 17.7804C3.50074 17.6113 3.10012 17.2344 2.72812 16.7603C2.33953 16.2649 1.99268 15.6541 1.68227 14.9376C1.37292 14.2237 1.11411 13.4645 0.904983 12.6607C0.6897 11.8331 0.591618 10.9631 0.607767 10.0523C0.624067 9.13325 0.777851 8.28534 1.07548 7.51351C1.43773 6.57409 2.04308 5.8068 2.88415 5.22017C3.72141 4.63624 4.68684 4.29272 5.76935 4.18635Z" fill="#636363"/>
</g>
<defs>
<clipPath id="clip0_1639_2326">
<rect width="22" height="22" fill="white"/>
</clipPath>
</defs>
</svg>
