<svg width="22" height="22" viewBox="0 0 22 22" fill="none" xmlns="http://www.w3.org/2000/svg">
<path fill-rule="evenodd" clip-rule="evenodd" d="M10.5 2.00007C10.5 2.00007 10.5 2 11 2H11.088C11.1266 2 11.1616 2 11.1934 2C11.5 2 11.5 2.00007 11.5 2.00007V9.25C11.5 9.94885 11.782 10.221 12.0019 10.3493C12.0265 10.3636 12.0512 10.3767 12.0758 10.3885C12.0753 10.3284 12.0746 10.2658 12.0739 10.2009V10.2001C12.055 8.4358 12.0182 4.99985 14.7376 4.99985C18.4629 4.99985 21.1239 18.0031 19.5273 19.33C17.9307 20.6568 14.7376 19.8607 13.1411 18.2684C11.8521 16.9829 11.9636 13.9792 12.0436 11.8229L12.0437 11.8222C12.0485 11.691 12.0533 11.5629 12.0576 11.4385C11.895 11.3981 11.6979 11.3298 11.4981 11.2132C11.3199 11.1092 11.1487 10.9721 11 10.7959C10.8513 10.9721 10.6801 11.1092 10.5019 11.2132C10.302 11.3298 10.105 11.3981 9.94239 11.4385C9.94669 11.563 9.95144 11.6913 9.95634 11.8226C10.0364 13.979 10.1479 16.9831 8.85894 18.2686C7.26234 19.8609 4.06925 20.6569 2.47268 19.3301C0.87611 18.0032 3.53706 5 7.26234 5C9.98179 5 9.94499 8.43585 9.92609 10.2001C9.92599 10.2083 9.92589 10.2164 9.92579 10.2245C9.92519 10.281 9.92464 10.3357 9.92419 10.3885C9.94884 10.3767 9.97354 10.3637 9.99809 10.3493C10.218 10.221 10.5 9.94885 10.5 9.25V2.00007ZM14.7376 5.99985C14.2606 5.99985 13.9921 6.1501 13.8043 6.34345C13.5876 6.56655 13.4066 6.92535 13.2795 7.4323C13.057 8.31975 13.0665 9.34095 13.0741 10.1646C13.0754 10.3071 13.0767 10.4437 13.0767 10.5726C13.0767 10.9526 13.0598 11.4077 13.0422 11.8811C13.0353 12.0675 13.0283 12.2566 13.0221 12.4452C12.9998 13.1328 12.987 13.8527 13.0202 14.5491C13.0536 15.2492 13.1321 15.8918 13.2786 16.4298C13.4269 16.9742 13.6254 17.3392 13.8472 17.5604C14.4863 18.1977 15.4954 18.7125 16.5246 18.9121C17.5421 19.1094 18.3612 18.9634 18.8409 18.5984C18.8434 18.5928 18.8461 18.5863 18.8492 18.5787C18.8788 18.5047 18.9147 18.3777 18.9439 18.1842C19.0023 17.7967 19.0175 17.2561 18.9781 16.5902C18.8997 15.2653 18.6143 13.5844 18.1634 11.9303C17.7108 10.2698 17.1086 8.6999 16.426 7.56915C16.0844 7.0031 15.7475 6.5893 15.4351 6.32675C15.1259 6.06685 14.8967 5.99985 14.7376 5.99985ZM7.26234 6C7.73939 6 8.00789 6.15025 8.19569 6.3436C8.41239 6.5667 8.59339 6.9255 8.72049 7.43245C8.94294 8.31995 8.93349 9.3411 8.92589 10.1648C8.92454 10.3073 8.92329 10.4438 8.92329 10.5728C8.92329 10.9528 8.94019 11.4078 8.95774 11.8812C8.96469 12.0675 8.97169 12.2569 8.97784 12.4454C9.00024 13.133 9.01294 13.8529 8.97979 14.5492C8.94644 15.2494 8.86794 15.8919 8.72134 16.43C8.57309 16.9743 8.37459 17.3394 8.15279 17.5606C7.51374 18.1979 6.50464 18.7127 5.47545 18.9123C4.45795 19.1096 3.63884 18.9636 3.15911 18.5986C3.15663 18.593 3.15385 18.5864 3.15081 18.5788C3.1212 18.5049 3.0853 18.3778 3.05612 18.1843C2.99769 17.7968 2.9825 17.2562 3.0219 16.5903C3.10028 15.2654 3.38573 13.5846 3.83662 11.9305C4.28925 10.27 4.89135 8.70005 5.57394 7.5693C5.91564 7.00325 6.25244 6.58945 6.56489 6.3269C6.87409 6.067 7.10324 6 7.26234 6Z" fill="#636363"/>
</svg>
