<svg width="22" height="22" viewBox="0 0 22 22" fill="none" xmlns="http://www.w3.org/2000/svg">
<path d="M18.7452 9.65465C18.7638 9.66443 18.7824 9.67421 18.8 9.684V9.94721C18.8 11.4834 18.8 13.0196 18.8 14.5548C18.8 14.6351 18.7765 14.7319 18.8117 14.7916C18.8655 14.8826 18.9624 15.0059 19.0416 15.0069C19.118 15.0069 19.2002 14.8738 19.2696 14.7906C19.2902 14.7662 19.2765 14.7123 19.2765 14.6722C19.2765 12.4208 19.2765 10.1683 19.2765 7.91688C19.2765 7.61845 19.205 7.54898 18.9047 7.54898C17.0143 7.548 15.1248 7.54604 13.2344 7.54898C12.4389 7.55094 11.9575 8.05289 11.937 8.85034C11.9125 9.81805 12.1826 10.6996 12.6288 11.549C12.937 12.1351 13.0837 12.7681 12.9477 13.4384C12.756 14.3758 11.8959 15.046 10.9174 15.0255C9.97222 15.0059 9.14932 14.3004 8.99277 13.3709C8.88612 12.7358 9.01527 12.1312 9.30881 11.5744C9.76282 10.7114 10.0446 9.81707 10.0104 8.8298C9.98298 8.04506 9.50744 7.55094 8.7188 7.54898C6.9419 7.54507 5.16402 7.54702 3.38712 7.54898C3.07793 7.54898 3.00943 7.62041 3.00845 7.93645C3.00845 9.05386 3.00845 10.1723 3.00845 11.2897C3.00845 11.3454 2.99084 11.4208 3.01922 11.454C3.0838 11.5313 3.16794 11.6312 3.25307 11.64C3.32059 11.6468 3.4243 11.545 3.46736 11.4668C3.50552 11.3973 3.48693 11.2946 3.48693 11.2065C3.4879 10.6957 3.48693 10.185 3.48693 9.6204C3.57988 9.7065 3.63174 9.75151 3.67968 9.80044C4.165 10.3132 4.81569 10.3083 5.30394 9.78772C5.65619 9.41198 5.96343 9.42764 6.33525 9.77989C6.50746 9.94329 6.73544 10.0842 6.96147 10.1449C7.38025 10.2554 7.72369 10.0725 8.00549 9.75151C8.24326 9.48048 8.56714 9.4384 8.82349 9.62236C9.4096 10.0421 9.4458 10.183 9.1366 10.8405C9.11606 10.8846 9.09062 10.9257 9.06909 10.9678C8.77946 11.5274 8.54757 12.1038 8.48397 12.7407C8.36068 13.9736 9.17672 15.1409 10.3842 15.4335C11.6033 15.729 12.8479 15.0812 13.299 13.9139C13.6336 13.0499 13.4575 12.2241 13.0984 11.4149C12.9203 11.0147 12.7354 10.6175 12.5515 10.2153C13.0896 10.0216 13.0652 10.0245 13.39 9.68987C13.6288 9.4433 13.981 9.45308 14.2295 9.69574C14.3156 9.77989 14.391 9.87676 14.4849 9.95014C14.9379 10.3024 15.5309 10.2417 15.9379 9.80631C16.3127 9.40514 16.6219 9.40416 16.9957 9.80337C17.0064 9.81511 17.0162 9.82783 17.028 9.83958C17.4595 10.2906 18.1424 10.2906 18.572 9.83958C18.6307 9.77793 18.6874 9.71531 18.7452 9.65367V9.65465ZM12.4203 5.43451C12.4027 5.47071 12.3871 5.50887 12.3656 5.5441C11.9605 6.20359 11.6611 6.89341 11.4419 7.60769C10.9791 9.11649 11.0123 10.5773 11.6757 11.9893C11.8313 12.319 11.9634 12.6693 12.0211 13.0235C12.1004 13.5118 11.6434 13.9491 11.074 14.002C10.4986 14.0548 10.0241 13.7133 10.0133 13.2133C10.0084 13.0157 10.0427 12.8112 10.0935 12.6155C10.2589 11.9824 10.5025 11.3562 10.6023 10.7192C10.7579 9.72118 10.7305 8.71238 11.0485 7.72315C11.0916 7.58812 11.0309 7.4844 10.8636 7.46972C10.6963 7.45505 10.6092 7.55289 10.5838 7.68401C10.4683 8.26718 10.3049 8.85034 10.256 9.43449C10.1787 10.3572 10.1004 11.2711 9.75597 12.1713C9.62975 12.501 9.55245 12.8533 9.53582 13.1947C9.50353 13.8748 10.1337 14.4129 10.9027 14.4208C11.7149 14.4286 12.3969 13.911 12.4967 13.2094C12.5573 12.7848 12.4037 12.4032 12.2188 12.0382C11.4507 10.5294 11.4409 8.96678 12.0153 7.34937C12.3939 6.28186 12.9722 5.30046 13.7804 4.41103C13.8743 4.30829 13.9732 4.1987 13.8587 4.07542C13.7354 3.94234 13.5867 4.01279 13.4468 4.07835C13.3607 4.11945 13.2765 4.16446 13.1953 4.21338C12.4292 4.66445 11.8401 5.25349 11.3998 5.94625C11.1875 6.27991 11.0231 6.63509 10.846 6.98343C10.7843 7.10476 10.8333 7.22511 10.981 7.23783C11.0701 7.24565 11.2041 7.17814 11.2677 7.11063C11.347 7.02648 11.3734 6.90613 11.4243 6.80241C11.6669 6.30632 11.9781 5.84253 12.4203 5.43842V5.43451ZM18.8009 18.5078H3.4879C3.4879 18.3933 3.4879 18.2975 3.4879 18.2025C3.4879 16.3454 3.4879 14.4883 3.4879 12.6302C3.4879 12.5499 3.51432 12.4511 3.47812 12.3934C3.41843 12.2975 3.31667 12.229 3.2335 12.1478C3.15914 12.229 3.0701 12.3024 3.01628 12.3963C2.98497 12.4511 3.00845 12.5382 3.00845 12.6106C3.00845 14.5803 3.00845 16.5499 3.00845 18.5205C3.00845 18.9765 3.03096 19 3.48203 19C8.58768 19 13.6943 19 18.8 19C18.8645 19 18.9281 19 18.9927 19C19.1806 19 19.2765 18.907 19.2765 18.7192C19.2765 17.7466 19.2775 16.773 19.2765 15.8004C19.2765 15.6458 19.2148 15.5215 19.0436 15.5225C18.8401 15.5225 18.8009 15.6761 18.8009 15.8425C18.8 16.6301 18.8009 17.4188 18.8009 18.2065C18.8009 18.3024 18.8009 18.3973 18.8009 18.5098V18.5078Z" fill="#636363"/>
<path d="M6.96902 13.1664C6.96902 13.6096 6.61384 13.9668 6.17646 13.9638C5.73811 13.9599 5.38195 13.5959 5.38978 13.1576C5.39662 12.7241 5.743 12.3787 6.17353 12.3748C6.6158 12.3709 6.96902 12.7221 6.96902 13.1664ZM6.15689 12.8552C5.99643 12.866 5.88977 12.9687 5.87118 13.1527C5.85357 13.3288 6.00132 13.4834 6.17744 13.4785C6.36433 13.4736 6.4749 13.3728 6.4886 13.183C6.50132 13.002 6.36335 12.8582 6.15592 12.8552H6.15689Z" fill="#636363"/>
<path d="M6.68132 17.5235C6.68132 17.727 6.53455 17.8767 6.35941 17.864C6.1735 17.8493 6.06685 17.7397 6.0551 17.5538C6.04532 17.3845 6.2097 17.2241 6.37898 17.2387C6.56391 17.2544 6.66469 17.364 6.68132 17.5235Z" fill="#636363"/>
<path d="M16.4134 13.142C16.4134 13.5852 16.0582 13.9423 15.6208 13.9394C15.1824 13.9355 14.8263 13.5715 14.8341 13.1331C14.841 12.6997 15.1873 12.3543 15.6179 12.3504C16.0601 12.3465 16.4134 12.6977 16.4134 13.142ZM15.6012 12.8308C15.4408 12.8416 15.3341 12.9443 15.3155 13.1283C15.2979 13.3044 15.4457 13.459 15.6218 13.4541C15.8087 13.4492 15.9192 13.3484 15.9329 13.1586C15.9457 12.9776 15.8077 12.8337 15.6003 12.8308H15.6012Z" fill="#636363"/>
<path d="M18.1516 15.4588C18.1516 15.9021 17.7965 16.2592 17.3591 16.2563C16.9207 16.2524 16.5646 15.8884 16.5724 15.45C16.5792 15.0166 16.9256 14.6712 17.3561 14.6673C17.7984 14.6634 18.1516 15.0146 18.1516 15.4588ZM17.3395 15.1477C17.179 15.1585 17.0724 15.2612 17.0538 15.4452C17.0362 15.6213 17.1839 15.7759 17.3601 15.771C17.5469 15.7661 17.6575 15.6653 17.6712 15.4755C17.6839 15.2945 17.546 15.1506 17.3385 15.1477H17.3395Z" fill="#636363"/>
<path d="M14.677 15.4588C14.677 15.9021 14.3218 16.2592 13.8845 16.2563C13.4461 16.2524 13.09 15.8884 13.0978 15.45C13.1046 15.0166 13.451 14.6712 13.8815 14.6673C14.3238 14.6634 14.677 15.0146 14.677 15.4588ZM13.8649 15.1477C13.7044 15.1585 13.5978 15.2612 13.5792 15.4452C13.5616 15.6213 13.7093 15.7759 13.8855 15.771C14.0723 15.7661 14.1829 15.6653 14.1966 15.4755C14.2093 15.2945 14.0714 15.1506 13.8639 15.1477H13.8649Z" fill="#636363"/>
<path d="M8.4993 15.3619C8.4993 15.8052 8.14411 16.1623 7.70674 16.1594C7.26838 16.1555 6.91222 15.7915 6.92005 15.3531C6.9269 14.9197 7.27328 14.5743 7.7038 14.5703C8.14607 14.5664 8.4993 14.9177 8.4993 15.3619ZM7.68717 15.0508C7.5267 15.0615 7.42005 15.1643 7.40145 15.3482C7.38384 15.5244 7.53159 15.6789 7.70772 15.6741C7.8946 15.6692 8.00517 15.5684 8.01887 15.3786C8.03159 15.1975 7.89362 15.0537 7.68619 15.0508H7.68717Z" fill="#636363"/>
<path d="M5.43973 15.3649C5.43973 15.8081 5.08454 16.1652 4.64717 16.1623C4.20881 16.1584 3.85265 15.7944 3.86048 15.356C3.86733 14.9226 4.21371 14.5772 4.64423 14.5733C5.0865 14.5694 5.43973 14.9206 5.43973 15.3649ZM4.6276 15.0537C4.46713 15.0645 4.36048 15.1672 4.34188 15.3512C4.32427 15.5273 4.47202 15.6819 4.64815 15.677C4.83503 15.6721 4.9456 15.5713 4.9593 15.3815C4.97202 15.2005 4.83405 15.0566 4.62662 15.0537H4.6276Z" fill="#636363"/>
<path d="M8.9782 17.5235C8.9782 17.727 8.83143 17.8767 8.65628 17.864C8.47037 17.8493 8.36372 17.7397 8.35198 17.5538C8.34219 17.3845 8.50658 17.2241 8.67585 17.2387C8.86078 17.2544 8.96156 17.364 8.9782 17.5235Z" fill="#636363"/>
<path d="M4.38543 17.5235C4.38543 17.727 4.23865 17.8767 4.06351 17.864C3.8776 17.8493 3.77095 17.7397 3.75921 17.5538C3.74942 17.3845 3.9138 17.2241 4.08308 17.2387C4.26801 17.2544 4.36879 17.364 4.38543 17.5235Z" fill="#636363"/>
<path d="M11.2741 17.5235C11.2741 17.727 11.1273 17.8767 10.9522 17.864C10.7663 17.8493 10.6596 17.7397 10.6479 17.5538C10.6381 17.3845 10.8025 17.2241 10.9717 17.2387C11.1567 17.2544 11.2575 17.364 11.2741 17.5235Z" fill="#636363"/>
<path d="M13.571 17.5235C13.571 17.727 13.4242 17.8767 13.2491 17.864C13.0631 17.8493 12.9565 17.7397 12.9448 17.5538C12.935 17.3845 13.0993 17.2241 13.2686 17.2387C13.4536 17.2544 13.5543 17.364 13.571 17.5235Z" fill="#636363"/>
<path d="M18.1647 17.5235C18.1647 17.727 18.018 17.8767 17.8428 17.864C17.6569 17.8493 17.5502 17.7397 17.5385 17.5538C17.5287 17.3845 17.6931 17.2241 17.8624 17.2387C18.0473 17.2544 18.1481 17.364 18.1647 17.5235Z" fill="#636363"/>
<path d="M15.8678 17.5235C15.8678 17.727 15.7211 17.8767 15.5459 17.864C15.36 17.8493 15.2534 17.7397 15.2416 17.5538C15.2318 17.3845 15.3962 17.2241 15.5655 17.2387C15.7504 17.2544 15.8512 17.364 15.8678 17.5235Z" fill="#636363"/>
</svg>
