<svg width="22" height="22" viewBox="0 0 22 22" fill="none" xmlns="http://www.w3.org/2000/svg">
<path d="M20.502 3.28592C20.4788 3.23892 20.4414 3.21625 20.4251 3.20668C20.2791 3.12053 19.847 2.77487 19.1431 2.17703C19.0636 2.07543 18.9423 2.05857 18.8178 2.13333C18.7892 2.15035 18.7625 2.17066 18.7356 2.19202C18.7234 2.20173 18.7111 2.21038 18.6989 2.21904C18.5934 2.29511 18.4898 2.37238 18.3851 2.45063C18.1603 2.61767 17.9276 2.79049 17.6908 2.9472C16.5907 3.67847 15.3687 4.21758 14.2115 4.69046C13.012 5.18046 11.7434 5.72162 10.5769 6.46623C9.67658 7.04035 8.92291 7.64681 8.2733 8.32067C7.39965 9.22603 6.66305 10.3014 6.08259 11.5153C5.52185 12.6884 5.11218 13.6016 4.75374 14.4762C4.26949 15.6578 3.6222 16.7393 2.82871 17.6914C2.71694 17.8262 2.60323 17.9587 2.48944 18.0923C2.38373 18.2158 2.27795 18.3405 2.17427 18.4652C2.13161 18.5172 2.01655 18.6538 2.16366 18.7855C2.16764 18.7889 2.17163 18.7923 2.17666 18.7959C2.18637 18.8081 2.19622 18.8183 2.20824 18.8276L3.58635 20.0086C3.60544 20.0226 3.62565 20.0356 3.64608 20.0454C3.66343 20.054 3.69918 20.0713 3.74954 20.0759C3.7632 20.0768 3.77791 20.0778 3.79171 20.0767C3.80552 20.0755 3.81932 20.0744 3.83222 20.071L3.84828 20.0679L3.94156 20.0016C3.99484 19.9641 4.04257 19.9304 4.0894 19.8946C4.29798 19.7339 4.50559 19.572 4.7132 19.4101C5.16085 19.06 5.62296 18.6994 6.09172 18.3645C6.70376 17.9277 7.40121 17.614 8.07586 17.3093C8.26007 17.226 8.44314 17.1437 8.62539 17.0581C9.77 16.5231 10.8003 16.0372 11.8255 15.5045C13.0084 14.8898 14.0606 14.1193 14.9521 13.2152C15.9049 12.2499 16.6602 11.1632 17.199 9.98651C17.54 9.2416 17.8493 8.46704 18.1472 7.71809C18.2227 7.52802 18.2982 7.33795 18.3747 7.14795C18.8622 5.93601 19.359 4.99817 19.9373 4.19688C19.9792 4.13962 20.0202 4.08228 20.0632 4.02509C20.1457 3.9168 20.2196 3.82586 20.2819 3.74889C20.4621 3.52597 20.5624 3.40413 20.5043 3.28291L20.502 3.28592ZM17.7652 3.45806C17.7684 3.44244 17.8327 3.39834 17.8882 3.35891L17.9115 3.34258C18.2133 3.13127 18.5157 2.91155 18.8082 2.69854L18.9293 2.61087L19.9181 3.45337L19.7744 3.65348C19.5735 3.93198 19.3736 4.21054 19.1698 4.48566C19.1534 4.50881 19.1137 4.53245 19.1092 4.53636C18.558 4.38619 18.131 4.07361 17.8425 3.607C17.8169 3.56511 17.7618 3.47682 17.7661 3.45918L17.7652 3.45806ZM5.04327 18.4269C5.08356 18.5004 5.07624 18.5147 5.02318 18.549C4.87817 18.6456 4.7416 18.7575 4.62069 18.8568C4.36314 19.069 4.08641 19.299 3.80804 19.5373L2.68302 18.5734L2.82944 18.3956C3.08298 18.0891 3.34468 17.7716 3.59887 17.4556C3.66811 17.3707 3.69196 17.3618 3.76129 17.3972C3.83573 17.4351 3.91383 17.4659 3.9899 17.4954C4.0701 17.5263 4.14505 17.5569 4.21634 17.5945C4.5606 17.7757 4.82993 18.0478 5.04124 18.4257L5.04327 18.4269ZM5.49036 18.2066C5.4796 18.1943 5.46997 18.1809 5.45921 18.1686C5.69096 17.9936 5.92639 17.8262 6.15892 17.6703C6.74035 17.2788 7.25439 16.9915 7.89656 16.6528C8.58363 16.2909 8.96027 16.1122 9.29642 15.954C9.59771 15.8112 9.85859 15.6879 10.2742 15.4655C10.9331 15.1132 11.5919 14.7176 12.2329 14.2891C12.3403 14.2174 12.3695 14.0706 12.2978 13.9632C12.2634 13.9112 12.2099 13.8758 12.1485 13.8631C12.0871 13.8504 12.0239 13.8629 11.9718 13.8983C11.3442 14.3172 10.6975 14.7051 10.0517 15.0509C9.64487 15.2687 9.38834 15.3902 9.09139 15.5311C8.75412 15.6904 8.37201 15.8718 7.67722 16.2385C7.02193 16.5836 6.49576 16.8786 5.89663 17.2815C5.65189 17.4461 5.40642 17.6212 5.16463 17.804C5.11213 17.7391 5.05843 17.6762 5.00465 17.6144C4.97532 17.5807 4.97659 17.5776 5.0152 17.5233L5.02919 17.5042C5.10431 17.3954 5.18139 17.2889 5.25749 17.1812C5.4352 16.9327 5.61988 16.6753 5.7779 16.4065C5.95027 16.1134 6.11385 15.8101 6.27152 15.5159C6.43763 15.2065 6.60973 14.887 6.79138 14.5818L6.9097 14.3831C7.38048 13.5933 7.86689 12.7762 8.39527 12.0084C9.46864 10.4465 10.8506 9.12352 12.5016 8.07682C13.1885 7.64097 13.9705 7.21912 14.8917 6.78476C14.8994 6.78107 14.908 6.7785 14.9156 6.7748C14.9492 6.76236 14.9905 6.74622 15.0164 6.70789C15.067 6.63223 15.1137 6.55312 15.0848 6.48249C15.0549 6.41179 14.9775 6.37053 14.8976 6.33542C14.8443 6.31271 14.7886 6.33946 14.7472 6.35771L14.7352 6.36321C13.2898 7.01878 12.0711 7.73866 11.0098 8.56342C9.77901 9.51894 8.68785 10.6985 7.76514 12.0671C7.02365 13.1674 6.38408 14.3202 5.68475 15.604C5.45978 16.016 5.19134 16.4154 4.93234 16.8007C4.83111 16.951 4.73101 17.1003 4.63301 17.2497C4.625 17.2587 4.59778 17.2705 4.58398 17.2717C4.41401 17.1955 4.24666 17.1121 4.0691 17.0237L3.96093 16.9698C3.98606 16.9272 4.01449 16.8827 4.04389 16.8393C4.61411 16.0164 4.99596 15.1086 5.36406 14.2315C5.84838 13.0795 6.33275 11.9571 6.93499 10.9009C7.733 9.5036 8.7592 8.33223 9.98477 7.42175C11.0089 6.65986 12.1875 6.01533 13.694 5.3925L13.9092 5.30398C15.0461 4.83497 16.221 4.34959 17.308 3.7177C17.3168 3.71198 17.3287 3.70753 17.3406 3.70308L17.5749 4.05401C17.5517 4.06929 17.5296 4.08359 17.5078 4.09369C16.6079 4.51053 15.7069 4.92729 14.805 5.34188C14.7265 5.3776 14.644 5.40988 14.5647 5.44239C14.4963 5.46931 14.4268 5.49721 14.3594 5.52631L14.3441 5.53265C14.3169 5.54448 14.2886 5.5573 14.271 5.56769C12.7562 6.20366 11.6063 6.89136 10.6507 7.7298C10.3111 8.02823 9.99257 8.35873 9.68323 8.67826C9.57742 8.7881 9.47169 8.89689 9.3649 9.00561C9.30357 9.06787 9.28435 9.17738 9.29726 9.25007C9.30795 9.30888 9.35844 9.34194 9.40698 9.37276C9.42419 9.38346 9.44237 9.39528 9.45935 9.40912L9.5034 9.44385L9.54888 9.41217C9.56994 9.3978 9.58987 9.3844 9.60973 9.37206C9.65507 9.34248 9.69921 9.31492 9.73673 9.27635C9.85482 9.15681 9.97209 9.03404 10.0873 8.91112C10.3026 8.68325 10.5258 8.44853 10.7601 8.23676C11.6364 7.4456 12.6738 6.78177 13.9319 6.20926C14.0747 6.14422 14.2205 6.08255 14.3651 6.02185C14.5336 5.9512 14.7066 5.8777 14.8768 5.79872L14.9811 5.75528C15.3071 5.62166 15.6429 5.48345 15.969 5.334C16.5589 5.0635 17.1493 4.77087 17.7212 4.48751L17.8229 4.43651C17.8874 4.40404 17.9094 4.40662 17.9613 4.45034C18.0461 4.52168 18.1356 4.58491 18.2313 4.65172C18.2535 4.66699 18.2756 4.68225 18.2977 4.69857L18.2672 4.7429C18.2166 4.81751 18.1661 4.89108 18.1135 4.96449C17.9674 5.16761 17.8214 5.37073 17.6753 5.57385C17.5117 5.80109 17.3481 6.02834 17.1846 6.25558L17.1683 6.27767C17.1135 6.35094 17.0121 6.48854 17.1588 6.62647C17.2044 6.66975 17.2642 6.69079 17.3269 6.68458C17.4141 6.67586 17.5004 6.6185 17.5704 6.52202C17.9267 6.02838 18.2818 5.53572 18.6382 5.03998C18.6874 4.97055 18.7306 4.91126 18.752 4.90746C18.7712 4.90352 18.8193 4.92586 18.8826 4.9577C18.8559 5.00653 18.8294 5.05431 18.8028 5.10313C18.7172 5.25661 18.629 5.41624 18.5554 5.58004C18.3003 6.15144 18.034 6.76429 17.6921 7.5672C17.5723 7.84816 17.4573 8.13578 17.3451 8.4141C17.1243 8.96464 16.8947 9.53464 16.6272 10.0714C15.8065 11.7205 14.6397 13.0922 13.1612 14.1477C12.3371 14.7356 11.4047 15.2705 10.3091 15.7835C9.88462 15.9821 9.4582 16.1784 9.03178 16.3748C8.32189 16.7003 7.589 17.0379 6.87443 17.3853C6.55104 17.5423 6.24182 17.7383 5.94257 17.9276C5.80565 18.0142 5.66873 18.1008 5.52993 18.184L5.48474 18.2115L5.49036 18.2066Z" fill="#636363"/>
<path d="M16.3903 7.22542C16.4439 7.10773 16.3913 6.96789 16.2725 6.91425C16.2152 6.8881 16.152 6.88688 16.0924 6.90808C16.0339 6.93041 15.9876 6.97365 15.9614 7.03096C14.9649 9.23584 13.7317 10.9555 12.2968 12.1439C11.6853 12.6494 10.4302 13.5589 9.24431 14.3539C8.68955 14.7261 8.12269 15.09 7.55798 15.4383C7.50499 15.4716 7.46765 15.5228 7.45284 15.5841C7.43803 15.6453 7.44844 15.7083 7.48171 15.7613C7.52733 15.8342 7.60883 15.8768 7.69459 15.8732C7.73383 15.8707 7.77156 15.8596 7.80573 15.8387C8.37487 15.4876 8.94727 15.1198 9.50645 14.7448C10.7045 13.9422 11.9751 13.0211 12.5968 12.5068C14.0865 11.2737 15.3627 9.49677 16.3893 7.22535L16.3903 7.22542Z" fill="#636363"/>
</svg>
