<svg width="22" height="22" viewBox="0 0 22 22" fill="none" xmlns="http://www.w3.org/2000/svg">
<path d="M18.6968 11.6003C18.7151 11.6099 18.7334 11.6195 18.7507 11.6291V11.888C18.7507 13.3986 18.7507 14.9092 18.7507 16.4189C18.7507 16.4978 18.7276 16.593 18.7623 16.6517C18.8152 16.7412 18.9105 16.8624 18.9884 16.8634C19.0634 16.8634 19.1443 16.7325 19.2126 16.6507C19.2328 16.6267 19.2193 16.5738 19.2193 16.5343C19.2193 14.3203 19.2193 12.1054 19.2193 9.89146C19.2193 9.59799 19.1491 9.52968 18.8537 9.52968C16.9948 9.52872 15.1368 9.52679 13.2779 9.52968C12.4956 9.5316 12.0222 10.0252 12.002 10.8094C11.978 11.761 12.2435 12.6279 12.6823 13.4631C12.9854 14.0394 13.1297 14.6619 12.996 15.321C12.8074 16.2428 11.9616 16.9019 10.9994 16.8817C10.07 16.8624 9.26079 16.1687 9.10685 15.2546C9.00197 14.6302 9.12898 14.0355 9.41763 13.4881C9.86408 12.6394 10.1412 11.76 10.1075 10.7892C10.0806 10.0175 9.61295 9.5316 8.83744 9.52968C7.09013 9.52583 5.34185 9.52775 3.59454 9.52968C3.29049 9.52968 3.22314 9.59992 3.22218 9.9107C3.22218 11.0095 3.22218 12.1093 3.22218 13.2081C3.22218 13.2629 3.20486 13.337 3.23276 13.3697C3.29627 13.4457 3.37901 13.5439 3.46272 13.5525C3.52911 13.5593 3.63111 13.4592 3.67344 13.3822C3.71097 13.3139 3.69268 13.2129 3.69268 13.1263C3.69365 12.624 3.69268 12.1218 3.69268 11.5666C3.78409 11.6513 3.83509 11.6955 3.88223 11.7436C4.35947 12.2478 4.99932 12.243 5.47944 11.7311C5.82583 11.3617 6.12795 11.3771 6.49358 11.7234C6.66292 11.8841 6.88711 12.0227 7.10937 12.0823C7.52118 12.1911 7.8589 12.0111 8.13601 11.6955C8.36982 11.429 8.6883 11.3876 8.94039 11.5685C9.51673 11.9813 9.55233 12.1199 9.24829 12.7664C9.22808 12.8097 9.20306 12.8501 9.1819 12.8915C8.89709 13.4419 8.66906 14.0086 8.60651 14.635C8.48528 15.8473 9.28773 16.9952 10.4751 17.2829C11.6739 17.5735 12.8978 16.9365 13.3414 15.7886C13.6704 14.939 13.4973 14.127 13.1441 13.3312C12.969 12.9377 12.7872 12.5471 12.6063 12.1516C13.1355 11.9611 13.1114 11.964 13.4309 11.6349C13.6656 11.3924 14.012 11.4021 14.2564 11.6407C14.3411 11.7234 14.4152 11.8187 14.5075 11.8909C14.953 12.2372 15.5361 12.1776 15.9364 11.7494C16.3049 11.3549 16.6089 11.354 16.9765 11.7465C16.9871 11.7581 16.9967 11.7706 17.0082 11.7821C17.4325 12.2257 18.1041 12.2257 18.5265 11.7821C18.5843 11.7215 18.6401 11.6599 18.6968 11.5993V11.6003ZM12.4773 7.45042C12.46 7.48602 12.4446 7.52354 12.4235 7.55818C12.0251 8.20669 11.7307 8.88502 11.5152 9.58741C11.0601 11.0711 11.0928 12.5076 11.7451 13.896C11.8981 14.2203 12.028 14.5647 12.0848 14.913C12.1627 15.3932 11.7134 15.8233 11.1534 15.8752C10.5876 15.9272 10.121 15.5914 10.1104 15.0997C10.1056 14.9054 10.1393 14.7043 10.1893 14.5118C10.3519 13.8893 10.5915 13.2735 10.6896 12.6471C10.8426 11.6657 10.8157 10.6737 11.1284 9.70095C11.1707 9.56817 11.1111 9.46617 10.9465 9.45174C10.782 9.43731 10.6964 9.53353 10.6713 9.66246C10.5578 10.2359 10.3971 10.8094 10.349 11.3838C10.273 12.2911 10.196 13.1898 9.85734 14.075C9.73322 14.3992 9.65721 14.7456 9.64085 15.0814C9.6091 15.7501 10.2287 16.2793 10.985 16.287C11.7836 16.2947 12.4543 15.7857 12.5524 15.0959C12.6121 14.6783 12.461 14.303 12.2791 13.9441C11.5238 12.4605 11.5142 10.9239 12.079 9.33339C12.4514 8.28366 13.02 7.3186 13.8148 6.44398C13.9071 6.34295 14.0043 6.23519 13.8917 6.11396C13.7705 5.9831 13.6243 6.05238 13.4867 6.11684C13.402 6.15725 13.3193 6.20151 13.2394 6.24962C12.486 6.69318 11.9068 7.27241 11.4738 7.95363C11.265 8.28174 11.1034 8.63101 10.9292 8.97354C10.8686 9.09285 10.9167 9.2112 11.062 9.22371C11.1495 9.2314 11.2814 9.16501 11.3439 9.09862C11.4218 9.01588 11.4478 8.89753 11.4979 8.79554C11.7365 8.30772 12.0424 7.85164 12.4773 7.45427V7.45042ZM18.7517 20.306H3.69365C3.69365 20.1935 3.69365 20.0992 3.69365 20.0058C3.69365 18.1796 3.69365 16.3534 3.69365 14.5263C3.69365 14.4474 3.71963 14.3502 3.68402 14.2934C3.62533 14.1991 3.52527 14.1318 3.44348 14.0519C3.37036 14.1318 3.2828 14.2039 3.22988 14.2963C3.19909 14.3502 3.22218 14.4358 3.22218 14.507C3.22218 16.4439 3.22218 18.3807 3.22218 20.3186C3.22218 20.7669 3.24431 20.79 3.68787 20.79C8.70851 20.79 13.7301 20.79 18.7507 20.79C18.8142 20.79 18.8768 20.79 18.9403 20.79C19.125 20.79 19.2193 20.6986 19.2193 20.5139C19.2193 19.5575 19.2203 18.6001 19.2193 17.6437C19.2193 17.4917 19.1587 17.3695 18.9903 17.3704C18.7902 17.3704 18.7517 17.5215 18.7517 17.6851C18.7507 18.4596 18.7517 19.2351 18.7517 20.0097C18.7517 20.104 18.7517 20.1973 18.7517 20.308V20.306Z" fill="#636363"/>
<path d="M7.11655 15.0536C7.11655 15.4894 6.76728 15.8406 6.33719 15.8378C5.90614 15.8339 5.5559 15.476 5.5636 15.0449C5.57034 14.6187 5.91095 14.279 6.3343 14.2752C6.76921 14.2713 7.11655 14.6168 7.11655 15.0536ZM6.31795 14.7476C6.16015 14.7582 6.05527 14.8592 6.03699 15.0401C6.01967 15.2133 6.16496 15.3653 6.33815 15.3605C6.52193 15.3557 6.63065 15.2566 6.64412 15.0699C6.65663 14.8919 6.52097 14.7505 6.31698 14.7476H6.31795Z" fill="#636363"/>
<path d="M6.83398 19.338C6.83398 19.5382 6.68965 19.6854 6.51742 19.6729C6.33461 19.6584 6.22973 19.5507 6.21818 19.3679C6.20856 19.2014 6.37021 19.0436 6.53666 19.058C6.71851 19.0734 6.81762 19.1812 6.83398 19.338Z" fill="#636363"/>
<path d="M16.4037 15.0294C16.4037 15.4653 16.0544 15.8165 15.6243 15.8136C15.1932 15.8097 14.843 15.4518 14.8507 15.0207C14.8574 14.5945 15.1981 14.2549 15.6214 14.251C16.0563 14.2472 16.4037 14.5926 16.4037 15.0294ZM15.6051 14.7234C15.4473 14.734 15.3424 14.8351 15.3241 15.0159C15.3068 15.1891 15.4521 15.3412 15.6253 15.3363C15.809 15.3315 15.9178 15.2324 15.9312 15.0458C15.9437 14.8678 15.8081 14.7263 15.6041 14.7234H15.6051Z" fill="#636363"/>
<path d="M18.1126 17.3068C18.1126 17.7426 17.7634 18.0938 17.3333 18.0909C16.9022 18.0871 16.552 17.7291 16.5597 17.2981C16.5664 16.8718 16.907 16.5322 17.3304 16.5284C17.7653 16.5245 18.1126 16.8699 18.1126 17.3068ZM17.314 17.0008C17.1562 17.0114 17.0514 17.1124 17.0331 17.2933C17.0158 17.4665 17.1611 17.6185 17.3342 17.6137C17.518 17.6089 17.6267 17.5098 17.6402 17.3231C17.6527 17.1451 17.5171 17.0037 17.3131 17.0008H17.314Z" fill="#636363"/>
<path d="M14.6957 17.3068C14.6957 17.7426 14.3464 18.0938 13.9163 18.0909C13.4852 18.0871 13.135 17.7291 13.1427 17.2981C13.1494 16.8718 13.49 16.5322 13.9134 16.5284C14.3483 16.5245 14.6957 16.8699 14.6957 17.3068ZM13.897 17.0008C13.7393 17.0114 13.6344 17.1124 13.6161 17.2933C13.5988 17.4665 13.7441 17.6185 13.9173 17.6137C14.101 17.6089 14.2098 17.5098 14.2232 17.3231C14.2357 17.1451 14.1001 17.0037 13.8961 17.0008H13.897Z" fill="#636363"/>
<path d="M8.62144 17.213C8.62144 17.6489 8.27217 18.0001 7.84207 17.9972C7.41102 17.9933 7.06079 17.6354 7.06848 17.2043C7.07522 16.7781 7.41583 16.4385 7.83919 16.4346C8.27409 16.4308 8.62144 16.7762 8.62144 17.213ZM7.82283 16.907C7.66503 16.9176 7.56016 17.0186 7.54187 17.1995C7.52456 17.3727 7.66984 17.5247 7.84304 17.5199C8.02681 17.5151 8.13554 17.416 8.14901 17.2294C8.16152 17.0514 8.02585 16.9099 7.82187 16.907H7.82283Z" fill="#636363"/>
<path d="M5.61265 17.2147C5.61265 17.6506 5.26338 18.0018 4.83328 17.9989C4.40223 17.995 4.052 17.6371 4.05969 17.2061C4.06643 16.7798 4.40704 16.4402 4.8304 16.4363C5.2653 16.4325 5.61265 16.7779 5.61265 17.2147ZM4.81404 16.9087C4.65624 16.9193 4.55137 17.0204 4.53309 17.2012C4.51577 17.3744 4.66105 17.5265 4.83425 17.5216C5.01802 17.5168 5.12675 17.4177 5.14022 17.2311C5.15273 17.0531 5.01706 16.9116 4.81308 16.9087H4.81404Z" fill="#636363"/>
<path d="M9.09179 19.338C9.09179 19.5382 8.94746 19.6854 8.77523 19.6729C8.59242 19.6584 8.48754 19.5507 8.476 19.3679C8.46637 19.2014 8.62802 19.0436 8.79448 19.058C8.97633 19.0734 9.07543 19.1812 9.09179 19.338Z" fill="#636363"/>
<path d="M4.57616 19.338C4.57616 19.5382 4.43184 19.6854 4.25961 19.6729C4.07679 19.6584 3.97192 19.5507 3.96037 19.3679C3.95075 19.2014 4.11239 19.0436 4.27885 19.058C4.4607 19.0734 4.55981 19.1812 4.57616 19.338Z" fill="#636363"/>
<path d="M11.3506 19.338C11.3506 19.5382 11.2063 19.6854 11.034 19.6729C10.8512 19.6584 10.7463 19.5507 10.7348 19.3679C10.7252 19.2014 10.8868 19.0436 11.0533 19.058C11.2351 19.0734 11.3342 19.1812 11.3506 19.338Z" fill="#636363"/>
<path d="M13.6084 19.338C13.6084 19.5382 13.4641 19.6854 13.2918 19.6729C13.109 19.6584 13.0041 19.5507 12.9926 19.3679C12.983 19.2014 13.1446 19.0436 13.3111 19.058C13.4929 19.0734 13.592 19.1812 13.6084 19.338Z" fill="#636363"/>
<path d="M18.125 19.338C18.125 19.5382 17.9807 19.6854 17.8084 19.6729C17.6256 19.6584 17.5207 19.5507 17.5092 19.3679C17.4996 19.2014 17.6612 19.0436 17.8277 19.058C18.0095 19.0734 18.1086 19.1812 18.125 19.338Z" fill="#636363"/>
<path d="M15.8672 19.338C15.8672 19.5382 15.7229 19.6854 15.5506 19.6729C15.3678 19.6584 15.2629 19.5507 15.2514 19.3679C15.2418 19.2014 15.4034 19.0436 15.5699 19.058C15.7517 19.0734 15.8508 19.1812 15.8672 19.338Z" fill="#636363"/>
<path d="M6.11643 8.27773C6.08467 8.27773 6.05292 8.27196 6.02117 8.26041C5.88262 8.20749 5.81238 8.05258 5.8653 7.91307C6.74954 5.58268 9.00391 4.04416 11.4834 4.08553C13.8735 4.12498 16.0518 5.6635 16.9043 7.91307C16.9573 8.05162 16.887 8.20749 16.7485 8.26041C16.6089 8.31333 16.454 8.24309 16.4011 8.10454C15.6256 6.05895 13.6454 4.65995 11.4738 4.62435C9.22425 4.58586 7.17193 5.98583 6.36755 8.10454C6.32714 8.2123 6.22419 8.27869 6.11546 8.27869L6.11643 8.27773Z" fill="#636363"/>
<path d="M11.4315 3.72199C11.2833 3.72199 11.1621 3.60172 11.1621 3.45259V1.26941C11.1621 1.12123 11.2824 1 11.4315 1C11.5807 1 11.7009 1.12027 11.7009 1.26941V3.45259C11.7009 3.60076 11.5807 3.72199 11.4315 3.72199Z" fill="#636363"/>
<path d="M17.5064 7.51236C17.3967 7.51236 17.2947 7.44501 17.2543 7.33725C17.2023 7.19773 17.2735 7.04282 17.4131 6.99183L19.4596 6.23267C19.5982 6.18168 19.754 6.25192 19.805 6.39143C19.857 6.53095 19.7858 6.68586 19.6463 6.73685L17.5997 7.49601C17.5689 7.50755 17.5372 7.51333 17.5064 7.51333V7.51236Z" fill="#636363"/>
<path d="M15.2851 4.66285C15.2264 4.66285 15.1668 4.64361 15.1167 4.60416C15.0003 4.51082 14.982 4.34244 15.0744 4.22602L16.4388 2.52201C16.5311 2.40559 16.7014 2.3873 16.8169 2.47967C16.9333 2.573 16.9516 2.74138 16.8592 2.85781L15.4949 4.56182C15.4419 4.62821 15.364 4.66285 15.2851 4.66285Z" fill="#636363"/>
<path d="M5.31563 7.58915C5.28484 7.58915 5.25309 7.58338 5.2223 7.57184L3.17575 6.81268C3.03624 6.76072 2.96504 6.60581 3.01699 6.46726C3.06895 6.32774 3.22386 6.25654 3.36242 6.3085L5.40896 7.06765C5.54848 7.11961 5.61968 7.27452 5.56772 7.41308C5.52731 7.5218 5.42436 7.58819 5.31563 7.58819V7.58915Z" fill="#636363"/>
<path d="M7.53759 4.73991C7.4587 4.73991 7.38076 4.70528 7.32784 4.63889L5.96348 2.93487C5.87014 2.81845 5.88939 2.65007 6.00581 2.55674C6.12223 2.46341 6.29062 2.48265 6.38395 2.59907L7.74831 4.30309C7.84164 4.41951 7.8224 4.58789 7.70598 4.68122C7.65594 4.72067 7.59725 4.73991 7.53759 4.73991Z" fill="#636363"/>
</svg>
