<svg width="22" height="22" viewBox="0 0 22 22" fill="none" xmlns="http://www.w3.org/2000/svg">
<path d="M20.0779 4.13199C20.0711 3.86349 19.8778 3.63554 19.6125 3.58319L16.7133 3.01112C16.4001 2.94931 16.0956 3.15138 16.0334 3.46245C15.9712 3.77353 16.1747 4.07581 16.4879 4.13765L18.3007 4.49531L16.6663 5.85713C16.5491 5.73721 16.4257 5.62259 16.2964 5.51379C15.3832 4.74517 14.231 4.31275 13.0341 4.28927C11.8372 4.26578 10.6687 4.65274 9.72563 5.38495C8.7825 6.11711 8.12239 7.14975 7.85655 8.30888C7.59066 9.46795 7.73533 10.6826 8.2661 11.7481C8.40769 12.0324 8.75456 12.1489 9.04087 12.0083C9.32713 11.8677 9.44442 11.5232 9.30283 11.2389C8.89 10.4102 8.7775 9.46545 8.9843 8.56395C9.19104 7.66239 9.70446 6.85923 10.438 6.28976C11.1715 5.72028 12.0803 5.4193 13.0112 5.43758C13.9422 5.4558 14.8383 5.79219 15.5486 6.38995C16.2589 6.98777 16.74 7.81046 16.9108 8.71937C17.0815 9.62828 16.9316 10.5678 16.4861 11.3798C16.0407 12.1917 15.327 12.8264 14.4654 13.1767C13.6037 13.5271 12.6468 13.5718 11.7558 13.3033C11.4501 13.2112 11.1272 13.3826 11.0345 13.6861C10.9417 13.9896 11.1143 14.3103 11.4199 14.4023C12.5655 14.7476 13.7958 14.6901 14.9037 14.2396C16.0115 13.7891 16.9291 12.9732 17.5018 11.9293C18.0745 10.8854 18.2673 9.67731 18.0478 8.50872C17.931 7.88752 17.7016 7.29761 17.3751 6.7659L18.9543 5.44999L18.9963 7.10814C19.0043 7.4252 19.2697 7.67576 19.589 7.6678C19.9083 7.65979 20.1606 7.39631 20.1525 7.07925L20.0779 4.13199Z" fill="#636363"/>
<path d="M3.75047 7.14196C4.23597 6.35301 4.98049 5.75435 5.85858 5.4469C6.73672 5.13941 7.69468 5.14196 8.57116 5.45401C8.87179 5.56107 9.20293 5.40585 9.31073 5.10731C9.41854 4.80878 9.26223 4.47996 8.96155 4.3729C7.83471 3.97165 6.60299 3.9684 5.47399 4.36374C4.34499 4.75901 3.38772 5.52872 2.76352 6.54314C2.13932 7.55751 1.88635 8.75454 2.04722 9.93254C2.20809 11.1105 2.77299 12.1974 3.6467 13.0101C4.46722 13.7733 5.51302 14.2508 6.62644 14.3744V15.5541L4.89144 15.5543C4.57205 15.5543 4.31317 15.8114 4.31317 16.1286C4.31322 16.4458 4.57215 16.7028 4.89154 16.7028L6.62644 16.7027V18.4257C6.62644 18.7428 6.88537 19 7.20476 19C7.52415 19 7.78308 18.7428 7.78308 18.4257V16.7026L9.51798 16.7024C9.83737 16.7024 10.0962 16.4453 10.0962 16.1281C10.0962 15.811 9.83727 15.5539 9.51788 15.5539L7.78308 15.5541V14.3744C8.64917 14.2782 9.48238 13.967 10.2029 13.4627C11.1815 12.778 11.8924 11.7791 12.2159 10.6346C12.5394 9.49 12.4557 8.26974 11.9788 7.17931C11.8516 6.88839 11.511 6.755 11.218 6.88133C10.925 7.00766 10.7907 7.3459 10.9179 7.63682C11.2888 8.4849 11.3539 9.43402 11.1023 10.3242C10.8507 11.2144 10.2978 11.9913 9.53669 12.5239C8.85929 12.9979 8.05386 13.2527 7.23002 13.2578C7.22165 13.2574 7.21323 13.2572 7.20476 13.2572C7.19624 13.2572 7.18782 13.2574 7.1794 13.2578C7.09438 13.2572 7.00921 13.2541 6.924 13.2482C5.99513 13.184 5.11694 12.8039 4.43737 12.1719C3.75782 11.5398 3.31846 10.6944 3.19334 9.77822C3.06822 8.86199 3.26497 7.93095 3.75047 7.14196Z" fill="#636363"/>
</svg>
