<svg width="58" height="45" viewBox="0 0 58 45" fill="none" xmlns="http://www.w3.org/2000/svg">
<path fill-rule="evenodd" clip-rule="evenodd" d="M15 2.5H4C3.17157 2.5 2.5 3.17157 2.5 4V15C2.5 15.8284 3.17157 16.5 4 16.5H15C15.8284 16.5 16.5 15.8284 16.5 15V4C16.5 3.17157 15.8284 2.5 15 2.5ZM4 0C1.79086 0 0 1.79086 0 4V15C0 17.2091 1.79086 19 4 19H15C15.5499 19 16.0738 18.8891 16.5507 18.6883L23.7425 27.6781C23.275 28.3328 23 29.1343 23 30V41C23 43.2091 24.7909 45 27 45H38C40.2091 45 42 43.2091 42 41V30C42 27.7909 40.2091 26 38 26H27C26.5667 26 26.1494 26.0689 25.7586 26.1964L18.4381 17.0456C18.795 16.4471 19 15.7475 19 15V10H39V15C39 17.2091 40.7909 19 43 19H54C56.2091 19 58 17.2091 58 15V4C58 1.79086 56.2091 0 54 0H43C40.7909 0 39 1.79086 39 4V7.5H19V4C19 1.79086 17.2091 0 15 0H4ZM54 2.5H43C42.1716 2.5 41.5 3.17157 41.5 4V15C41.5 15.8284 42.1716 16.5 43 16.5H54C54.8284 16.5 55.5 15.8284 55.5 15V4C55.5 3.17157 54.8284 2.5 54 2.5ZM27 28.5H38C38.8284 28.5 39.5 29.1716 39.5 30V41C39.5 41.8284 38.8284 42.5 38 42.5H27C26.1716 42.5 25.5 41.8284 25.5 41V30C25.5 29.1716 26.1716 28.5 27 28.5Z" fill="#343741"/>
</svg>
