<svg width="80" height="80" viewBox="0 0 80 80" fill="none" xmlns="http://www.w3.org/2000/svg">
<path d="M38.476 45.8806C38.063 45.1492 37.1294 44.8911 36.3981 45.3041L33.7307 46.8142C32.8789 45.9279 31.7775 45.2869 30.5385 45.0029L30.5643 41.8709C30.5729 41.0277 29.8931 40.3393 29.0542 40.335C28.211 40.3264 27.5226 41.0062 27.5183 41.8451L27.4925 45.0632C26.3266 45.3729 25.2941 46.0053 24.4896 46.8615L21.6286 45.1793C20.9015 44.7534 19.968 44.9943 19.542 45.7214C19.1161 46.4485 19.3571 47.382 20.0841 47.808L22.9967 49.5202C22.8461 50.0623 22.7601 50.6259 22.7601 51.2153C22.7601 51.8047 22.8461 52.3597 22.9924 52.8975L20.0282 54.5753C19.2968 54.9883 19.0387 55.9219 19.4517 56.6533C19.8647 57.3846 20.7983 57.6428 21.5297 57.2298L24.481 55.5605C25.264 56.3951 26.2621 57.0233 27.3936 57.3459L27.3677 60.6629C27.3591 61.5062 28.0389 62.1945 28.8778 62.1988C29.721 62.2074 30.4094 61.5277 30.4137 60.6887L30.4395 57.4578C31.6527 57.204 32.7412 56.6016 33.5973 55.7627L36.2991 57.3545C37.0262 57.7804 37.9597 57.5395 38.3857 56.8125C38.8116 56.0854 38.5707 55.1518 37.8436 54.7259L35.1977 53.1685C35.3956 52.5533 35.5075 51.8993 35.5075 51.2196C35.5075 50.6087 35.4172 50.0193 35.2537 49.46L37.8995 47.9585C38.6309 47.5455 38.889 46.612 38.476 45.8806Z" fill="#DDDDDD"/>
<path d="M9.8513 62.4477L9.85064 62.4483C9.13221 63.0351 9.02731 64.0958 9.61244 64.8171L9.6132 64.818C17.1034 73.9621 28.1707 79.2101 39.9779 79.2101C61.6097 79.2101 79.2101 61.6097 79.2101 39.9779C79.2101 18.346 61.6097 0.75 39.9779 0.75C18.3461 0.75 0.75 18.3461 0.75 39.9779C0.75 47.3945 2.83259 54.6168 6.76849 60.8649C7.26393 61.6533 8.30459 61.8855 9.08775 61.3908C9.87642 60.8954 10.1087 59.8544 9.61369 59.0711C6.01654 53.3635 4.11526 46.7586 4.11526 39.9779C4.11526 20.2011 20.2054 4.11096 39.9822 4.11096C59.759 4.11096 75.8491 20.2011 75.8491 39.9779C75.8491 59.7547 59.759 75.8448 39.9822 75.8448C29.1857 75.8448 19.0691 71.0515 12.2201 62.6859C11.6333 61.9675 10.5726 61.8626 9.8513 62.4477Z" fill="#DDDDDD" stroke="#DDDDDD" stroke-width="0.5"/>
<path d="M67.0513 21.9213L67.0511 21.9211C60.9903 12.8559 50.8711 7.44067 39.9804 7.44067C22.0398 7.44067 7.44238 22.0381 7.44238 39.9787C7.44238 57.9192 22.0398 72.5166 39.9804 72.5166C57.9209 72.5166 72.5184 57.9192 72.5184 39.9787C72.5184 35.3532 71.5645 30.8785 69.6872 26.6902C69.3079 25.8411 68.3124 25.4627 67.4641 25.8414C66.6148 26.2205 66.2363 27.2162 66.615 28.0645L66.6151 28.0648C68.2957 31.8183 69.1488 35.8275 69.1488 39.9787C69.1488 56.0642 56.0616 69.1514 39.9761 69.1514C23.8906 69.1514 10.8076 56.0642 10.8076 39.9787C10.8076 23.8931 23.8949 10.8059 39.9804 10.8059C49.7444 10.8059 58.8173 15.66 64.252 23.7907C64.7678 24.5641 65.8136 24.7707 66.5862 24.2556C67.3597 23.7399 67.5664 22.694 67.0513 21.9213Z" fill="#DDDDDD" stroke="#DDDDDD" stroke-width="0.5"/>
<path d="M23.0704 28.0874C20.2481 28.0874 17.9551 30.3805 17.9551 33.2027C17.9551 36.025 20.2481 38.318 23.0704 38.318C25.8926 38.318 28.1857 36.025 28.1857 33.2027C28.1857 30.3805 25.8926 28.0874 23.0704 28.0874Z" fill="#DDDDDD"/>
<path d="M53.9848 55.4447C58.0117 55.4447 61.29 52.1665 61.29 48.1396C61.29 44.1127 58.0117 40.8345 53.9848 40.8345C49.958 40.8345 46.6797 44.1127 46.6797 48.1396C46.6797 52.1665 49.958 55.4447 53.9848 55.4447Z" fill="#DDDDDD"/>
<path d="M59.8623 29.6624C59.8623 28.8708 59.2213 28.2297 58.4297 28.2297C57.6381 28.2297 56.9971 28.8708 56.9971 29.6624C56.9971 30.454 57.6381 31.095 58.4297 31.095C59.2213 31.095 59.8623 30.454 59.8623 29.6624Z" fill="#DDDDDD"/>
<path d="M42.0996 58.8821C42.0996 59.6737 42.7406 60.3147 43.5322 60.3147C44.3238 60.3147 44.9649 59.6737 44.9649 58.8821C44.9649 58.0905 44.3238 57.4495 43.5322 57.4495C42.7406 57.4495 42.0996 58.0905 42.0996 58.8821Z" fill="#DDDDDD"/>
<path d="M37.5176 36.1184C36.726 36.1184 36.085 36.7594 36.085 37.551C36.085 38.3426 36.726 38.9837 37.5176 38.9837C38.3092 38.9837 38.9502 38.3426 38.9502 37.551C38.9502 36.7594 38.3092 36.1184 37.5176 36.1184Z" fill="#DDDDDD"/>
<path d="M55.191 24.485C55.7073 23.2847 55.7288 21.9596 55.2512 20.755C54.7737 19.5461 53.8487 18.5996 52.6484 18.0834C51.4481 17.5671 50.123 17.5456 48.9184 18.0231L38.5243 22.1532C37.3197 22.6308 36.3689 23.5557 35.8526 24.7561C35.3364 25.9564 35.3149 27.2815 35.7924 28.4861C36.27 29.695 37.1949 30.6415 38.3952 31.1577C39.0191 31.4245 39.6773 31.5621 40.3312 31.5621C40.9378 31.5621 41.5444 31.446 42.1252 31.218L52.5194 27.0879C53.724 26.6103 54.6748 25.6853 55.191 24.485Z" fill="#DDDDDD"/>
<path d="M30.6221 19.4436C30.6221 18.652 29.9811 18.011 29.1895 18.011C28.3979 18.011 27.7568 18.652 27.7568 19.4436C27.7568 20.2352 28.3979 20.8762 29.1895 20.8762C29.9811 20.8762 30.6221 20.2352 30.6221 19.4436Z" fill="#DDDDDD"/>
</svg>
